<svg width="38" height="38" viewBox="0 0 38 38" fill="none" xmlns="http://www.w3.org/2000/svg">
<path d="M33.5353 20.8525C33.6086 20.2587 33.6575 19.6413 33.6575 19C33.6575 18.3587 33.6086 17.7413 33.5109 17.1475L37.6394 14.0125C38.0059 13.7275 38.1036 13.205 37.8837 12.8012L33.9751 6.2225C33.7308 5.795 33.2178 5.6525 32.778 5.795L27.9166 7.695C26.8906 6.935 25.8157 6.3175 24.6187 5.8425L23.8858 0.8075C23.8125 0.3325 23.3972 0 22.9087 0H15.0913C14.6028 0 14.2119 0.3325 14.1386 0.8075L13.4057 5.8425C12.2087 6.3175 11.1094 6.95875 10.1078 7.695L5.24639 5.795C4.80667 5.62875 4.29366 5.795 4.04936 6.2225L0.140701 12.8012C-0.103591 13.2287 -0.00587401 13.7275 0.384992 14.0125L4.51352 17.1475C4.4158 17.7413 4.34251 18.3825 4.34251 19C4.34251 19.6175 4.39137 20.2587 4.48909 20.8525L0.360563 23.9875C-0.0058746 24.2725 -0.103591 24.795 0.116271 25.1987L4.02493 31.7775C4.26923 32.205 4.78224 32.3475 5.22196 32.205L10.0834 30.305C11.1094 31.065 12.1843 31.6825 13.3813 32.1575L14.1142 37.1925C14.2119 37.6675 14.6028 38 15.0913 38H22.9087C23.3972 38 23.8125 37.6675 23.8614 37.1925L24.5943 32.1575C25.7913 31.6825 26.8906 31.0413 27.8922 30.305L32.7536 32.205C33.1933 32.3713 33.7063 32.205 33.9506 31.7775L37.8593 25.1987C38.1036 24.7712 38.0059 24.2725 37.615 23.9875L33.5353 20.8525ZM19 26.125C14.9692 26.125 11.6713 22.9188 11.6713 19C11.6713 15.0813 14.9692 11.875 19 11.875C23.0308 11.875 26.3287 15.0813 26.3287 19C26.3287 22.9188 23.0308 26.125 19 26.125Z" fill="#FF881B"/>
</svg>
