<?xml version="1.0" encoding="UTF-8"?>
<svg width="1200px" height="1200px" viewBox="0 0 1200 1200" version="1.1" xmlns="http://www.w3.org/2000/svg" xmlns:xlink="http://www.w3.org/1999/xlink">
    <!-- Generator: Sketch 61.2 (89653) - https://sketch.com -->
    <title>NewPurple</title>
    <desc>Created with Sketch.</desc>
    <defs>
        <radialGradient cx="4.41521652%" cy="5.55162685%" fx="4.41521652%" fy="5.55162685%" r="95.7589593%" gradientTransform="translate(0.044152,0.055516),rotate(47.237280),scale(1.000000,0.675084),translate(-0.044152,-0.055516)" id="radialGradient-1">
            <stop stop-color="#8953B7" offset="0%"></stop>
            <stop stop-color="#976ABD" offset="100%"></stop>
        </radialGradient>
        <path d="M1004.8059,919.069264 C998.617868,925.185317 995.801964,933.972748 997.262062,942.58443 L1006.61364,997.734349 C1009.53384,1014.92256 996.01055,1028.87701 980.714285,1028.87701 C976.681633,1028.87701 972.509925,1027.89281 968.477273,1025.74868 L919.49446,999.702734 C915.670394,997.66405 911.463921,996.644707 907.257448,996.644707 C903.050976,996.644707 898.879267,997.66405 895.020436,999.702734 L846.037624,1025.74868 C842.004972,1027.89281 837.833264,1028.87701 833.800612,1028.87701 C818.504347,1028.87701 805.015822,1014.92256 807.901254,997.734349 L817.287599,942.58443 C818.747697,933.972748 815.897029,925.185317 809.708995,919.069264 L770.077762,880.01792 C754.468619,864.62234 763.09015,837.83825 784.643978,834.674775 L839.432419,826.625488 C847.984421,825.395247 855.389204,819.94704 859.213271,812.108651 L883.687295,761.914844 C888.519524,752.037771 897.905868,747.116809 907.257448,747.116809 C916.643793,747.116809 925.995373,752.037771 930.827602,761.914844 L955.336391,812.108651 C959.160457,819.94704 966.530475,825.395247 975.117242,826.625488 L1029.87092,834.674775 C1051.42475,837.83825 1060.04628,864.62234 1044.43713,880.01792 L1004.8059,919.069264 Z M619.746371,572.231171 C612.047025,571.612159 604.347678,571.096315 596.506409,571.096315 C589.303794,571.096315 582.243103,571.612159 575.182412,572.128002 C527.247772,562.086251 491.163738,520.784392 491.163738,471.366598 C491.163738,414.48627 538.920974,368.197925 597.606315,368.197925 C656.291656,368.197925 704.048892,414.48627 704.048892,471.366598 C704.048892,520.887561 667.822935,562.326978 619.746371,572.231171 L619.746371,572.231171 Z M298.056107,815.127891 C298.020746,814.396249 297.63178,813.803968 297.63178,813.072326 L297.63178,325.311065 C297.63178,306.079335 313.473307,290.470975 332.992332,290.470975 L578.253119,290.470975 C481.683452,291.690378 403.713436,369.105058 403.713436,464.566905 C403.713436,514.875995 425.707699,559.924231 460.36104,591.733234 C372.136463,632.078058 308.487469,715.659434 298.056107,815.127891 L298.056107,815.127891 Z M748.069672,619.660156 C734.727578,610.146377 720.514591,601.786844 705.500382,594.686487 C740.092284,562.717392 762.10848,517.771783 762.10848,466.845085 C762.10848,371.042732 685.295646,293.638348 590.159206,292.414149 L831.779985,292.414149 C851.00932,292.414149 866.615737,308.083902 866.615737,327.391276 L866.615737,645.333368 C866.615737,662.891886 880.828724,677.162554 898.316272,677.162554 C924.721772,677.162554 936.287242,662.96184 936.287242,645.333368 L936.287242,292.414149 C936.287242,253.764422 905.109244,222.459893 866.615737,222.459893 L309.243697,222.459893 C270.785027,222.459893 239.572193,253.764422 239.572193,292.414149 L239.572193,852.048193 C239.572193,890.662942 270.785027,922.002448 309.243697,922.002448 L660.73644,922.002448 C678.258824,922.002448 692.436975,907.73178 692.436975,890.173262 C692.436975,863.660599 678.293659,852.048193 660.73644,852.048193 L378.044309,852.048193 C378.009473,852.048193 377.835294,849.739702 377.835294,848.30564 C377.835294,740.05143 459.943163,650.859754 564.903285,639.841959 C572.532315,640.856295 580.056837,642.185426 587.929717,642.185426 C595.384568,642.185426 602.456226,639.981867 609.632391,639.072462 C642.656684,642.675106 673.207639,642.325335 699.752483,667.124118 C734.588235,699.582893 787.259893,647.606881 748.069672,619.660156 L748.069672,619.660156 Z" id="path-2"></path>
        <filter x="-0.9%" y="-0.6%" width="101.7%" height="101.7%" filterUnits="objectBoundingBox" id="filter-3">
            <feOffset dx="0" dy="2" in="SourceAlpha" result="shadowOffsetOuter1"></feOffset>
            <feGaussianBlur stdDeviation="2" in="shadowOffsetOuter1" result="shadowBlurOuter1"></feGaussianBlur>
            <feColorMatrix values="0 0 0 0 0   0 0 0 0 0   0 0 0 0 0  0 0 0 0.5 0" type="matrix" in="shadowBlurOuter1"></feColorMatrix>
        </filter>
    </defs>
    <g id="Page-1" stroke="none" stroke-width="1" fill="none" fill-rule="evenodd">
        <g id="NewPurple">
            <rect id="Rectangle" fill="url(#radialGradient-1)" x="0" y="0" width="1200" height="1200" rx="8"></rect>
            <g id="profile_image_favorite_round-[#1331]-copy-3">
                <use fill="black" fill-opacity="1" filter="url(#filter-3)" xlink:href="#path-2"></use>
                <use fill="#FFFFFF" fill-rule="evenodd" xlink:href="#path-2"></use>
            </g>
        </g>
    </g>
</svg>