<svg width="22" height="22" viewBox="0 0 22 22" fill="none" xmlns="http://www.w3.org/2000/svg">
<path d="M2.65723 18.1649C7.77104 24.1167 17.2552 22.9435 20.8005 15.9905C18.3038 15.9905 14.3975 15.9905 12.2832 15.9905C10.7491 15.9905 9.7564 16.0248 8.68637 15.4576C7.42725 14.7915 6.47325 13.5625 6.14235 12.1143L2.65723 18.1649Z" fill="#F44336"/>
<path d="M7.34082 10.9973C7.34082 8.98182 8.9824 7.34024 10.9978 7.34024C13.0133 7.34024 14.6549 8.98182 14.6549 10.9973C14.6549 13.0127 13.0133 14.6543 10.9978 14.6543C8.9824 14.6586 7.34082 13.0127 7.34082 10.9973Z" fill="#2196F3"/>
<path d="M12.4162 6.20904C10.3664 5.59882 7.96416 6.2735 6.64918 8.54678C5.64361 10.2786 2.99216 14.9025 1.78462 17.0039C-2.43965 10.5278 1.20018 1.70974 8.8666 0.201382L12.4162 6.20904Z" fill="#4CAF50"/>
<path d="M14.3915 14.6582C16.1019 13.0682 16.4714 10.4941 15.3155 8.50014C14.4431 6.99608 11.6584 2.29481 10.3091 0.0215282C18.2076 -0.464069 23.9703 7.2754 21.3661 14.6582H14.3915Z" fill="#FFC107"/>
</svg>
