<svg width="575" height="153" viewBox="0 0 575 153" fill="none" xmlns="http://www.w3.org/2000/svg">
<g filter="url(#filter0_d)">
<rect x="15" y="11" width="545" height="123" rx="4" fill="white"/>
</g>
<rect x="406.241" y="73.8945" width="126.558" height="30.718" rx="4" fill="#242539"/>
<path d="M433.89 86.6627L431.987 94.4287H430.073L428.621 88.7967L427.158 94.4287H425.255L423.352 86.6627H425.035L426.223 92.6797L427.763 86.6627H429.468L431.019 92.6797L432.207 86.6627H433.89ZM439.55 94.4287L437.735 91.4037H437.053V94.4287H435.502V86.6627H438.461C439.363 86.6627 440.048 86.8827 440.518 87.3227C440.994 87.7627 441.233 88.342 441.233 89.0607C441.233 89.6474 441.068 90.1387 440.738 90.5347C440.415 90.9307 439.946 91.1947 439.33 91.3267L441.266 94.4287H439.55ZM437.053 90.3367H438.329C439.216 90.3367 439.66 89.9444 439.66 89.1597C439.66 88.7857 439.55 88.496 439.33 88.2907C439.117 88.078 438.783 87.9717 438.329 87.9717H437.053V90.3367ZM444.381 86.6627V94.4287H442.83V86.6627H444.381ZM451.614 86.6627V87.8947H449.469V94.4287H447.918V87.8947H445.784V86.6627H451.614ZM454.569 87.8947V89.9077H457.319V91.0957H454.569V93.1857H457.649V94.4287H453.018V86.6627H457.649V87.8947H454.569ZM467.023 92.8667H463.91L463.36 94.4287H461.721L464.581 86.7507H466.352L469.201 94.4287H467.562L467.023 92.8667ZM466.605 91.6897L465.461 88.4117L464.317 91.6897H466.605ZM477.581 94.4287L475.766 91.4037H475.084V94.4287H473.533V86.6627H476.492C477.394 86.6627 478.08 86.8827 478.549 87.3227C479.026 87.7627 479.264 88.342 479.264 89.0607C479.264 89.6474 479.099 90.1387 478.769 90.5347C478.447 90.9307 477.977 91.1947 477.361 91.3267L479.297 94.4287H477.581ZM475.084 90.3367H476.36C477.248 90.3367 477.691 89.9444 477.691 89.1597C477.691 88.7857 477.581 88.496 477.361 88.2907C477.149 88.078 476.815 87.9717 476.36 87.9717H475.084V90.3367ZM482.413 87.8947V89.9077H485.163V91.0957H482.413V93.1857H485.493V94.4287H480.862V86.6627H485.493V87.8947H482.413ZM488.28 86.6627L490.359 92.8117L492.449 86.6627H494.11L491.36 94.4287H489.369L486.619 86.6627H488.28ZM497.048 86.6627V94.4287H495.497V86.6627H497.048ZM500.552 87.8947V89.9077H503.302V91.0957H500.552V93.1857H503.632V94.4287H499.001V86.6627H503.632V87.8947H500.552ZM515.516 86.6627L513.613 94.4287H511.699L510.247 88.7967L508.784 94.4287H506.881L504.978 86.6627H506.661L507.849 92.6797L509.389 86.6627H511.094L512.645 92.6797L513.833 86.6627H515.516Z" fill="white"/>
<rect x="42.3711" y="61" width="56.0688" height="56.0688" rx="4" fill="#242539"/>
<path d="M120.582 69.653C120.732 69.1923 121.383 69.1923 121.533 69.653L123.269 74.995C123.336 75.201 123.528 75.3405 123.744 75.3405H129.361C129.846 75.3405 130.047 75.9603 129.655 76.245L125.111 79.5465C124.936 79.6739 124.862 79.8996 124.929 80.1056L126.665 85.4476C126.815 85.9082 126.288 86.2913 125.896 86.0066L121.351 82.705C121.176 82.5777 120.939 82.5777 120.764 82.705L116.219 86.0066C115.828 86.2913 115.3 85.9082 115.45 85.4476L117.186 80.1056C117.253 79.8996 117.179 79.6739 117.004 79.5465L112.46 76.245C112.068 75.9603 112.269 75.3405 112.754 75.3405H118.371C118.587 75.3405 118.779 75.201 118.846 74.995L120.582 69.653Z" fill="#D1D1DD"/>
<path d="M141.48 69.653C141.63 69.1923 142.282 69.1923 142.432 69.653L144.167 74.995C144.234 75.201 144.426 75.3405 144.643 75.3405H150.26C150.744 75.3405 150.945 75.9603 150.554 76.245L146.009 79.5465C145.834 79.6739 145.761 79.8996 145.828 80.1056L147.564 85.4476C147.713 85.9082 147.186 86.2913 146.794 86.0066L142.25 82.705C142.075 82.5777 141.837 82.5777 141.662 82.705L137.118 86.0066C136.726 86.2913 136.199 85.9082 136.349 85.4476L138.084 80.1056C138.151 79.8996 138.078 79.6739 137.903 79.5465L133.358 76.245C132.967 75.9603 133.168 75.3405 133.652 75.3405H139.269C139.486 75.3405 139.678 75.201 139.745 74.995L141.48 69.653Z" fill="#D1D1DD"/>
<path d="M161.823 69.653C161.973 69.1923 162.625 69.1923 162.774 69.653L164.51 74.995C164.577 75.201 164.769 75.3405 164.986 75.3405H170.602C171.087 75.3405 171.288 75.9603 170.896 76.245L166.352 79.5465C166.177 79.6739 166.104 79.8996 166.171 80.1056L167.906 85.4476C168.056 85.9082 167.529 86.2913 167.137 86.0066L162.593 82.705C162.417 82.5777 162.18 82.5777 162.005 82.705L157.461 86.0066C157.069 86.2913 156.542 85.9082 156.691 85.4476L158.427 80.1056C158.494 79.8996 158.421 79.6739 158.245 79.5465L153.701 76.245C153.309 75.9603 153.511 75.3405 153.995 75.3405H159.612C159.829 75.3405 160.021 75.201 160.088 74.995L161.823 69.653Z" fill="#D1D1DD"/>
<path d="M182.165 69.653C182.315 69.1923 182.966 69.1923 183.116 69.653L184.852 74.995C184.919 75.201 185.111 75.3405 185.327 75.3405H190.944C191.429 75.3405 191.63 75.9603 191.238 76.245L186.694 79.5465C186.519 79.6739 186.445 79.8996 186.512 80.1056L188.248 85.4476C188.398 85.9082 187.871 86.2913 187.479 86.0066L182.934 82.705C182.759 82.5777 182.522 82.5777 182.347 82.705L177.802 86.0066C177.411 86.2913 176.883 85.9082 177.033 85.4476L178.769 80.1056C178.836 79.8996 178.762 79.6739 178.587 79.5465L174.043 76.245C173.651 75.9603 173.853 75.3405 174.337 75.3405H179.954C180.17 75.3405 180.362 75.201 180.429 74.995L182.165 69.653Z" fill="#D1D1DD"/>
<path d="M202.508 69.653C202.658 69.1923 203.309 69.1923 203.459 69.653L205.195 74.995C205.262 75.201 205.454 75.3405 205.67 75.3405H211.287C211.771 75.3405 211.973 75.9603 211.581 76.245L207.037 79.5465C206.862 79.6739 206.788 79.8996 206.855 80.1056L208.591 85.4476C208.741 85.9082 208.213 86.2913 207.821 86.0066L203.277 82.705C203.102 82.5777 202.865 82.5777 202.689 82.705L198.145 86.0066C197.753 86.2913 197.226 85.9082 197.376 85.4476L199.112 80.1056C199.179 79.8996 199.105 79.6739 198.93 79.5465L194.386 76.245C193.994 75.9603 194.195 75.3405 194.68 75.3405H200.297C200.513 75.3405 200.705 75.201 200.772 74.995L202.508 69.653Z" fill="#D1D1DD"/>
<path d="M70.4104 80.8942C70.5601 80.4335 71.2118 80.4335 71.3614 80.8942L73.0377 86.0531C73.1046 86.2592 73.2966 86.3986 73.5132 86.3986H78.9377C79.422 86.3986 79.6234 87.0184 79.2316 87.3031L74.8431 90.4916C74.6678 90.6189 74.5945 90.8446 74.6614 91.0506L76.3377 96.2095C76.4874 96.6702 75.9601 97.0532 75.5683 96.7685L71.1798 93.5801C71.0046 93.4528 70.7673 93.4528 70.592 93.5801L66.2035 96.7686C65.8117 97.0533 65.2844 96.6702 65.4341 96.2095L67.1104 91.0506C67.1773 90.8446 67.104 90.6189 66.9287 90.4916L62.5403 87.3031C62.1484 87.0184 62.3498 86.3986 62.8342 86.3986H68.2586C68.4752 86.3986 68.6672 86.2592 68.7341 86.0531L70.4104 80.8942Z" fill="white"/>
<path d="M116.217 100.942C116.687 101.038 117.061 101.261 117.339 101.613C117.625 101.958 117.768 102.365 117.768 102.834C117.768 103.487 117.548 104.004 117.108 104.385C116.676 104.759 116.045 104.946 115.216 104.946H111.883V97.1803H115.15C115.935 97.1803 116.536 97.3526 116.954 97.6973C117.38 98.042 117.592 98.526 117.592 99.1493C117.592 99.6333 117.464 100.029 117.207 100.337C116.958 100.645 116.628 100.847 116.217 100.942ZM113.434 100.436H114.831C115.22 100.436 115.513 100.352 115.711 100.183C115.917 100.007 116.019 99.758 116.019 99.4353C116.019 99.1126 115.92 98.8633 115.722 98.6873C115.524 98.5113 115.22 98.4233 114.809 98.4233H113.434V100.436ZM114.908 103.681C115.319 103.681 115.634 103.593 115.854 103.417C116.074 103.234 116.184 102.97 116.184 102.625C116.184 102.281 116.071 102.017 115.843 101.833C115.623 101.643 115.308 101.547 114.897 101.547H113.434V103.681H114.908ZM124.586 101.668C124.586 101.822 124.568 101.998 124.531 102.196H120.065C120.087 102.739 120.234 103.139 120.505 103.395C120.776 103.652 121.114 103.78 121.517 103.78C121.876 103.78 122.173 103.692 122.408 103.516C122.65 103.34 122.804 103.102 122.87 102.801H124.509C124.428 103.227 124.256 103.608 123.992 103.945C123.728 104.283 123.387 104.547 122.969 104.737C122.558 104.928 122.1 105.023 121.594 105.023C121 105.023 120.472 104.899 120.01 104.649C119.548 104.393 119.189 104.03 118.932 103.56C118.675 103.091 118.547 102.537 118.547 101.899C118.547 101.261 118.675 100.708 118.932 100.238C119.189 99.7616 119.548 99.3986 120.01 99.1493C120.472 98.9 121 98.7753 121.594 98.7753C122.195 98.7753 122.72 98.9 123.167 99.1493C123.622 99.3986 123.97 99.7433 124.212 100.183C124.461 100.616 124.586 101.111 124.586 101.668ZM123.024 101.514C123.046 101.016 122.914 100.638 122.628 100.381C122.349 100.125 122.005 99.9963 121.594 99.9963C121.176 99.9963 120.824 100.125 120.538 100.381C120.252 100.638 120.094 101.016 120.065 101.514H123.024ZM131.338 103.615V104.946H130.524C129.842 104.946 129.318 104.781 128.951 104.451C128.592 104.121 128.412 103.571 128.412 102.801V100.161H127.565V98.8523H128.412V97.3453H129.963V98.8523H131.327V100.161H129.963V102.823C129.963 103.117 130.022 103.322 130.139 103.439C130.257 103.557 130.455 103.615 130.733 103.615H131.338ZM136.084 98.7643C136.788 98.7643 137.349 98.9953 137.767 99.4573C138.185 99.9193 138.394 100.568 138.394 101.404V104.946H136.854V101.58C136.854 101.096 136.73 100.722 136.48 100.458C136.231 100.187 135.89 100.051 135.457 100.051C135.017 100.051 134.665 100.194 134.401 100.48C134.137 100.766 134.005 101.177 134.005 101.712V104.946H132.454V96.8063H134.005V100.073C134.167 99.6626 134.431 99.3436 134.797 99.1163C135.171 98.8816 135.6 98.7643 136.084 98.7643ZM145.49 101.668C145.49 101.822 145.472 101.998 145.435 102.196H140.969C140.991 102.739 141.138 103.139 141.409 103.395C141.681 103.652 142.018 103.78 142.421 103.78C142.781 103.78 143.078 103.692 143.312 103.516C143.554 103.34 143.708 103.102 143.774 102.801H145.413C145.333 103.227 145.16 103.608 144.896 103.945C144.632 104.283 144.291 104.547 143.873 104.737C143.463 104.928 143.004 105.023 142.498 105.023C141.904 105.023 141.376 104.899 140.914 104.649C140.452 104.393 140.093 104.03 139.836 103.56C139.58 103.091 139.451 102.537 139.451 101.899C139.451 101.261 139.58 100.708 139.836 100.238C140.093 99.7616 140.452 99.3986 140.914 99.1493C141.376 98.9 141.904 98.7753 142.498 98.7753C143.1 98.7753 143.624 98.9 144.071 99.1493C144.526 99.3986 144.874 99.7433 145.116 100.183C145.366 100.616 145.49 101.111 145.49 101.668ZM143.928 101.514C143.95 101.016 143.818 100.638 143.532 100.381C143.254 100.125 142.909 99.9963 142.498 99.9963C142.08 99.9963 141.728 100.125 141.442 100.381C141.156 100.638 140.999 101.016 140.969 101.514H143.928ZM152.001 97.7963C151.546 97.767 151.227 97.833 151.044 97.9943C150.86 98.1556 150.769 98.438 150.769 98.8413V98.8523H152.001V100.161H150.769V104.946H149.218V100.161H148.437V98.8523H149.218V98.7093C149.218 97.9833 149.423 97.426 149.834 97.0373C150.252 96.6413 150.868 96.4433 151.682 96.4433C151.821 96.4433 151.927 96.447 152.001 96.4543V97.7963ZM152.753 97.1033C152.753 96.854 152.841 96.6523 153.017 96.4983C153.193 96.337 153.424 96.2563 153.71 96.2563C153.996 96.2563 154.227 96.337 154.403 96.4983C154.579 96.6523 154.667 96.854 154.667 97.1033C154.667 97.3453 154.579 97.547 154.403 97.7083C154.227 97.8623 153.996 97.9393 153.71 97.9393C153.424 97.9393 153.193 97.8623 153.017 97.7083C152.841 97.547 152.753 97.3453 152.753 97.1033ZM154.48 98.8523V104.946H152.929V98.8523H154.48ZM157.434 100.018C157.662 99.6296 157.962 99.3253 158.336 99.1053C158.71 98.878 159.128 98.7643 159.59 98.7643V100.425H159.139C158.003 100.425 157.434 100.953 157.434 102.009V104.946H155.883V98.8523H157.434V100.018ZM162.55 98.7753C163.29 98.7753 163.884 98.9623 164.332 99.3363C164.779 99.7103 165.058 100.209 165.168 100.832H163.716C163.657 100.539 163.525 100.304 163.32 100.128C163.114 99.9523 162.847 99.8643 162.517 99.8643C162.253 99.8643 162.047 99.9266 161.901 100.051C161.754 100.176 161.681 100.345 161.681 100.557C161.681 100.726 161.739 100.862 161.857 100.964C161.974 101.067 162.121 101.148 162.297 101.206C162.473 101.265 162.726 101.335 163.056 101.415C163.518 101.518 163.892 101.628 164.178 101.745C164.471 101.855 164.72 102.035 164.926 102.284C165.138 102.526 165.245 102.856 165.245 103.274C165.245 103.795 165.039 104.217 164.629 104.539C164.225 104.862 163.679 105.023 162.99 105.023C162.198 105.023 161.563 104.847 161.087 104.495C160.61 104.136 160.32 103.626 160.218 102.966H161.703C161.739 103.267 161.871 103.505 162.099 103.681C162.326 103.85 162.623 103.934 162.99 103.934C163.254 103.934 163.455 103.872 163.595 103.747C163.734 103.615 163.804 103.447 163.804 103.241C163.804 103.065 163.741 102.922 163.617 102.812C163.499 102.702 163.349 102.618 163.166 102.559C162.99 102.501 162.737 102.431 162.407 102.35C161.952 102.248 161.582 102.145 161.296 102.042C161.017 101.932 160.775 101.76 160.57 101.525C160.372 101.291 160.273 100.968 160.273 100.557C160.273 100.029 160.474 99.6003 160.878 99.2703C161.281 98.9403 161.838 98.7753 162.55 98.7753ZM169.656 103.615V104.946H168.842C168.16 104.946 167.635 104.781 167.269 104.451C166.909 104.121 166.73 103.571 166.73 102.801V100.161H165.883V98.8523H166.73V97.3453H168.281V98.8523H169.645V100.161H168.281V102.823C168.281 103.117 168.339 103.322 168.457 103.439C168.574 103.557 168.772 103.615 169.051 103.615H169.656ZM176.423 103.615V104.946H175.609C174.927 104.946 174.403 104.781 174.036 104.451C173.677 104.121 173.497 103.571 173.497 102.801V100.161H172.65V98.8523H173.497V97.3453H175.048V98.8523H176.412V100.161H175.048V102.823C175.048 103.117 175.107 103.322 175.224 103.439C175.342 103.557 175.54 103.615 175.818 103.615H176.423ZM180.355 98.7753C180.949 98.7753 181.481 98.9 181.95 99.1493C182.427 99.3986 182.801 99.7616 183.072 100.238C183.344 100.708 183.479 101.261 183.479 101.899C183.479 102.537 183.344 103.091 183.072 103.56C182.801 104.03 182.427 104.393 181.95 104.649C181.481 104.899 180.949 105.023 180.355 105.023C179.761 105.023 179.226 104.899 178.749 104.649C178.28 104.393 177.91 104.03 177.638 103.56C177.367 103.091 177.231 102.537 177.231 101.899C177.231 101.261 177.367 100.708 177.638 100.238C177.91 99.7616 178.28 99.3986 178.749 99.1493C179.226 98.9 179.761 98.7753 180.355 98.7753ZM180.355 100.117C179.923 100.117 179.556 100.271 179.255 100.579C178.955 100.88 178.804 101.32 178.804 101.899C178.804 102.479 178.955 102.922 179.255 103.23C179.556 103.531 179.923 103.681 180.355 103.681C180.788 103.681 181.155 103.531 181.455 103.23C181.756 102.922 181.906 102.479 181.906 101.899C181.906 101.32 181.756 100.88 181.455 100.579C181.155 100.271 180.788 100.117 180.355 100.117ZM188.522 100.018C188.749 99.6296 189.05 99.3253 189.424 99.1053C189.798 98.878 190.216 98.7643 190.678 98.7643V100.425H190.227C189.09 100.425 188.522 100.953 188.522 102.009V104.946H186.971V98.8523H188.522V100.018ZM197.268 101.668C197.268 101.822 197.249 101.998 197.213 102.196H192.747C192.769 102.739 192.915 103.139 193.187 103.395C193.458 103.652 193.795 103.78 194.199 103.78C194.558 103.78 194.855 103.692 195.09 103.516C195.332 103.34 195.486 103.102 195.552 102.801H197.191C197.11 103.227 196.938 103.608 196.674 103.945C196.41 104.283 196.069 104.547 195.651 104.737C195.24 104.928 194.782 105.023 194.276 105.023C193.682 105.023 193.154 104.899 192.692 104.649C192.23 104.393 191.87 104.03 191.614 103.56C191.357 103.091 191.229 102.537 191.229 101.899C191.229 101.261 191.357 100.708 191.614 100.238C191.87 99.7616 192.23 99.3986 192.692 99.1493C193.154 98.9 193.682 98.7753 194.276 98.7753C194.877 98.7753 195.401 98.9 195.849 99.1493C196.303 99.3986 196.652 99.7433 196.894 100.183C197.143 100.616 197.268 101.111 197.268 101.668ZM195.706 101.514C195.728 101.016 195.596 100.638 195.31 100.381C195.031 100.125 194.686 99.9963 194.276 99.9963C193.858 99.9963 193.506 100.125 193.22 100.381C192.934 100.638 192.776 101.016 192.747 101.514H195.706ZM201.02 103.395L202.56 98.8523H204.21L201.955 104.946H200.063L197.808 98.8523H199.469L201.02 103.395ZM204.896 97.1033C204.896 96.854 204.984 96.6523 205.16 96.4983C205.336 96.337 205.567 96.2563 205.853 96.2563C206.139 96.2563 206.37 96.337 206.546 96.4983C206.722 96.6523 206.81 96.854 206.81 97.1033C206.81 97.3453 206.722 97.547 206.546 97.7083C206.37 97.8623 206.139 97.9393 205.853 97.9393C205.567 97.9393 205.336 97.8623 205.16 97.7083C204.984 97.547 204.896 97.3453 204.896 97.1033ZM206.623 98.8523V104.946H205.072V98.8523H206.623ZM213.757 101.668C213.757 101.822 213.738 101.998 213.702 102.196H209.236C209.258 102.739 209.404 103.139 209.676 103.395C209.947 103.652 210.284 103.78 210.688 103.78C211.047 103.78 211.344 103.692 211.579 103.516C211.821 103.34 211.975 103.102 212.041 102.801H213.68C213.599 103.227 213.427 103.608 213.163 103.945C212.899 104.283 212.558 104.547 212.14 104.737C211.729 104.928 211.271 105.023 210.765 105.023C210.171 105.023 209.643 104.899 209.181 104.649C208.719 104.393 208.359 104.03 208.103 103.56C207.846 103.091 207.718 102.537 207.718 101.899C207.718 101.261 207.846 100.708 208.103 100.238C208.359 99.7616 208.719 99.3986 209.181 99.1493C209.643 98.9 210.171 98.7753 210.765 98.7753C211.366 98.7753 211.89 98.9 212.338 99.1493C212.792 99.3986 213.141 99.7433 213.383 100.183C213.632 100.616 213.757 101.111 213.757 101.668ZM212.195 101.514C212.217 101.016 212.085 100.638 211.799 100.381C211.52 100.125 211.175 99.9963 210.765 99.9963C210.347 99.9963 209.995 100.125 209.709 100.381C209.423 100.638 209.265 101.016 209.236 101.514H212.195ZM223.581 98.8523L221.942 104.946H220.226L218.917 100.513L217.575 104.946H215.859L214.231 98.8523H215.782L216.772 103.56L218.125 98.8523H219.764L221.128 103.56L222.129 98.8523H223.581ZM230.005 103.615V104.946H229.191C228.509 104.946 227.985 104.781 227.618 104.451C227.259 104.121 227.079 103.571 227.079 102.801V100.161H226.232V98.8523H227.079V97.3453H228.63V98.8523H229.994V100.161H228.63V102.823C228.63 103.117 228.689 103.322 228.806 103.439C228.924 103.557 229.122 103.615 229.4 103.615H230.005ZM234.751 98.7643C235.455 98.7643 236.016 98.9953 236.434 99.4573C236.852 99.9193 237.061 100.568 237.061 101.404V104.946H235.521V101.58C235.521 101.096 235.397 100.722 235.147 100.458C234.898 100.187 234.557 100.051 234.124 100.051C233.684 100.051 233.332 100.194 233.068 100.48C232.804 100.766 232.672 101.177 232.672 101.712V104.946H231.121V96.8063H232.672V100.073C232.834 99.6626 233.098 99.3436 233.464 99.1163C233.838 98.8816 234.267 98.7643 234.751 98.7643ZM238.25 97.1033C238.25 96.854 238.338 96.6523 238.514 96.4983C238.69 96.337 238.921 96.2563 239.207 96.2563C239.493 96.2563 239.724 96.337 239.9 96.4983C240.076 96.6523 240.164 96.854 240.164 97.1033C240.164 97.3453 240.076 97.547 239.9 97.7083C239.724 97.8623 239.493 97.9393 239.207 97.9393C238.921 97.9393 238.69 97.8623 238.514 97.7083C238.338 97.547 238.25 97.3453 238.25 97.1033ZM239.977 98.8523V104.946H238.426V98.8523H239.977ZM243.481 98.7753C244.222 98.7753 244.816 98.9623 245.263 99.3363C245.711 99.7103 245.989 100.209 246.099 100.832H244.647C244.589 100.539 244.457 100.304 244.251 100.128C244.046 99.9523 243.778 99.8643 243.448 99.8643C243.184 99.8643 242.979 99.9266 242.832 100.051C242.686 100.176 242.612 100.345 242.612 100.557C242.612 100.726 242.671 100.862 242.788 100.964C242.906 101.067 243.052 101.148 243.228 101.206C243.404 101.265 243.657 101.335 243.987 101.415C244.449 101.518 244.823 101.628 245.109 101.745C245.403 101.855 245.652 102.035 245.857 102.284C246.07 102.526 246.176 102.856 246.176 103.274C246.176 103.795 245.971 104.217 245.56 104.539C245.157 104.862 244.611 105.023 243.921 105.023C243.129 105.023 242.495 104.847 242.018 104.495C241.542 104.136 241.252 103.626 241.149 102.966H242.634C242.671 103.267 242.803 103.505 243.03 103.681C243.258 103.85 243.555 103.934 243.921 103.934C244.185 103.934 244.387 103.872 244.526 103.747C244.666 103.615 244.735 103.447 244.735 103.241C244.735 103.065 244.673 102.922 244.548 102.812C244.431 102.702 244.281 102.618 244.097 102.559C243.921 102.501 243.668 102.431 243.338 102.35C242.884 102.248 242.513 102.145 242.227 102.042C241.949 101.932 241.707 101.76 241.501 101.525C241.303 101.291 241.204 100.968 241.204 100.557C241.204 100.029 241.406 99.6003 241.809 99.2703C242.213 98.9403 242.77 98.7753 243.481 98.7753ZM253.368 98.7753C253.881 98.7753 254.343 98.9 254.754 99.1493C255.165 99.3986 255.484 99.7616 255.711 100.238C255.946 100.708 256.063 101.261 256.063 101.899C256.063 102.537 255.946 103.095 255.711 103.571C255.484 104.041 255.165 104.4 254.754 104.649C254.343 104.899 253.881 105.023 253.368 105.023C252.855 105.023 252.415 104.902 252.048 104.66C251.689 104.411 251.432 104.081 251.278 103.67V107.85H249.727V98.8523H251.278V100.117C251.432 99.7066 251.689 99.3803 252.048 99.1383C252.415 98.8963 252.855 98.7753 253.368 98.7753ZM252.884 100.128C252.415 100.128 252.026 100.29 251.718 100.612C251.417 100.928 251.267 101.357 251.267 101.899C251.267 102.435 251.417 102.864 251.718 103.186C252.026 103.502 252.415 103.659 252.884 103.659C253.368 103.659 253.757 103.505 254.05 103.197C254.343 102.882 254.49 102.449 254.49 101.899C254.49 101.349 254.343 100.917 254.05 100.601C253.757 100.286 253.368 100.128 252.884 100.128ZM258.712 100.018C258.939 99.6296 259.24 99.3253 259.614 99.1053C259.988 98.878 260.406 98.7643 260.868 98.7643V100.425H260.417C259.28 100.425 258.712 100.953 258.712 102.009V104.946H257.161V98.8523H258.712V100.018ZM264.542 98.7753C265.136 98.7753 265.668 98.9 266.137 99.1493C266.614 99.3986 266.988 99.7616 267.259 100.238C267.53 100.708 267.666 101.261 267.666 101.899C267.666 102.537 267.53 103.091 267.259 103.56C266.988 104.03 266.614 104.393 266.137 104.649C265.668 104.899 265.136 105.023 264.542 105.023C263.948 105.023 263.413 104.899 262.936 104.649C262.467 104.393 262.096 104.03 261.825 103.56C261.554 103.091 261.418 102.537 261.418 101.899C261.418 101.261 261.554 100.708 261.825 100.238C262.096 99.7616 262.467 99.3986 262.936 99.1493C263.413 98.9 263.948 98.7753 264.542 98.7753ZM264.542 100.117C264.109 100.117 263.743 100.271 263.442 100.579C263.141 100.88 262.991 101.32 262.991 101.899C262.991 102.479 263.141 102.922 263.442 103.23C263.743 103.531 264.109 103.681 264.542 103.681C264.975 103.681 265.341 103.531 265.642 103.23C265.943 102.922 266.093 102.479 266.093 101.899C266.093 101.32 265.943 100.88 265.642 100.579C265.341 100.271 264.975 100.117 264.542 100.117ZM271.149 98.7753C271.662 98.7753 272.099 98.8963 272.458 99.1383C272.825 99.3803 273.089 99.7066 273.25 100.117V96.8063H274.79V104.946H273.25V103.67C273.089 104.081 272.825 104.411 272.458 104.66C272.099 104.902 271.662 105.023 271.149 105.023C270.636 105.023 270.174 104.899 269.763 104.649C269.352 104.4 269.03 104.041 268.795 103.571C268.568 103.095 268.454 102.537 268.454 101.899C268.454 101.261 268.568 100.708 268.795 100.238C269.03 99.7616 269.352 99.3986 269.763 99.1493C270.174 98.9 270.636 98.7753 271.149 98.7753ZM271.633 100.128C271.149 100.128 270.76 100.286 270.467 100.601C270.174 100.917 270.027 101.349 270.027 101.899C270.027 102.449 270.174 102.882 270.467 103.197C270.76 103.505 271.149 103.659 271.633 103.659C272.102 103.659 272.487 103.502 272.788 103.186C273.096 102.864 273.25 102.435 273.25 101.899C273.25 101.357 273.096 100.928 272.788 100.612C272.487 100.29 272.102 100.128 271.633 100.128ZM282.026 98.8523V104.946H280.475V103.714C280.313 104.125 280.046 104.448 279.672 104.682C279.305 104.91 278.88 105.023 278.396 105.023C277.692 105.023 277.131 104.792 276.713 104.33C276.295 103.868 276.086 103.223 276.086 102.394V98.8523H277.626V102.218C277.626 102.702 277.75 103.08 278 103.351C278.249 103.615 278.586 103.747 279.012 103.747C279.459 103.747 279.815 103.604 280.079 103.318C280.343 103.032 280.475 102.622 280.475 102.086V98.8523H282.026ZM286.175 98.7753C286.96 98.7753 287.612 98.988 288.133 99.4133C288.661 99.8386 288.991 100.418 289.123 101.151H287.484C287.418 100.829 287.268 100.576 287.033 100.392C286.798 100.202 286.501 100.106 286.142 100.106C285.731 100.106 285.387 100.26 285.108 100.568C284.837 100.869 284.701 101.313 284.701 101.899C284.701 102.486 284.837 102.933 285.108 103.241C285.387 103.542 285.731 103.692 286.142 103.692C286.501 103.692 286.798 103.601 287.033 103.417C287.268 103.227 287.418 102.97 287.484 102.647H289.123C288.991 103.381 288.661 103.96 288.133 104.385C287.612 104.811 286.96 105.023 286.175 105.023C285.581 105.023 285.053 104.899 284.591 104.649C284.129 104.393 283.77 104.03 283.513 103.56C283.256 103.091 283.128 102.537 283.128 101.899C283.128 101.261 283.256 100.708 283.513 100.238C283.77 99.7616 284.129 99.3986 284.591 99.1493C285.053 98.9 285.581 98.7753 286.175 98.7753ZM293.481 103.615V104.946H292.667C291.985 104.946 291.461 104.781 291.094 104.451C290.735 104.121 290.555 103.571 290.555 102.801V100.161H289.708V98.8523H290.555V97.3453H292.106V98.8523H293.47V100.161H292.106V102.823C292.106 103.117 292.165 103.322 292.282 103.439C292.399 103.557 292.597 103.615 292.876 103.615H293.481Z" fill="#242539"/>
<path d="M47.745 33.305C49.065 33.305 50.16 33.645 51.03 34.325C51.9 35.005 52.475 35.93 52.755 37.1H50.535C50.305 36.53 49.945 36.08 49.455 35.75C48.975 35.42 48.395 35.255 47.715 35.255C47.155 35.255 46.65 35.395 46.2 35.675C45.75 35.955 45.4 36.355 45.15 36.875C44.9 37.395 44.775 38.005 44.775 38.705C44.775 39.395 44.9 40 45.15 40.52C45.4 41.04 45.75 41.44 46.2 41.72C46.65 42 47.155 42.14 47.715 42.14C48.395 42.14 48.975 41.975 49.455 41.645C49.945 41.315 50.305 40.865 50.535 40.295H52.755C52.475 41.465 51.9 42.39 51.03 43.07C50.16 43.75 49.065 44.09 47.745 44.09C46.735 44.09 45.84 43.865 45.06 43.415C44.29 42.955 43.69 42.315 43.26 41.495C42.84 40.675 42.63 39.745 42.63 38.705C42.63 37.655 42.84 36.72 43.26 35.9C43.69 35.08 44.29 34.445 45.06 33.995C45.83 33.535 46.725 33.305 47.745 33.305ZM62.2918 35.69V44H60.1768V42.32C59.9568 42.88 59.5918 43.32 59.0818 43.64C58.5818 43.95 58.0018 44.105 57.3418 44.105C56.3818 44.105 55.6168 43.79 55.0468 43.16C54.4768 42.53 54.1918 41.65 54.1918 40.52V35.69H56.2918V40.28C56.2918 40.94 56.4618 41.455 56.8018 41.825C57.1418 42.185 57.6018 42.365 58.1818 42.365C58.7918 42.365 59.2768 42.17 59.6368 41.78C59.9968 41.39 60.1768 40.83 60.1768 40.1V35.69H62.2918ZM67.0799 35.585C68.0899 35.585 68.8999 35.84 69.5099 36.35C70.1199 36.86 70.4999 37.54 70.6499 38.39H68.6699C68.5899 37.99 68.4099 37.67 68.1299 37.43C67.8499 37.19 67.4849 37.07 67.0349 37.07C66.6749 37.07 66.3949 37.155 66.1949 37.325C65.9949 37.495 65.8949 37.725 65.8949 38.015C65.8949 38.245 65.9749 38.43 66.1349 38.57C66.2949 38.71 66.4949 38.82 66.7349 38.9C66.9749 38.98 67.3199 39.075 67.7699 39.185C68.3999 39.325 68.9099 39.475 69.2999 39.635C69.6999 39.785 70.0399 40.03 70.3199 40.37C70.6099 40.7 70.7549 41.15 70.7549 41.72C70.7549 42.43 70.4749 43.005 69.9149 43.445C69.3649 43.885 68.6199 44.105 67.6799 44.105C66.5999 44.105 65.7349 43.865 65.0849 43.385C64.4349 42.895 64.0399 42.2 63.8999 41.3H65.9249C65.9749 41.71 66.1549 42.035 66.4649 42.275C66.7749 42.505 67.1799 42.62 67.6799 42.62C68.0399 42.62 68.3149 42.535 68.5049 42.365C68.6949 42.185 68.7899 41.955 68.7899 41.675C68.7899 41.435 68.7049 41.24 68.5349 41.09C68.3749 40.94 68.1699 40.825 67.9199 40.745C67.6799 40.665 67.3349 40.57 66.8849 40.46C66.2649 40.32 65.7599 40.18 65.3699 40.04C64.9899 39.89 64.6599 39.655 64.3799 39.335C64.1099 39.015 63.9749 38.575 63.9749 38.015C63.9749 37.295 64.2499 36.71 64.7999 36.26C65.3499 35.81 66.1099 35.585 67.0799 35.585ZM76.7701 42.185V44H75.6601C74.7301 44 74.0151 43.775 73.5151 43.325C73.0251 42.875 72.7801 42.125 72.7801 41.075V37.475H71.6251V35.69H72.7801V33.635H74.8951V35.69H76.7551V37.475H74.8951V41.105C74.8951 41.505 74.9751 41.785 75.1351 41.945C75.2951 42.105 75.5651 42.185 75.9451 42.185H76.7701ZM82.132 35.585C82.942 35.585 83.667 35.755 84.307 36.095C84.957 36.435 85.467 36.93 85.837 37.58C86.207 38.22 86.392 38.975 86.392 39.845C86.392 40.715 86.207 41.47 85.837 42.11C85.467 42.75 84.957 43.245 84.307 43.595C83.667 43.935 82.942 44.105 82.132 44.105C81.322 44.105 80.592 43.935 79.942 43.595C79.302 43.245 78.797 42.75 78.427 42.11C78.057 41.47 77.872 40.715 77.872 39.845C77.872 38.975 78.057 38.22 78.427 37.58C78.797 36.93 79.302 36.435 79.942 36.095C80.592 35.755 81.322 35.585 82.132 35.585ZM82.132 37.415C81.542 37.415 81.042 37.625 80.632 38.045C80.222 38.455 80.017 39.055 80.017 39.845C80.017 40.635 80.222 41.24 80.632 41.66C81.042 42.07 81.542 42.275 82.132 42.275C82.722 42.275 83.222 42.07 83.632 41.66C84.042 41.24 84.247 40.635 84.247 39.845C84.247 39.055 84.042 38.455 83.632 38.045C83.222 37.625 82.722 37.415 82.132 37.415ZM98.4618 35.57C99.4718 35.57 100.267 35.885 100.847 36.515C101.437 37.135 101.732 38.02 101.732 39.17V44H99.6318V39.41C99.6318 38.77 99.4668 38.28 99.1368 37.94C98.8168 37.59 98.3718 37.415 97.8018 37.415C97.2118 37.415 96.7418 37.6 96.3918 37.97C96.0418 38.34 95.8668 38.88 95.8668 39.59V44H93.7668V39.41C93.7668 38.77 93.6018 38.28 93.2718 37.94C92.9518 37.59 92.5068 37.415 91.9368 37.415C91.3468 37.415 90.8768 37.6 90.5268 37.97C90.1768 38.34 90.0018 38.88 90.0018 39.59V44H87.8868V35.69H90.0018V37.265C90.2218 36.725 90.5668 36.31 91.0368 36.02C91.5168 35.72 92.0718 35.57 92.7018 35.57C93.3718 35.57 93.9518 35.73 94.4418 36.05C94.9418 36.37 95.3168 36.83 95.5668 37.43C95.8268 36.86 96.2118 36.41 96.7218 36.08C97.2418 35.74 97.8218 35.57 98.4618 35.57ZM111.405 39.53C111.405 39.74 111.38 39.98 111.33 40.25H105.24C105.27 40.99 105.47 41.535 105.84 41.885C106.21 42.235 106.67 42.41 107.22 42.41C107.71 42.41 108.115 42.29 108.435 42.05C108.765 41.81 108.975 41.485 109.065 41.075H111.3C111.19 41.655 110.955 42.175 110.595 42.635C110.235 43.095 109.77 43.455 109.2 43.715C108.64 43.975 108.015 44.105 107.325 44.105C106.515 44.105 105.795 43.935 105.165 43.595C104.535 43.245 104.045 42.75 103.695 42.11C103.345 41.47 103.17 40.715 103.17 39.845C103.17 38.975 103.345 38.22 103.695 37.58C104.045 36.93 104.535 36.435 105.165 36.095C105.795 35.755 106.515 35.585 107.325 35.585C108.145 35.585 108.86 35.755 109.47 36.095C110.09 36.435 110.565 36.905 110.895 37.505C111.235 38.095 111.405 38.77 111.405 39.53ZM109.275 39.32C109.305 38.64 109.125 38.125 108.735 37.775C108.355 37.425 107.885 37.25 107.325 37.25C106.755 37.25 106.275 37.425 105.885 37.775C105.495 38.125 105.28 38.64 105.24 39.32H109.275ZM115.021 37.28C115.331 36.75 115.741 36.335 116.251 36.035C116.761 35.725 117.331 35.57 117.961 35.57V37.835H117.346C115.796 37.835 115.021 38.555 115.021 39.995V44H112.906V35.69H115.021V37.28ZM124.513 37.28C124.823 36.75 125.233 36.335 125.743 36.035C126.253 35.725 126.823 35.57 127.453 35.57V37.835H126.838C125.288 37.835 124.513 38.555 124.513 39.995V44H122.398V35.69H124.513V37.28ZM136.439 39.53C136.439 39.74 136.414 39.98 136.364 40.25H130.274C130.304 40.99 130.504 41.535 130.874 41.885C131.244 42.235 131.704 42.41 132.254 42.41C132.744 42.41 133.149 42.29 133.469 42.05C133.799 41.81 134.009 41.485 134.099 41.075H136.334C136.224 41.655 135.989 42.175 135.629 42.635C135.269 43.095 134.804 43.455 134.234 43.715C133.674 43.975 133.049 44.105 132.359 44.105C131.549 44.105 130.829 43.935 130.199 43.595C129.569 43.245 129.079 42.75 128.729 42.11C128.379 41.47 128.204 40.715 128.204 39.845C128.204 38.975 128.379 38.22 128.729 37.58C129.079 36.93 129.569 36.435 130.199 36.095C130.829 35.755 131.549 35.585 132.359 35.585C133.179 35.585 133.894 35.755 134.504 36.095C135.124 36.435 135.599 36.905 135.929 37.505C136.269 38.095 136.439 38.77 136.439 39.53ZM134.309 39.32C134.339 38.64 134.159 38.125 133.769 37.775C133.389 37.425 132.919 37.25 132.359 37.25C131.789 37.25 131.309 37.425 130.919 37.775C130.529 38.125 130.314 38.64 130.274 39.32H134.309ZM141.555 41.885L143.655 35.69H145.905L142.83 44H140.25L137.175 35.69H139.44L141.555 41.885ZM146.841 33.305C146.841 32.965 146.961 32.69 147.201 32.48C147.441 32.26 147.756 32.15 148.146 32.15C148.536 32.15 148.851 32.26 149.091 32.48C149.331 32.69 149.451 32.965 149.451 33.305C149.451 33.635 149.331 33.91 149.091 34.13C148.851 34.34 148.536 34.445 148.146 34.445C147.756 34.445 147.441 34.34 147.201 34.13C146.961 33.91 146.841 33.635 146.841 33.305ZM149.196 35.69V44H147.081V35.69H149.196ZM158.924 39.53C158.924 39.74 158.899 39.98 158.849 40.25H152.759C152.789 40.99 152.989 41.535 153.359 41.885C153.729 42.235 154.189 42.41 154.739 42.41C155.229 42.41 155.634 42.29 155.954 42.05C156.284 41.81 156.494 41.485 156.584 41.075H158.819C158.709 41.655 158.474 42.175 158.114 42.635C157.754 43.095 157.289 43.455 156.719 43.715C156.159 43.975 155.534 44.105 154.844 44.105C154.034 44.105 153.314 43.935 152.684 43.595C152.054 43.245 151.564 42.75 151.214 42.11C150.864 41.47 150.689 40.715 150.689 39.845C150.689 38.975 150.864 38.22 151.214 37.58C151.564 36.93 152.054 36.435 152.684 36.095C153.314 35.755 154.034 35.585 154.844 35.585C155.664 35.585 156.379 35.755 156.989 36.095C157.609 36.435 158.084 36.905 158.414 37.505C158.754 38.095 158.924 38.77 158.924 39.53ZM156.794 39.32C156.824 38.64 156.644 38.125 156.254 37.775C155.874 37.425 155.404 37.25 154.844 37.25C154.274 37.25 153.794 37.425 153.404 37.775C153.014 38.125 152.799 38.64 152.759 39.32H156.794ZM172.321 35.69L170.086 44H167.746L165.961 37.955L164.131 44H161.791L159.571 35.69H161.686L163.036 42.11L164.881 35.69H167.116L168.976 42.11L170.341 35.69H172.321ZM176.24 35.585C177.25 35.585 178.06 35.84 178.67 36.35C179.28 36.86 179.66 37.54 179.81 38.39H177.83C177.75 37.99 177.57 37.67 177.29 37.43C177.01 37.19 176.645 37.07 176.195 37.07C175.835 37.07 175.555 37.155 175.355 37.325C175.155 37.495 175.055 37.725 175.055 38.015C175.055 38.245 175.135 38.43 175.295 38.57C175.455 38.71 175.655 38.82 175.895 38.9C176.135 38.98 176.48 39.075 176.93 39.185C177.56 39.325 178.07 39.475 178.46 39.635C178.86 39.785 179.2 40.03 179.48 40.37C179.77 40.7 179.915 41.15 179.915 41.72C179.915 42.43 179.635 43.005 179.075 43.445C178.525 43.885 177.78 44.105 176.84 44.105C175.76 44.105 174.895 43.865 174.245 43.385C173.595 42.895 173.2 42.2 173.06 41.3H175.085C175.135 41.71 175.315 42.035 175.625 42.275C175.935 42.505 176.34 42.62 176.84 42.62C177.2 42.62 177.475 42.535 177.665 42.365C177.855 42.185 177.95 41.955 177.95 41.675C177.95 41.435 177.865 41.24 177.695 41.09C177.535 40.94 177.33 40.825 177.08 40.745C176.84 40.665 176.495 40.57 176.045 40.46C175.425 40.32 174.92 40.18 174.53 40.04C174.15 39.89 173.82 39.655 173.54 39.335C173.27 39.015 173.135 38.575 173.135 38.015C173.135 37.295 173.41 36.71 173.96 36.26C174.51 35.81 175.27 35.585 176.24 35.585Z" fill="#242539"/>
<defs>
<filter id="filter0_d" x="0" y="0" width="575" height="153" filterUnits="userSpaceOnUse" color-interpolation-filters="sRGB">
<feFlood flood-opacity="0" result="BackgroundImageFix"/>
<feColorMatrix in="SourceAlpha" type="matrix" values="0 0 0 0 0 0 0 0 0 0 0 0 0 0 0 0 0 0 127 0"/>
<feOffset dy="4"/>
<feGaussianBlur stdDeviation="7.5"/>
<feColorMatrix type="matrix" values="0 0 0 0 0 0 0 0 0 0 0 0 0 0 0 0 0 0 0.1 0"/>
<feBlend mode="normal" in2="BackgroundImageFix" result="effect1_dropShadow"/>
<feBlend mode="normal" in="SourceGraphic" in2="effect1_dropShadow" result="shape"/>
</filter>
</defs>
</svg>
