<svg width="34" height="31" viewBox="0 0 34 31" fill="none" xmlns="http://www.w3.org/2000/svg">
<path d="M27.6227 30.9966C27.3393 31.0121 27.0555 30.9726 26.79 30.8808C26.5245 30.7889 26.2834 30.6468 26.0826 30.4637C25.8818 30.2806 25.7259 30.0608 25.6252 29.8188C25.5244 29.5767 25.4812 29.3179 25.4982 29.0595V11.6258C25.4812 11.3673 25.5244 11.1086 25.6252 10.8665C25.7259 10.6244 25.8818 10.4046 26.0826 10.2215C26.2834 10.0385 26.5245 9.89633 26.79 9.80447C27.0555 9.71262 27.3393 9.67316 27.6227 9.68869H31.8718C32.1553 9.67316 32.4391 9.71262 32.7046 9.80447C32.9701 9.89633 33.2112 10.0385 33.412 10.2215C33.6127 10.4046 33.7687 10.6244 33.8694 10.8665C33.9701 11.1086 34.0134 11.3673 33.9964 11.6258V29.0595C34.0134 29.3179 33.9701 29.5767 33.8694 29.8188C33.7687 30.0608 33.6127 30.2806 33.412 30.4637C33.2112 30.6468 32.9701 30.7889 32.7046 30.8808C32.4391 30.9726 32.1553 31.0121 31.8718 30.9966H27.6227ZM14.8755 30.9966C14.5919 31.0124 14.3079 30.9732 14.0423 30.8814C13.7767 30.7897 13.5354 30.6475 13.3346 30.4644C13.1337 30.2813 12.9778 30.0613 12.8772 29.8191C12.7766 29.5769 12.7335 29.318 12.7509 29.0595V1.94038C12.7339 1.68195 12.7771 1.42316 12.8779 1.1811C12.9786 0.939042 13.1345 0.719222 13.3353 0.536153C13.5361 0.353084 13.7772 0.21093 14.0427 0.119078C14.3082 0.0272253 14.592 -0.0122363 14.8755 0.00329841H19.1245C19.408 -0.0122363 19.6918 0.0272253 19.9573 0.119078C20.2228 0.21093 20.4639 0.353084 20.6647 0.536153C20.8655 0.719222 21.0214 0.939042 21.1221 1.1811C21.2229 1.42316 21.2661 1.68195 21.2491 1.94038V29.0595C21.2665 29.318 21.2234 29.5769 21.1228 29.8191C21.0222 30.0613 20.8663 30.2813 20.6654 30.4644C20.4646 30.6475 20.2233 30.7897 19.9577 30.8814C19.6921 30.9732 19.4081 31.0124 19.1245 30.9966H14.8755ZM2.12817 30.9966C1.84472 31.0121 1.56089 30.9726 1.29541 30.8808C1.02992 30.7889 0.788828 30.6468 0.588041 30.4637C0.387255 30.2806 0.231344 30.0608 0.130602 29.8188C0.0298602 29.5767 -0.0134205 29.3179 0.00361763 29.0595V21.3112C-0.0134205 21.0527 0.0298602 20.794 0.130602 20.5519C0.231344 20.3098 0.387255 20.09 0.588041 19.9069C0.788828 19.7239 1.02992 19.5817 1.29541 19.4899C1.56089 19.398 1.84472 19.3586 2.12817 19.3741H6.37726C6.66062 19.3589 6.9443 19.3985 7.20963 19.4905C7.47496 19.5825 7.71591 19.7246 7.91662 19.9076C8.11734 20.0906 8.27326 20.3103 8.37412 20.5522C8.47499 20.7942 8.5185 21.0528 8.50181 21.3112V29.0595C8.51885 29.3179 8.47557 29.5767 8.37482 29.8188C8.27408 30.0608 8.11817 30.2806 7.91739 30.4637C7.7166 30.6468 7.4755 30.7889 7.21002 30.8808C6.94454 30.9726 6.6607 31.0121 6.37726 30.9966H2.12817Z" fill="#FF881B"/>
</svg>
