<svg width="223" height="38" viewBox="0 0 223 38" fill="none" xmlns="http://www.w3.org/2000/svg">
<path d="M13.9978 38.0003H33.9385C36.689 38.0003 38.8991 35.808 38.8991 33.0798V27.7695H13.9978V38.0003Z" fill="#00C558"/>
<path d="M13.9978 24.1155H33.9385C36.689 24.1155 38.8991 21.9232 38.8991 19.195V13.8848H13.9978V24.1155Z" fill="#00C558"/>
<path d="M13.9978 10.2308H33.9385C36.689 10.2308 38.8991 8.03846 38.8991 5.31026V0H13.9978V10.2308Z" fill="#00C558"/>
<path d="M0 10.2308H5.30442C8.05487 10.2308 10.265 8.03846 10.265 5.31026V0H0V10.2308Z" fill="#00C558"/>
<path d="M0 24.1155H5.30442C8.05487 24.1155 10.265 21.9232 10.265 19.195V13.8848H0V24.1155Z" fill="#00C558"/>
<path d="M0 38.0003H5.30442C8.05487 38.0003 10.265 35.808 10.265 33.0798V27.7695H0V38.0003Z" fill="#00C558"/>
<path d="M55.7456 24.7007L57.8084 23.9699C58.8399 26.9417 61.443 28.6956 65.1266 28.6956C68.712 28.6956 71.4624 26.8443 71.4624 23.7751C71.4624 20.8033 69.7434 19.6828 67.435 18.9033L62.4744 17.4417C58.889 16.3699 57.0717 14.4699 57.0717 11.1571C57.0717 7.21096 60.4606 4.62891 64.9301 4.62891C68.712 4.62891 71.8062 5.99301 73.1814 9.20839L71.266 9.98788C70.0872 7.79557 68.0244 6.52891 64.9792 6.52891C62.1797 6.52891 59.2819 7.94173 59.2819 10.9135C59.2819 13.0084 60.3133 14.5187 63.6531 15.5417L68.6137 17.0033C71.6098 17.8315 73.6726 19.6828 73.6726 23.5315C73.6726 27.7212 70.2837 30.6443 64.9792 30.6443C60.3133 30.5956 56.8261 28.5007 55.7456 24.7007Z" fill="#555F6A"/>
<path d="M75.5391 23.5799V19.7799C75.5391 14.9568 78.6824 12.2773 82.9063 12.2773C86.8355 12.2773 89.7333 14.6645 89.7333 19.1953V21.7773H77.7001V23.8722C77.7001 26.9902 79.6647 28.9389 83.1028 28.9389C85.3621 28.9389 86.8846 27.8671 87.8178 26.6979L89.3895 27.6722C87.7687 30.0107 85.313 30.6927 82.9554 30.6927C78.6333 30.644 75.5391 28.403 75.5391 23.5799ZM87.6705 20.2671V19.0491C87.6705 16.3209 86.1479 13.9825 82.759 13.9825C79.5174 13.9825 77.7001 16.4671 77.7001 19.2927V20.2184H87.6705V20.2671Z" fill="#555F6A"/>
<path d="M91.7468 25.5772C91.7468 21.6311 95.3813 20.3157 98.3282 20.3157H103.485V17.5875C103.485 14.8593 101.619 13.8849 98.9667 13.8849C96.7566 13.8849 94.4482 14.6644 94.4482 16.9542V17.5388H92.5327V17.0029C92.5327 13.5439 95.7743 12.2285 99.1141 12.2285C102.552 12.2285 105.597 13.4465 105.597 17.2465V25.7721C105.597 26.7952 105.745 29.3772 105.843 30.1567H103.78C103.731 29.5721 103.633 27.9157 103.633 27.3798H103.584C102.11 30.108 99.7526 30.5465 97.5915 30.5465C94.3499 30.5465 91.7468 28.7926 91.7468 25.5772ZM103.485 23.8234V21.8747H98.7212C96.3145 21.8747 93.8097 22.4593 93.8097 25.4798C93.8097 27.8183 95.8725 28.9388 98.0827 28.9388C101.668 28.9388 103.485 26.8926 103.485 23.8234Z" fill="#555F6A"/>
<path d="M109.085 12.6674H111.098V16.4187H111.147C112.719 13.3008 115.322 12.4238 117.729 12.4238C118.171 12.4238 118.613 12.4725 118.957 12.5213V14.47C118.367 14.3725 117.729 14.3725 117.336 14.3725C113.947 14.3725 111.295 16.4674 111.147 20.4623V30.2059H109.035V12.6674H109.085Z" fill="#555F6A"/>
<path d="M119.89 23.5798V19.4875C119.89 14.9567 122.689 12.2285 126.962 12.2285C131.088 12.2285 133.691 14.567 133.691 18.026V18.5618H131.628V17.8798C131.628 16.0772 130.302 13.9824 126.962 13.9824C123.672 13.9824 122.051 16.3208 122.051 19.3413V23.5798C122.051 26.649 123.524 28.8413 127.012 28.8413C130.351 28.8413 131.678 26.7465 131.678 24.9439V24.3593H133.691V24.8465C133.691 28.3054 131.186 30.6439 127.012 30.6439C122.542 30.6439 119.89 28.1106 119.89 23.5798Z" fill="#555F6A"/>
<path d="M136.294 5.06641H138.357V16.0279H138.455C139.683 13.5433 142.041 12.2767 144.447 12.2767C148.131 12.2767 149.948 14.7613 149.948 17.7818V30.2049H147.836V18.7074C147.836 15.4433 146.215 14.0792 143.809 14.0792C141.009 14.0792 138.357 16.2715 138.357 19.7305V30.2049H136.294V5.06641Z" fill="#555F6A"/>
<path d="M152.748 25.5772C152.748 21.6311 156.382 20.3157 159.329 20.3157H164.486V17.5875C164.486 14.8593 162.62 13.8849 159.968 13.8849C157.758 13.8849 155.449 14.6644 155.449 16.9542V17.5388H153.534V17.0029C153.534 13.5439 156.775 12.2285 160.115 12.2285C163.553 12.2285 166.598 13.4465 166.598 17.2465V25.7721C166.598 26.7952 166.746 29.3772 166.844 30.1567H164.781C164.732 29.5721 164.634 27.9157 164.634 27.3798H164.535C163.062 30.108 160.704 30.5465 158.543 30.5465C155.351 30.5465 152.748 28.7926 152.748 25.5772ZM164.486 23.8234V21.8747H159.722C157.316 21.8747 154.811 22.4593 154.811 25.4798C154.811 27.8183 156.873 28.9388 159.084 28.9388C162.669 28.9388 164.486 26.8926 164.486 23.8234Z" fill="#555F6A"/>
<path d="M170.135 12.6671H172.099V16.0286H172.148C173.376 13.544 175.783 12.2773 178.238 12.2773C181.922 12.2773 183.739 14.762 183.739 17.7825V30.2055H181.726V18.7081C181.726 15.444 180.105 14.0799 177.698 14.0799C174.899 14.0799 172.246 16.2722 172.246 19.7312V30.2055H170.184V12.6671H170.135Z" fill="#555F6A"/>
<path d="M187.57 4.87305H189.633V8.47817H187.57V4.87305ZM187.57 12.6679H189.633V30.2064H187.57V12.6679Z" fill="#555F6A"/>
<path d="M192.236 28.013L193.661 26.7951C195.134 28.2079 196.804 28.8899 199.162 28.8899C201.421 28.8899 203.729 27.672 203.729 25.431C203.729 23.2874 202.403 22.6053 199.947 22.1669L197.983 21.7284C194.839 21.1438 192.973 19.731 192.973 17.2464C192.973 14.4207 195.183 12.1797 199.112 12.1797C201.617 12.1797 203.631 12.7643 205.006 14.1284L203.631 15.2976C202.501 14.372 201.028 13.8361 198.965 13.8361C196.608 13.8361 195.085 15.1515 195.085 16.954C195.085 18.8053 196.509 19.4874 199.112 20.072L201.716 20.6566C204.22 21.2412 205.939 22.5079 205.939 25.0899C205.939 28.7925 202.55 30.6438 199.26 30.6438C196.362 30.5951 193.857 29.913 192.236 28.013Z" fill="#555F6A"/>
<path d="M207.855 23.5799V19.7799C207.855 14.9568 210.998 12.2773 215.222 12.2773C219.151 12.2773 222.049 14.6645 222.049 19.1953V21.7773H210.016V23.8722C210.016 26.9902 211.981 28.9389 215.419 28.9389C217.678 28.9389 219.201 27.8671 220.134 26.6979L221.705 27.6722C220.085 30.0107 217.629 30.6927 215.271 30.6927C210.9 30.644 207.855 28.403 207.855 23.5799ZM219.937 20.2671V19.0491C219.937 16.3209 218.415 13.9825 215.026 13.9825C211.784 13.9825 209.967 16.4671 209.967 19.2927V20.2184H219.937V20.2671Z" fill="#555F6A"/>
</svg>
