<?xml version="1.0" encoding="UTF-8"?>
<svg viewBox="15354 11040 649.52 519.93" xmlns="http://www.w3.org/2000/svg">
<defs>
<style>.cls-1 {
        fill: #ffb303;
        font-size: 30px;
        font-family: SegoeUI-Bold, Segoe UI;
        font-weight: 700;
      }
      .cls-2 {
        fill: #344c67;
        font-size: 21px;
        font-family: SegoeUI-Semibold, Segoe UI;
        font-weight: 600;
      }
      .cls-3 {
        fill: #6cdd6c;
      }
      .cls-4 {
        fill: #50aa50;
      }
      .cls-5 {
        fill: #405b91;
      }
      .cls-6 {
        fill: #fff;
      }
      .cls-7, .cls-9 {
        fill: #415b91;
      }
      .cls-10, .cls-8 {
        fill: #b6d0fb;
      }
      .cls-8, .cls-9 {
        fill-rule: evenodd;
      }
      .cls-11 {
        fill: #3f5b91;
      }
      .cls-12 {
        fill: #d7e7ff;
      }</style>
</defs>
<g transform="translate(15354 11040)" data-name="Group 1137">
<text class="cls-1" transform="translate(110.31 481.13)" data-name="We are Under Maintenance.">
<tspan x="0" y="0">We are Under Maintenance.</tspan>
</text>
<text class="cls-2" transform="translate(232.55 514.93)" data-name="Will be Back Soon!">
<tspan x="0" y="0">Will be Back Soon!</tspan>
</text>
<g data-name="Group 1121">
<g transform="translate(403.73 386.21)" data-name="Group 701">
<g transform="translate(6.462)" data-name="Group 682">
<g transform="translate(.917 1.018)" data-name="Group 680">
<path class="cls-3" transform="translate(-253.44 -238.72)" d="M276.9,245.5a9.534,9.534,0,0,0-5.677-6.489c-2.92-.973-6.489.487-7.3,3.406-2.6-2.109-6.651-.487-8.759,2.271-3.406,4.38-.811,11.517-.162,11.842a5.062,5.062,0,0,0,2.271.487l25.467-.162a33.146,33.146,0,0,0,6.813-1.135c4.38-1.784,7.3-9.246,4.542-12.977-1.947-2.6-5.677-3.082-8.76-2.109A22.1,22.1,0,0,0,276.9,245.5" data-name="Path 755"/>
</g>
<g data-name="Group 681">
<path class="cls-4" transform="translate(-252.88 -238.09)" d="M257.133,258.222a4.578,4.578,0,0,1-2.433-.649c-.973-.811-3.569-8.435,0-13.139a9.323,9.323,0,0,1,6-3.569,5,5,0,0,1,3.082.487,6.985,6.985,0,0,1,2.433-2.433,7.233,7.233,0,0,1,5.515-.487,9.468,9.468,0,0,1,5.84,5.84,25.053,25.053,0,0,1,7.786-4.38c3.082-.973,7.3-.649,9.571,2.433a8.173,8.173,0,0,1,.811,7.137c-.973,3.244-3.244,6.164-5.677,7.137a27.57,27.57,0,0,1-7.137,1.3l-25.467.162C257.458,258.222,257.3,258.222,257.133,258.222Zm4.218-15.572h-.487A7.805,7.805,0,0,0,256,245.57c-2.92,3.893-.811,10.219-.324,10.868a4.069,4.069,0,0,0,1.622.162l25.467-.162a29.6,29.6,0,0,0,6.489-1.136c1.947-.811,3.893-3.244,4.7-6,.649-2.271.487-4.38-.487-5.677-1.784-2.433-5.353-2.6-7.786-1.784a23.973,23.973,0,0,0-8.111,4.866.713.713,0,0,1-.811.162c-.324,0-.487-.324-.649-.487-.973-2.92-2.758-5.191-5.191-5.84a5.479,5.479,0,0,0-4.218.324A3.879,3.879,0,0,0,264.6,243.3q-.243.487-.487.487a1.462,1.462,0,0,1-.811-.162C262.973,242.812,262.162,242.65,261.351,242.65Z" data-name="Path 756"/>
</g>
</g>
<g transform="translate(3.218 6.565)" data-name="Group 685">
<g data-name="Group 684">
<g data-name="Group 683">
<path class="cls-4" transform="translate(-250.87 -242.13)" d="M251.727,242.4a8.736,8.736,0,0,0-.811,4.542c.162.811,1.3.811,1.3,0a6.436,6.436,0,0,1,.649-3.893c.324-.649-.811-1.3-1.135-.649Z" data-name="Path 757"/>
</g>
</g>
</g>
<g transform="translate(0 7.382)" data-name="Group 688">
<g data-name="Group 687">
<g data-name="Group 686">
<path class="cls-4" transform="translate(-248.89 -242.64)" d="M249.23,243.063a9.358,9.358,0,0,0-.162,4.218c.162.811,1.46.487,1.3-.324a6.607,6.607,0,0,1,.162-3.569c.162-.649-1.136-1.135-1.3-.324Z" data-name="Path 758"/>
</g>
</g>
</g>
<g transform="translate(6.868 4.076)" data-name="Group 691">
<g data-name="Group 690">
<g data-name="Group 689">
<path class="cls-4" transform="translate(-253.12 -240.6)" d="M253.733,241.9a.65.65,0,0,0,0-1.3.65.65,0,0,0,0,1.3Z" data-name="Path 759"/>
</g>
</g>
</g>
<g transform="translate(11.045 10.767)" data-name="Group 694">
<g data-name="Group 693">
<g data-name="Group 692">
<path class="cls-4" transform="translate(-255.7 -244.72)" d="M255.7,245.333v1.135a.65.65,0,0,0,1.3,0v-1.135a.65.65,0,0,0-1.3,0Z" data-name="Path 760"/>
</g>
</g>
</g>
<g transform="translate(32.295 12.714)" data-name="Group 697">
<g data-name="Group 696">
<g data-name="Group 695">
<path class="cls-4" transform="translate(-268.8 -245.92)" d="M268.8,246.533v.487a.65.65,0,0,0,1.3,0v-.487a.65.65,0,0,0-1.3,0Z" data-name="Path 761"/>
</g>
</g>
</g>
<g transform="translate(29.808 10.813)" data-name="Group 700">
<g data-name="Group 699">
<g data-name="Group 698">
<path class="cls-4" transform="translate(-267.27 -244.75)" d="M267.483,245.8l.324.324c.649.649,1.46-.324.811-.811l-.324-.324c-.487-.649-1.46.162-.811.811Z" data-name="Path 762"/>
</g>
</g>
</g>
</g>
<g transform="translate(30.821 366.93)" data-name="Group 702">
<path class="cls-5" transform="translate(-19 -226.2)" d="m63.446 229.44h-42.824a1.622 1.622 0 0 1 0-3.244h42.662a1.626 1.626 0 0 1 1.622 1.622 1.412 1.412 0 0 1-1.46 1.622z" data-name="Path 763"/>
</g>
<g transform="translate(445.11 218.99)" data-name="Group 704">
<g data-name="Group 703">
<path class="cls-6" transform="translate(-274.4 -135)" d="m280.56 138.08h-1.3a1.784 1.784 0 0 0-3.569 0h-1.3a3.082 3.082 0 0 1 6.164 0z" data-name="Path 764"/>
</g>
</g>
<g transform="translate(449.49 147.94)" data-name="Group 706">
<g data-name="Group 705">
<path class="cls-6" transform="translate(-277.1 -91.2)" d="m283.26 94.282h-1.3a1.784 1.784 0 0 0-3.569 0h-1.3a3.08 3.08 0 0 1 3.082-3.082 3.314 3.314 0 0 1 3.087 3.082z" data-name="Path 765"/>
</g>
</g>
<g transform="translate(245.75 368.06)" data-name="Group 709">
<g data-name="Group 708">
<g data-name="Group 707">
<path class="cls-7" transform="translate(-151.5 -226.9)" d="m209.57 256.75h-58.072l0.973-2.271c3.731-9.084 4.218-16.708 3.569-25.63l-0.162-1.784 48.988-0.162v1.622c0 5.677 1.622 18.655 3.893 25.954zm-53.044-3.407h48.5a127.28 127.28 0 0 1-3.406-23.2l-42.013 0.162c0.326 7.953-0.161 15.09-3.08 23.039z" data-name="Path 766"/>
</g>
</g>
</g>
<g transform="translate(136.46 199.85)" data-name="Group 712">
<g data-name="Group 711">
<g data-name="Group 710">
<path class="cls-7" transform="translate(-84.124 -123.2)" d="M176.709,294.659c-44.122,0-79.809-.162-81.269-.811-3.731-1.3-8.76-6.651-8.76-10.219-.162-8.111-.487-18.979-.811-31.632-1.135-38.12-2.92-90.515-.649-119.389a9.948,9.948,0,0,1,9.9-9.408h.162l254.026.324a9.9,9.9,0,0,1,9.733,9.9c.162,8.435.487,17.032.811,25.792,1.135,36.66,2.433,74.618-1.622,110.467-.162,1.46-.162,2.92-.324,4.542-.324,7.462-.811,16.87-10.382,18.817C342.491,294.173,248.569,294.659,176.709,294.659Zm-81.755-168.7a7.283,7.283,0,0,0-7.3,6.813c-2.109,28.874-.487,80.944.649,119.065.324,12.653.811,23.683.811,31.632,0,2.271,3.893,6.651,6.975,7.786,5.353,1.135,244.293.324,250.457-.811,7.624-1.46,7.948-9.084,8.273-16.221a42.864,42.864,0,0,1,.324-4.7c4.055-35.687,2.758-73.483,1.622-109.981-.324-8.76-.487-17.357-.811-25.792a7.456,7.456,0,0,0-7.137-7.3l-253.864-.487Z" data-name="Path 767"/>
</g>
</g>
</g>
<g transform="translate(145.8 208.77)" data-name="Group 714">
<g data-name="Group 713">
<path class="cls-8" transform="translate(-89.88 -128.7)" d="m338.59 129.02-239.43-0.324c-4.38 0-7.948 2.92-8.273 6.813-2.758 32.118 0.973 98.95 1.46 125.88 0 2.6 4.38 6.489 7.462 7.462 3.569 1.135 231.15 0.324 236.67-0.649 10.057-1.784 8.273-12 9.084-18.492 4.7-36.985 1.784-77.214 0.811-113.39a7.486 7.486 0 0 0-7.786-7.301z" data-name="Path 768"/>
</g>
</g>
<g transform="translate(218.99 394.83)" data-name="Group 717">
<g data-name="Group 716">
<g data-name="Group 715">
<path class="cls-7" transform="translate(-135 -243.4)" d="M240.6,255.728H141a6.166,6.166,0,0,1,0-12.328h99.6a6.166,6.166,0,0,1,0,12.328ZM141,246a3.411,3.411,0,0,0,0,6.813h99.6a3.411,3.411,0,0,0,0-6.813Z" data-name="Path 769"/>
</g>
</g>
</g>
<g transform="translate(152.28 354.92)" data-name="Group 742">
<g data-name="Group 725">
<g transform="translate(2.92 3.569)" data-name="Group 720">
<g data-name="Group 719">
<g data-name="Group 718">
<path class="cls-9" transform="translate(-95.675 -221)" d="m96.04 221" data-name="Path 770"/>
</g>
</g>
</g>
<g data-name="Group 724">
<g data-name="Group 723">
<g data-name="Group 722">
<g data-name="Group 721">
<path class="cls-7" transform="translate(-93.875 -218.8)" d="m97.16 225.78c4.542 0 4.542-6.975 0-6.975-4.38 0-4.38 6.975 0 6.975z" data-name="Path 771"/>
</g>
</g>
</g>
</g>
</g>
<g transform="translate(13.991)" data-name="Group 733">
<g transform="translate(2.92 3.569)" data-name="Group 728">
<g data-name="Group 727">
<g data-name="Group 726">
<path class="cls-9" transform="translate(-104.3 -221)" d="m104.79 221" data-name="Path 772"/>
</g>
</g>
</g>
<g data-name="Group 732">
<g data-name="Group 731">
<g data-name="Group 730">
<g data-name="Group 729">
<path class="cls-7" transform="translate(-102.5 -218.8)" d="m105.91 225.78c4.542 0 4.542-6.975 0-6.975s-4.542 6.975 0 6.975z" data-name="Path 773"/>
</g>
</g>
</g>
</g>
</g>
<g transform="translate(27.941)" data-name="Group 741">
<g transform="translate(2.92 3.569)" data-name="Group 736">
<g data-name="Group 735">
<g data-name="Group 734">
<path class="cls-9" transform="translate(-112.9 -221)" d="m113.39 221" data-name="Path 774"/>
</g>
</g>
</g>
<g data-name="Group 740">
<g data-name="Group 739">
<g data-name="Group 738">
<g data-name="Group 737">
<path class="cls-7" transform="translate(-111.1 -218.8)" d="m114.51 225.78c4.542 0 4.542-6.975 0-6.975s-4.542 6.975 0 6.975z" data-name="Path 775"/>
</g>
</g>
</g>
</g>
</g>
</g>
<g transform="translate(273.21 203.74)" data-name="Group 750">
<g transform="translate(1.338 1.622)" data-name="Group 745">
<g data-name="Group 744">
<g data-name="Group 743">
<path class="cls-9" transform="translate(-169.25 -126.6)" d="m169.49 126.6" data-name="Path 776"/>
</g>
</g>
</g>
<g data-name="Group 749">
<g data-name="Group 748">
<g data-name="Group 747">
<g data-name="Group 746">
<path class="cls-7" transform="translate(-168.42 -125.6)" d="m170.01 128.84a1.623 1.623 0 0 0 0-3.244 1.623 1.623 0 0 0 0 3.244z" data-name="Path 777"/>
</g>
</g>
</g>
</g>
</g>
<g transform="translate(518.43 357.19)" data-name="Group 755">
<g transform="translate(2.92)" data-name="Group 751">
<path class="cls-10" transform="translate(-321.4 -220.2)" d="m355.79 263.51h-34.389l13.139-43.311h7.948z" data-name="Path 778"/>
</g>
<g transform="translate(0 43.311)" data-name="Group 752">
<rect class="cls-10" width="40.067" height="5.029" data-name="Rectangle 1505"/>
</g>
<g transform="translate(2.92 32.443)" data-name="Group 753">
<path class="cls-7" transform="translate(-321.4 -240.2)" d="m324.64 240.2-3.244 10.868h34.389l-3.406-10.868z" data-name="Path 779"/>
</g>
<g transform="translate(9.571 10.868)" data-name="Group 754">
<path class="cls-7" transform="translate(-325.5 -226.9)" d="m325.5 237.61h21.088l-3.407-10.706h-14.437z" data-name="Path 780"/>
</g>
</g>
<g transform="translate(561.74 350.06)">
<path class="cls-10" transform="translate(-346.3 -215.8)" d="M354.248,270.953h7.624V241.43h39.093v29.523h7.624V241.43H416.7V217.909h-6.489V215.8H399.182v2.109H364.468V215.8h-11.03v2.109H346.3V241.43h7.948v29.523Zm60.019-50.611h0L409.563,239h-8.435l4.7-18.655ZM392.369,239h-8.435l4.7-18.655h8.435Zm-17.195,0h-8.435l4.7-18.655h8.435Zm-20.763-18.655h8.435L358.142,239h-8.435Z" data-name="Path 781"/>
</g>
<g transform="translate(161.4 80.944)" data-name="Group 760">
<g data-name="Group 757">
<g data-name="Group 756">
<path class="cls-10" transform="translate(-99.5 -49.9)" d="M133.24,85.911l2.271-2.271a1.084,1.084,0,0,0,0-1.622l-1.947-1.947a1.725,1.725,0,0,1-.324-1.947l1.622-3.893a1.558,1.558,0,0,1,1.46-1.135h2.758a1.109,1.109,0,0,0,1.135-1.135V68.717a1.109,1.109,0,0,0-1.135-1.135h-2.758a1.558,1.558,0,0,1-1.46-1.135l-1.622-3.893a1.725,1.725,0,0,1,.324-1.947l1.947-1.947a1.084,1.084,0,0,0,0-1.622l-2.271-2.271a1.084,1.084,0,0,0-1.622,0l-2.109,1.784a1.725,1.725,0,0,1-1.947.324l-3.893-1.622a1.558,1.558,0,0,1-1.135-1.46V51.035A1.109,1.109,0,0,0,121.4,49.9h-3.244a1.109,1.109,0,0,0-1.135,1.135v2.758a1.558,1.558,0,0,1-1.135,1.46l-3.893,1.622a1.725,1.725,0,0,1-1.947-.324L108.1,54.6a1.084,1.084,0,0,0-1.622,0L104.2,56.875a1.084,1.084,0,0,0,0,1.622l1.947,1.947a1.725,1.725,0,0,1,.324,1.947l-1.622,3.893a1.558,1.558,0,0,1-1.46,1.135h-2.758A1.109,1.109,0,0,0,99.5,68.555V71.8a1.109,1.109,0,0,0,1.135,1.135h2.758a1.558,1.558,0,0,1,1.46,1.135l1.622,3.893a1.725,1.725,0,0,1-.324,1.947L104.2,81.856a1.084,1.084,0,0,0,0,1.622l2.271,2.271a1.084,1.084,0,0,0,1.622,0l1.947-1.947a1.725,1.725,0,0,1,1.947-.324l3.893,1.622a1.558,1.558,0,0,1,1.135,1.46v2.758a1.109,1.109,0,0,0,1.135,1.135H121.4a1.109,1.109,0,0,0,1.135-1.135V86.56a1.558,1.558,0,0,1,1.135-1.46l3.893-1.622a1.725,1.725,0,0,1,1.947.324l1.947,1.947A1.157,1.157,0,0,0,133.24,85.911Zm-13.464-6.326a9.408,9.408,0,1,1,9.408-9.408A9.415,9.415,0,0,1,119.777,79.585Z" data-name="Path 782"/>
</g>
</g>
<g transform="translate(30.128 34.995)" data-name="Group 759">
<g data-name="Group 758">
<path class="cls-10" transform="translate(-118.07 -71.473)" d="M143.422,81.412l-.649-1.947a.788.788,0,0,0-.973-.487l-1.622.487a.949.949,0,0,1-1.135-.487L137.42,76.87a1,1,0,0,1-.162-1.135l.811-1.46a.78.78,0,0,0-.324-.973l-1.784-.973a.78.78,0,0,0-.973.324l-.811,1.46a.99.99,0,0,1-1.135.487l-2.6-.324a1.334,1.334,0,0,1-.973-.649L128.985,72a.788.788,0,0,0-.973-.487l-1.947.649a.788.788,0,0,0-.487.973l.487,1.622a.949.949,0,0,1-.487,1.135l-2.109,1.622a1,1,0,0,1-1.135.162l-1.46-.811a.78.78,0,0,0-.973.324l-.973,1.784a.78.78,0,0,0,.324.973l1.46.811A.99.99,0,0,1,121.2,81.9l-.324,2.6a1.334,1.334,0,0,1-.649.973l-1.622.487a.788.788,0,0,0-.487.973l.649,1.947a.788.788,0,0,0,.973.487l1.622-.487a1.075,1.075,0,0,1,1.135.324l1.622,2.109a1,1,0,0,1,.162,1.135l-.811,1.46a.78.78,0,0,0,.324.973l1.784.973a.78.78,0,0,0,.973-.324l.811-1.46a.99.99,0,0,1,1.135-.487l2.6.324a1.1,1.1,0,0,1,.973.649l.487,1.622a.788.788,0,0,0,.973.487l1.947-.649a.788.788,0,0,0,.487-.973l-.487-1.622a1.075,1.075,0,0,1,.324-1.135l2.109-1.622a1,1,0,0,1,1.135-.162l1.46.811a.78.78,0,0,0,.973-.324l.973-1.784a.78.78,0,0,0-.324-.973l-1.46-.811a.99.99,0,0,1-.487-1.135l.487-2.6a1.334,1.334,0,0,1,.649-.973l1.622-.487A.548.548,0,0,0,143.422,81.412Zm-7.3,5.515a5.878,5.878,0,1,1-2.433-7.948A5.723,5.723,0,0,1,136.122,86.927Z" data-name="Path 783"/>
</g>
</g>
</g>
<g transform="translate(257.92 159.62)" data-name="Group 761">
<path class="cls-5" transform="translate(-159 -98.4)" d="m213.5 101.64h-52.878a1.622 1.622 0 0 1 0-3.244h52.878a1.626 1.626 0 0 1 1.622 1.622 1.528 1.528 0 0 1-1.622 1.622z" data-name="Path 784"/>
</g>
<g transform="translate(117.77 183.62)" data-name="Group 762">
<path class="cls-5" transform="translate(-72.6 -113.2)" d="m159.71 116.44h-85.487a1.626 1.626 0 0 1-1.622-1.622 1.744 1.744 0 0 1 1.622-1.622h85.486a1.626 1.626 0 0 1 1.622 1.622 1.744 1.744 0 0 1-1.621 1.622z" data-name="Path 785"/>
</g>
<g transform="translate(527.19 229.04)" data-name="Group 763">
<path class="cls-5" transform="translate(-325 -141.2)" d="m412.11 144.44h-85.487a1.626 1.626 0 0 1-1.622-1.622 1.744 1.744 0 0 1 1.622-1.622h85.486a1.622 1.622 0 0 1 0 3.244z" data-name="Path 786"/>
</g>
<g transform="translate(0 405.53)" data-name="Group 764">
<path class="cls-5" transform="translate(0 -250)" d="m647.88 253.24h-646.26a1.622 1.622 0 1 1 0-3.244h646.26a1.625 1.625 0 0 1 1.622 1.622 1.528 1.528 0 0 1-1.622 1.622z" data-name="Path 787"/>
</g>
<g transform="translate(384.93 141.61)" data-name="Group 769">
<g data-name="Group 766">
<g data-name="Group 765">
<path class="cls-10" transform="translate(-237.3 -87.3)" d="M263.254,87.3a14.07,14.07,0,0,0-9.571,3.893,13.527,13.527,0,0,0-2.109,16.384l.162.324-13.788,13.788a2.482,2.482,0,0,0-.649,1.622,3.141,3.141,0,0,0,.973,2.109,3.067,3.067,0,0,0,2.271,1.135,2.909,2.909,0,0,0,1.622-.487l13.626-13.788.324.162a12.612,12.612,0,0,0,6.813,1.784,14.07,14.07,0,0,0,9.571-3.893,13.414,13.414,0,0,0,0-19.141A12.728,12.728,0,0,0,263.254,87.3Zm0,23.2a9.571,9.571,0,0,1,0-19.141h0a9.588,9.588,0,0,1,9.571,9.571A9.7,9.7,0,0,1,263.254,110.5Z" data-name="Path 788"/>
</g>
</g>
<g transform="translate(20.925 13.139)" data-name="Group 768">
<g data-name="Group 767">
<path class="cls-10" transform="translate(-250.2 -95.4)" d="M250.2,97.833h9.9V95.4h-9.9Z" data-name="Path 789"/>
</g>
</g>
</g>
<g transform="translate(157.35 272.84)" data-name="Group 780">
<g data-name="Group 770">
<path class="cls-5" transform="translate(-97 -168.2)" d="m98.622 301.05a1.626 1.626 0 0 1-1.622-1.622v-129.61a1.622 1.622 0 0 1 3.244 0v129.61a1.626 1.626 0 0 1-1.622 1.622z" data-name="Path 790"/>
</g>
<g transform="translate(30.009)" data-name="Group 771">
<path class="cls-5" transform="translate(-115.5 -168.2)" d="m117.12 301.05a1.626 1.626 0 0 1-1.622-1.622v-129.61a1.626 1.626 0 0 1 1.622-1.622 1.744 1.744 0 0 1 1.622 1.622v129.61a1.528 1.528 0 0 1-1.622 1.622z" data-name="Path 791"/>
</g>
<g transform="translate(0 8.922)" data-name="Group 772">
<path class="cls-5" transform="translate(-97 -173.7)" d="m128.63 176.94h-30.01a1.622 1.622 0 1 1 0-3.244h30.172a1.626 1.626 0 0 1 1.622 1.622 1.777 1.777 0 0 1-1.784 1.622z" data-name="Path 792"/>
</g>
<g transform="translate(0 23.683)" data-name="Group 773">
<path class="cls-5" transform="translate(-97 -182.8)" d="m128.63 186.04h-30.01a1.622 1.622 0 0 1 0-3.244h30.172a1.626 1.626 0 0 1 1.622 1.622 1.777 1.777 0 0 1-1.784 1.622z" data-name="Path 793"/>
</g>
<g transform="translate(0 38.445)" data-name="Group 774">
<path class="cls-5" transform="translate(-97 -191.9)" d="m128.63 195.14h-30.01a1.622 1.622 0 0 1 0-3.244h30.172a1.626 1.626 0 0 1 1.622 1.622 1.667 1.667 0 0 1-1.784 1.622z" data-name="Path 794"/>
</g>
<g transform="translate(0 53.368)" data-name="Group 775">
<path class="cls-5" transform="translate(-97 -201.1)" d="m128.63 204.34h-30.01a1.622 1.622 0 1 1 0-3.244h30.172a1.626 1.626 0 0 1 1.622 1.622 1.777 1.777 0 0 1-1.784 1.622z" data-name="Path 795"/>
</g>
<g transform="translate(0 68.13)" data-name="Group 776">
<path class="cls-5" transform="translate(-97 -210.2)" d="m128.63 213.44h-30.01a1.622 1.622 0 1 1 0-3.244h30.172a1.626 1.626 0 0 1 1.622 1.622 1.777 1.777 0 0 1-1.784 1.622z" data-name="Path 796"/>
</g>
<g transform="translate(0 82.891)" data-name="Group 777">
<path class="cls-5" transform="translate(-97 -219.3)" d="m128.63 222.54h-30.01a1.626 1.626 0 0 1-1.622-1.622 1.744 1.744 0 0 1 1.622-1.622h30.172a1.626 1.626 0 0 1 1.622 1.622 1.777 1.777 0 0 1-1.784 1.622z" data-name="Path 797"/>
</g>
<g transform="translate(0 97.652)" data-name="Group 778">
<path class="cls-5" transform="translate(-97 -228.4)" d="m128.63 231.64h-30.01a1.622 1.622 0 0 1 0-3.244h30.172a1.626 1.626 0 0 1 1.622 1.622 1.667 1.667 0 0 1-1.784 1.622z" data-name="Path 798"/>
</g>
<g transform="translate(0 112.41)" data-name="Group 779">
<path class="cls-5" transform="translate(-97 -237.5)" d="m128.63 240.74h-30.01a1.622 1.622 0 0 1 0-3.244h30.172a1.626 1.626 0 0 1 1.622 1.622 1.667 1.667 0 0 1-1.784 1.622z" data-name="Path 799"/>
</g>
</g>
<g transform="translate(113.06 271.06)" data-name="Group 783">
<g transform="translate(3.244)" data-name="Group 781">
<path class="cls-5" transform="translate(-71.7 -167.1)" d="m73.322 176.83a1.626 1.626 0 0 1-1.622-1.622v-6.489a1.622 1.622 0 1 1 3.244 0v6.489a1.626 1.626 0 0 1-1.622 1.622z" data-name="Path 800"/>
</g>
<g transform="translate(0 3.082)" data-name="Group 782">
<path class="cls-5" transform="translate(-69.7 -169)" d="m77.811 172.24h-6.489a1.622 1.622 0 1 1 0-3.244h6.489a1.626 1.626 0 0 1 1.622 1.622c0.167 0.978-0.649 1.622-1.622 1.622z" data-name="Path 801"/>
</g>
</g>
<g transform="translate(264.41 36.66)" data-name="Group 786">
<g transform="translate(3.244)" data-name="Group 784">
<path class="cls-5" transform="translate(-165 -22.6)" d="m166.62 32.333a1.626 1.626 0 0 1-1.622-1.622v-6.489a1.622 1.622 0 1 1 3.244 0v6.489a1.626 1.626 0 0 1-1.622 1.622z" data-name="Path 802"/>
</g>
<g transform="translate(0 3.244)" data-name="Group 785">
<path class="cls-5" transform="translate(-163 -24.6)" d="m171.11 27.844h-6.489a1.626 1.626 0 0 1-1.622-1.622 1.744 1.744 0 0 1 1.622-1.622h6.489a1.622 1.622 0 0 1 0 3.244z" data-name="Path 803"/>
</g>
</g>
<g transform="translate(314.27 378.18)" data-name="Group 789">
<g transform="translate(0 2.271)" data-name="Group 787">
<path class="cls-5" transform="translate(-193.74 -234.54)" d="m201.79 239.67h-0.487l-6.326-1.784a1.694 1.694 0 0 1 0.973-3.244l6.326 1.784a1.59 1.59 0 0 1 1.135 2.109 1.953 1.953 0 0 1-1.621 1.135z" data-name="Path 804"/>
</g>
<g transform="translate(2.271)" data-name="Group 788">
<path class="cls-5" transform="translate(-195.14 -233.14)" d="m196.86 242.81h-0.487a1.59 1.59 0 0 1-1.135-2.109l1.784-6.326a1.694 1.694 0 1 1 3.244 0.973l-1.784 6.326a1.953 1.953 0 0 1-1.622 1.136z" data-name="Path 805"/>
</g>
</g>
<g transform="translate(281.18 180.28)" data-name="Group 792">
<g transform="translate(0 2.271)" data-name="Group 790">
<path class="cls-5" transform="translate(-173.34 -112.54)" d="m181.39 117.67h-0.487l-6.326-1.784a1.694 1.694 0 0 1 0.973-3.244l6.326 1.784a1.59 1.59 0 0 1 1.135 2.109 1.953 1.953 0 0 1-1.621 1.135z" data-name="Path 806"/>
</g>
<g transform="translate(2.271)" data-name="Group 791">
<path class="cls-5" transform="translate(-174.74 -111.14)" d="m176.46 120.81h-0.487a1.59 1.59 0 0 1-1.135-2.109l1.784-6.326a1.694 1.694 0 0 1 3.244 0.973l-1.784 6.326a1.953 1.953 0 0 1-1.622 1.136z" data-name="Path 807"/>
</g>
</g>
<g transform="translate(251.67 92.734)" data-name="Group 830">
<g data-name="Group 794">
<g data-name="Group 793">
<circle class="cls-10" transform="translate(0 33.034) rotate(-45)" cx="23.359" cy="23.359" r="23.359" data-name="Ellipse 351"/>
</g>
</g>
<g transform="translate(14.842 14.814)" data-name="Group 800">
<g transform="translate(.649 .649)" data-name="Group 796">
<g data-name="Group 795">
<circle class="cls-6" cx="17.519" cy="17.519" r="17.519" data-name="Ellipse 352"/>
</g>
</g>
<g data-name="Group 799">
<g data-name="Group 798">
<g data-name="Group 797">
<path class="cls-5" transform="translate(-164.3 -66.3)" d="m182.47 102.64a18.168 18.168 0 1 1 18.168-18.168 18.138 18.138 0 0 1-18.168 18.168zm0-35.038a16.87 16.87 0 1 0 16.87 16.87 16.962 16.962 0 0 0-16.87-16.868z" data-name="Path 808"/>
</g>
</g>
</g>
</g>
<g transform="translate(32.361 23.411)" data-name="Group 805">
<g data-name="Group 802">
<g data-name="Group 801">
<path class="cls-5" transform="translate(-175.1 -71.6)" d="m175.75 81.819a0.7 0.7 0 0 1-0.649-0.649v-8.921a0.649 0.649 0 1 1 1.3 0v8.922c0.16 0.329-0.165 0.648-0.651 0.648z" data-name="Path 809"/>
</g>
</g>
<g transform="translate(.162 8.922)" data-name="Group 804">
<g data-name="Group 803">
<path class="cls-5" transform="translate(-175.2 -77.1)" d="M186.23,78.4H175.849a.649.649,0,0,1,0-1.3H186.23a.649.649,0,0,1,0,1.3Z" data-name="Path 810"/>
</g>
</g>
</g>
<g transform="translate(16.951 16.76)" data-name="Group 822">
<g transform="translate(15.572)" data-name="Group 807">
<g data-name="Group 806">
<path class="cls-5" transform="translate(-175.2 -67.5)" d="M176.5,68.149a.649.649,0,1,1-.649-.649A.7.7,0,0,1,176.5,68.149Z" data-name="Path 811"/>
</g>
</g>
<g transform="translate(26.441 4.542)" data-name="Group 809">
<g data-name="Group 808">
<circle class="cls-5" cx=".649" cy=".649" r=".649" data-name="Ellipse 353"/>
</g>
</g>
<g transform="translate(30.983 15.572)" data-name="Group 811">
<g data-name="Group 810">
<path class="cls-5" transform="translate(-184.7 -77.1)" d="M185.349,78.4a.649.649,0,1,1,.649-.649A.594.594,0,0,1,185.349,78.4Z" data-name="Path 812"/>
</g>
</g>
<g transform="translate(26.441 26.603)" data-name="Group 813">
<g data-name="Group 812">
<circle class="cls-5" cx=".649" cy=".649" r=".649" data-name="Ellipse 354"/>
</g>
</g>
<g transform="translate(15.41 31.145)" data-name="Group 815">
<g data-name="Group 814">
<path class="cls-5" transform="translate(-175.1 -86.7)" d="M175.1,87.349a.649.649,0,1,1,.649.649A.7.7,0,0,1,175.1,87.349Z" data-name="Path 813"/>
</g>
</g>
<g transform="translate(4.461 26.522)" data-name="Group 817">
<g data-name="Group 816">
<path class="cls-5" transform="translate(-168.35 -83.85)" d="m168.59 84.093a0.688 0.688 0 1 1 0 0.973c-0.324-0.324-0.324-0.81 0-0.973z" data-name="Path 814"/>
</g>
</g>
<g transform="translate(0 15.572)" data-name="Group 819">
<g data-name="Group 818">
<circle class="cls-5" cx=".649" cy=".649" r=".649" data-name="Ellipse 355"/>
</g>
</g>
<g transform="translate(4.461 4.583)" data-name="Group 821">
<g data-name="Group 820">
<path class="cls-5" transform="translate(-168.35 -70.325)" d="m169.57 70.447a0.688 0.688 0 1 1-0.973 0 1.021 1.021 0 0 1 0.973 0z" data-name="Path 815"/>
</g>
</g>
</g>
<g transform="translate(56.855 22.762)" data-name="Group 829">
<g data-name="Group 824">
<g data-name="Group 823">
<path class="cls-5" transform="translate(-190.2 -71.2)" d="M200.582,72.5h-9.733a.649.649,0,0,1,0-1.3h9.733a.7.7,0,0,1,.649.649A.594.594,0,0,1,200.582,72.5Z" data-name="Path 816"/>
</g>
</g>
<g transform="translate(0 19.141)" data-name="Group 826">
<g data-name="Group 825">
<path class="cls-5" transform="translate(-190.2 -83)" d="M200.582,84.3h-9.733a.649.649,0,0,1,0-1.3h9.733a.7.7,0,0,1,.649.649A.594.594,0,0,1,200.582,84.3Z" data-name="Path 817"/>
</g>
</g>
<g transform="translate(3.569 9.571)" data-name="Group 828">
<g data-name="Group 827">
<path class="cls-5" transform="translate(-192.4 -77.1)" d="M211.379,78.4h-18.33a.649.649,0,1,1,0-1.3h18.33a.7.7,0,0,1,.649.649C212.19,78.073,211.866,78.4,211.379,78.4Z" data-name="Path 818"/>
</g>
</g>
</g>
</g>
<g transform="translate(351.52 377.96)" data-name="Group 839">
<g data-name="Group 831">
<rect class="cls-6" transform="translate(.811 .811)" width="10.868" height="10.868" data-name="Rectangle 1506"/>
<path class="cls-7" transform="translate(-216.7 -233)" d="M229.19,245.49H216.7V233h12.49Zm-10.868-1.622h9.084v-9.084h-9.084Z" data-name="Path 819"/>
</g>
<g transform="translate(14.761 1.947)" data-name="Group 838">
<g transform="translate(.162)" data-name="Group 833">
<g data-name="Group 832">
<path class="cls-5" transform="translate(-225.9 -234.2)" d="M236.282,235.5h-9.733a.649.649,0,0,1,0-1.3h9.733a.649.649,0,1,1,0,1.3Z" data-name="Path 820"/>
</g>
</g>
<g transform="translate(0 7.462)" data-name="Group 835">
<g data-name="Group 834">
<path class="cls-5" transform="translate(-225.8 -238.8)" d="M240.075,240.1h-13.3c-.487,0-.973-.324-.973-.649s.487-.649.973-.649h13.3c.487,0,.973.324.973.649S240.561,240.1,240.075,240.1Z" data-name="Path 821"/>
</g>
</g>
<g transform="translate(.162 3.569)" data-name="Group 837">
<g data-name="Group 836">
<path class="cls-5" transform="translate(-225.9 -236.4)" d="M244.879,237.7h-18.33a.649.649,0,0,1,0-1.3h18.33a.649.649,0,0,1,0,1.3Z" data-name="Path 822"/>
</g>
</g>
</g>
</g>
<g transform="translate(91.326 218.99)" data-name="Group 848">
<g transform="translate(22.223)" data-name="Group 840">
<rect class="cls-6" transform="translate(11.49 11.589) rotate(180)" width="10.868" height="10.868" data-name="Rectangle 1507"/>
<path class="cls-7" transform="translate(-70 -135)" d="M82.49,147.49H70V135H82.49Zm-10.868-1.784h9.084v-9.084H71.622Z" data-name="Path 823"/>
</g>
<g transform="translate(0 1.947)" data-name="Group 847">
<g transform="translate(8.597)" data-name="Group 842">
<g data-name="Group 841">
<path class="cls-5" transform="translate(-61.6 -136.2)" d="M62.249,137.5h9.733a.649.649,0,1,0,0-1.3H62.249a.649.649,0,1,0,0,1.3Z" data-name="Path 824"/>
</g>
</g>
<g transform="translate(4.542 7.3)" data-name="Group 844">
<g data-name="Group 843">
<path class="cls-5" transform="translate(-59.1 -140.7)" d="M60.073,142h13.3c.487,0,.973-.324.973-.649s-.487-.649-.973-.649h-13.3c-.487,0-.973.324-.973.649A1.1,1.1,0,0,0,60.073,142Z" data-name="Path 825"/>
</g>
</g>
<g transform="translate(0 3.406)" data-name="Group 846">
<g data-name="Group 845">
<path class="cls-5" transform="translate(-56.3 -138.3)" d="M56.949,139.6h18.33a.649.649,0,1,0,0-1.3H56.949a.649.649,0,1,0,0,1.3Z" data-name="Path 826"/>
</g>
</g>
</g>
</g>
<g transform="translate(426.34 244.62)" data-name="Group 864">
<g transform="translate(18.452 15.897)" data-name="Group 849">
<rect class="cls-11" width="3.406" height="144.69" data-name="Rectangle 1508"/>
</g>
<g transform="translate(9.692)" data-name="Group 850">
<path class="cls-10" transform="translate(-268.8 -150.8)" d="m279.67 184.22h-0.811a10.108 10.108 0 0 1-10.057-10.057v-13.3a10.108 10.108 0 0 1 10.057-10.059h0.811a10.108 10.108 0 0 1 10.057 10.057v13.3a10.108 10.108 0 0 1-10.057 10.059z" data-name="Path 827"/>
</g>
<g transform="translate(33.23 22.385)" data-name="Group 852">
<g data-name="Group 851">
<path class="cls-11" transform="translate(-283.31 -164.6)" d="M283.78,165.9a27.51,27.51,0,0,1,3.569.649c.811.162,1.136-1.135.324-1.3a27.505,27.505,0,0,1-3.569-.649c-.811,0-1.135,1.135-.324,1.3Z" data-name="Path 828"/>
</g>
</g>
<g transform="translate(32.906 14.532)" data-name="Group 854">
<g data-name="Group 853">
<path class="cls-11" transform="translate(-283.11 -159.76)" d="M283.9,161.286a15.737,15.737,0,0,1,2.758-.162c.811,0,.811-1.135,0-1.3a9.861,9.861,0,0,0-3.082.162c-.811.162-.487,1.3.324,1.3Z" data-name="Path 829"/>
</g>
</g>
<g transform="translate(32.535 6.473)" data-name="Group 856">
<g data-name="Group 855">
<path class="cls-11" transform="translate(-282.88 -154.79)" d="M283.56,157.239a19.787,19.787,0,0,0,2.758-1.135.67.67,0,0,0-.324-1.3,19.788,19.788,0,0,0-2.758,1.135c-.649.487-.324,1.622.324,1.3Z" data-name="Path 830"/>
</g>
</g>
<g transform="translate(1.481 22.856)" data-name="Group 858">
<g data-name="Group 857">
<path class="cls-11" transform="translate(-263.74 -164.89)" d="M264.487,166.853a16.974,16.974,0,0,0,2.758-.649.67.67,0,0,0-.324-1.3,13.734,13.734,0,0,1-2.758.649.676.676,0,0,0,.324,1.3Z" data-name="Path 831"/>
</g>
</g>
<g transform="translate(0 14.437)" data-name="Group 860">
<g data-name="Group 859">
<path class="cls-11" transform="translate(-262.82 -159.7)" d="M263.433,161.16a12.348,12.348,0,0,1,3.406.487.67.67,0,0,0,.324-1.3,29.939,29.939,0,0,0-3.731-.649c-.811.162-.811,1.46,0,1.46Z" data-name="Path 832"/>
</g>
</g>
<g transform="translate(1.274 4.204)" data-name="Group 862">
<g data-name="Group 861">
<path class="cls-11" transform="translate(-263.61 -153.39)" d="M264.08,154.7a17.725,17.725,0,0,0,2.758.811c.811.324,1.136-.973.324-1.3a17.723,17.723,0,0,0-2.758-.811c-.811-.162-1.135,1.135-.324,1.3Z" data-name="Path 833"/>
</g>
</g>
<g transform="translate(12.288 143.23)" data-name="Group 863">
<path class="cls-5" transform="translate(-270.4 -239.1)" d="M270.4,258.4l2.271-19.3H283.7l2.433,18.979Z" data-name="Path 834"/>
</g>
</g>
<g transform="translate(83.54 303.06)" data-name="Group 933">
<g transform="translate(0 1.331)" data-name="Group 878">
<g transform="translate(4.195)" data-name="Group 867">
<g transform="translate(.498 1.198)" data-name="Group 865">
<path class="cls-3" transform="translate(-54.393 -188.38)" d="M96.093,197.332c-.487-3.082-2.6-11.031-7.462-8.435-7.786,4.055,1.622,19.466-7.786,22.223-.487-6.164-1.784-10.382-4.542-10.057-5.677.487-4.218,13.788-4.38,16.87-.162,2.92-.162,6-.324,9.084-6.813,1.135-5.353-16.384-9.571-18.817-6.326-3.731-7.786,4.7-7.624,8.6.324,6.651,2.109,14.6,8.273,18.006,2.109,1.135,5.677,2.433,8.435,2.271a81.9,81.9,0,0,0,1.135,15.572h.162l3.731.162h0a1.3,1.3,0,0,0,2.6,0c0-3.244,1.947-18.817,2.271-32.118,3.082.487,6.813-.973,8.922-2.6C96.58,213.391,97.229,204.631,96.093,197.332Z" data-name="Path 835"/>
</g>
<g data-name="Group 866">
<path class="cls-4" transform="translate(-54.086 -187.64)" d="M77.792,255.215a3.008,3.008,0,0,1-1.135-.324,2.91,2.91,0,0,1-.811-1.135l-2.758-.162h-.973l-.162-.649a79.823,79.823,0,0,1-1.135-14.924,17.766,17.766,0,0,1-8.111-2.433c-6.651-3.731-8.435-12.166-8.6-18.655-.162-2.6.487-7.948,3.406-9.733q2.19-1.217,5.353.487c1.947,1.135,2.758,4.7,3.569,8.922,1.135,5.677,2.271,9.733,4.866,9.733v-1.46c.162-2.433.162-4.7.324-7.137V215.8c-.162-5.191-.487-15.086,5.029-15.572a2.519,2.519,0,0,1,2.271.811c1.46,1.3,2.6,4.218,2.92,9.084,3.406-1.622,3.244-5.515,3.082-10.219s-.487-9.571,3.731-11.679a3.841,3.841,0,0,1,3.731-.162c3.406,1.784,4.542,8.435,4.7,9.246h0c.973,5.677,1.3,15.9-6.326,21.412a14.456,14.456,0,0,1-8.76,2.758c-.162,8.759-1.135,18.168-1.622,24.656-.324,3.244-.487,5.677-.487,6.813a1.629,1.629,0,0,1-.973,1.622C78.441,255.215,78.116,255.215,77.792,255.215Zm-4.542-2.92,4.055.162v.649a.711.711,0,0,0,.162.487.493.493,0,0,0,.649,0c.162-.162.324-.162.324-.487,0-1.135.162-3.569.487-6.813.649-6.489,1.46-16.546,1.622-25.305v-.811l.811.162c2.758.487,6.489-.973,8.435-2.433,6.975-5.191,6.651-14.761,5.677-19.952h0c-.324-2.271-1.622-6.975-3.893-8.111a2.6,2.6,0,0,0-2.433.162c-3.244,1.784-3.082,5.84-2.92,10.382.162,4.866.487,10.382-5.029,12l-.811.324V211.9c-.487-6.164-1.622-8.273-2.6-9.084a1.842,1.842,0,0,0-1.3-.487c-4.218.324-3.893,9.571-3.731,14.113v2.109c0,2.271-.162,4.7-.324,7.137l-.162,2.6-.487.162c-4.542.811-5.84-5.353-7.137-10.868-.811-3.569-1.46-7.137-2.92-7.948q-2.433-1.46-3.893-.487c-2.109,1.3-2.758,5.84-2.6,8.435.324,6,1.947,14.113,7.948,17.519a17.239,17.239,0,0,0,8.111,2.109h.811v.811A92.606,92.606,0,0,0,73.25,252.295Z" data-name="Path 836"/>
</g>
</g>
<g transform="translate(2.433 66.272)" data-name="Group 870">
<g data-name="Group 869">
<g data-name="Group 868">
<path class="cls-7" transform="translate(-53 -228.5)" d="M89.5,263.376H62.084a2.951,2.951,0,0,1-2.92-2.433L53,228.987l2.6-.487,6.164,31.956a.318.318,0,0,0,.324.324H89.5a.318.318,0,0,0,.324-.324L95.987,228.5l2.6.487-6.164,31.956A2.832,2.832,0,0,1,89.5,263.376Z" data-name="Path 837"/>
</g>
</g>
</g>
<g transform="translate(0 55.079)" data-name="Group 877">
<g transform="translate(.649 .649)" data-name="Group 873">
<g transform="translate(.649 .811)" data-name="Group 871">
<path class="cls-10" transform="translate(-52.3 -222.5)" d="M53.76,222.5H99.18c.811,0,1.46.811,1.46,1.947v6.975c0,.973-.649,1.947-1.46,1.947H53.76c-.811,0-1.46-.811-1.46-1.947v-6.975C52.3,223.311,52.949,222.5,53.76,222.5Z" data-name="Path 838"/>
</g>
<g data-name="Group 872">
<path class="cls-5" transform="translate(-51.9 -222)" d="M99.428,234.166H54.009a2.394,2.394,0,0,1-2.109-2.6V224.6a2.394,2.394,0,0,1,2.109-2.6h45.42a2.394,2.394,0,0,1,2.109,2.6v6.975A2.394,2.394,0,0,1,99.428,234.166ZM54.009,223.46c-.324,0-.649.487-.649,1.135v6.975c0,.649.324,1.135.649,1.135h45.42c.324,0,.649-.487.649-1.135V224.6c0-.649-.324-1.135-.649-1.135Z" data-name="Path 839"/>
</g>
</g>
<g data-name="Group 876">
<g transform="translate(.811 .973)" data-name="Group 874">
<path class="cls-10" transform="translate(-52 -222.2)" d="M99.366,234.042H53.947A2.218,2.218,0,0,1,52,231.608v-6.975a2.226,2.226,0,0,1,1.947-2.433h45.42a2.218,2.218,0,0,1,1.947,2.433v6.975A2.114,2.114,0,0,1,99.366,234.042Zm-45.42-10.706c-.324,0-.811.487-.811,1.3v6.975c0,.811.487,1.3.811,1.3h45.42c.324,0,.811-.487.811-1.3v-6.975c0-.811-.487-1.3-.811-1.3Z" data-name="Path 840"/>
</g>
<g data-name="Group 875">
<path class="cls-5" transform="translate(-51.5 -221.6)" d="M99.677,235.064H54.258a3.08,3.08,0,0,1-2.758-3.244v-6.975a3.08,3.08,0,0,1,2.758-3.244h45.42a3.08,3.08,0,0,1,2.758,3.244v6.975A3.08,3.08,0,0,1,99.677,235.064Zm-45.42-10.706a1.678,1.678,0,0,0-.162.649v6.975a1.678,1.678,0,0,0,.162.649h45.42a.948.948,0,0,0,.162-.649v-6.975a1.678,1.678,0,0,0-.162-.649Z" data-name="Path 841"/>
</g>
</g>
</g>
</g>
<g transform="translate(7.178 29.468)" data-name="Group 880">
<g data-name="Group 879">
<path class="cls-4" transform="translate(-55.925 -204.99)" d="M56.533,206.3c.811.162,1.46.162,2.271.324s.811-1.135,0-1.3-1.46-.162-2.271-.324-.811,1.135,0,1.3Z" data-name="Path 842"/>
</g>
</g>
<g transform="translate(11.031 20.277)" data-name="Group 882">
<g data-name="Group 881">
<path class="cls-4" transform="translate(-58.3 -199.32)" d="M58.3,199.933v1.135a.65.65,0,0,0,1.3,0v-1.135a.65.65,0,0,0-1.3,0Z" data-name="Path 843"/>
</g>
</g>
<g transform="translate(14.389 30.236)" data-name="Group 884">
<g data-name="Group 883">
<path class="cls-4" transform="translate(-60.37 -205.46)" d="M61.392,207.631c.487-.324,1.135-.649,1.622-.973.649-.324,0-1.46-.649-1.135-.487.324-1.135.649-1.622.973-.811.487-.162,1.46.649,1.135Z" data-name="Path 844"/>
</g>
</g>
<g transform="translate(8.004 44.125)" data-name="Group 886">
<g data-name="Group 885">
<path class="cls-4" transform="translate(-56.434 -214.03)" d="M57.352,216.741l1.947-1.46c.649-.487,0-1.622-.649-1.135l-1.947,1.46c-.649.487,0,1.622.649,1.135Z" data-name="Path 845"/>
</g>
</g>
<g transform="translate(3.748 34.659)" data-name="Group 888">
<g data-name="Group 887">
<path class="cls-4" transform="translate(-53.81 -208.19)" d="M54.28,209.5l1.46.487c.811.324,1.135-.973.324-1.3l-1.46-.487c-.811-.162-1.135,1.135-.324,1.3Z" data-name="Path 846"/>
</g>
</g>
<g transform="translate(12.671 40.513)" data-name="Group 890">
<g data-name="Group 889">
<path class="cls-4" transform="translate(-59.311 -211.8)" d="M59.942,213.26a.843.843,0,0,1,.649.324c.487.649,1.46-.324.811-.973a2.592,2.592,0,0,0-1.622-.811c-.649,0-.649,1.3.162,1.46Z" data-name="Path 847"/>
</g>
</g>
<g transform="translate(15.995 47.343)" data-name="Group 892">
<g data-name="Group 891">
<path class="cls-4" transform="translate(-61.361 -216.01)" d="M61.424,216.48a4.253,4.253,0,0,0,.324,2.433c.324.811,1.46.162,1.135-.649a2.29,2.29,0,0,1-.162-1.46c0-.811-1.135-1.135-1.3-.324Z" data-name="Path 848"/>
</g>
</g>
<g transform="translate(22.24 46.823)" data-name="Group 894">
<g data-name="Group 893">
<path class="cls-4" transform="translate(-65.21 -215.69)" d="M65.68,217c.324.162.811.162,1.135.324a.67.67,0,0,0,.324-1.3c-.324-.162-.811-.162-1.135-.324a.67.67,0,0,0-.324,1.3Z" data-name="Path 849"/>
</g>
</g>
<g transform="translate(26.765 35.016)" data-name="Group 896">
<g data-name="Group 895">
<path class="cls-4" transform="translate(-68 -208.41)" d="M68,209.042a2.066,2.066,0,0,0,.811,1.784.694.694,0,0,0,.973-.973c-.324-.324-.487-.487-.324-.973-.162-.649-1.46-.649-1.46.162Z" data-name="Path 850"/>
</g>
</g>
<g transform="translate(24.755 26.424)" data-name="Group 898">
<g data-name="Group 897">
<path class="cls-4" transform="translate(-66.761 -203.12)" d="M67.149,203.415a1.886,1.886,0,0,0-.324,1.622c.162.811,1.3.487,1.3-.324,0-.324,0-.487.162-.649a.655.655,0,0,0-1.135-.649Z" data-name="Path 851"/>
</g>
</g>
<g transform="translate(31.956 29.685)" data-name="Group 900">
<g data-name="Group 899">
<path class="cls-4" transform="translate(-71.2 -205.12)" d="M71.2,205.733v1.135a.65.65,0,0,0,1.3,0v-1.135a.65.65,0,0,0-1.3,0Z" data-name="Path 852"/>
</g>
</g>
<g transform="translate(20.008 27.146)" data-name="Group 902">
<g data-name="Group 901">
<path class="cls-4" transform="translate(-63.834 -203.56)" d="M64.1,204.76c.324.162.487.324.811.487.649.487,1.3-.649.649-1.135-.324-.162-.487-.324-.811-.487a.659.659,0,0,0-.649,1.135Z" data-name="Path 853"/>
</g>
</g>
<g transform="translate(22.235 16.846)" data-name="Group 904">
<g data-name="Group 903">
<path class="cls-4" transform="translate(-65.207 -197.21)" d="M65.358,198.329a1.192,1.192,0,0,1,.324.973.65.65,0,0,0,1.3,0,2.6,2.6,0,0,0-.811-1.784c-.487-.811-1.3.162-.811.811Z" data-name="Path 854"/>
</g>
</g>
<g transform="translate(25.63 13.464)" data-name="Group 906">
<g data-name="Group 905">
<path class="cls-4" transform="translate(-67.3 -195.12)" d="M67.3,195.733v1.622a.65.65,0,0,0,1.3,0v-1.622a.65.65,0,0,0-1.3,0Z" data-name="Path 855"/>
</g>
</g>
<g transform="translate(33.2 20.412)" data-name="Group 908">
<g data-name="Group 907">
<path class="cls-4" transform="translate(-71.967 -199.41)" d="M72.183,200.53a2.24,2.24,0,0,1,.487.649c.487.649,1.46-.324.811-.973a2.24,2.24,0,0,1-.487-.649c-.487-.487-1.46.324-.811.973Z" data-name="Path 856"/>
</g>
</g>
<g transform="translate(34.105 12.612)" data-name="Group 910">
<g data-name="Group 909">
<path class="cls-4" transform="translate(-72.525 -194.6)" d="M73.133,195.9a5.519,5.519,0,0,1,1.622.162c.811,0,.811-1.135,0-1.3a5.518,5.518,0,0,1-1.622-.162.65.65,0,0,0,0,1.3Z" data-name="Path 857"/>
</g>
</g>
<g transform="translate(36.282 2.747)" data-name="Group 912">
<g data-name="Group 911">
<path class="cls-4" transform="translate(-73.867 -188.52)" d="M74.083,189.624l1.135,1.135c.649.649,1.46-.324.811-.973l-1.135-1.135c-.487-.487-1.46.487-.811.973Z" data-name="Path 858"/>
</g>
</g>
<g transform="translate(41.364)" data-name="Group 914">
<g data-name="Group 913">
<path class="cls-4" transform="translate(-77 -186.82)" d="M77,187.433v1.947a.65.65,0,0,0,1.3,0v-1.947c-.162-.811-1.3-.811-1.3,0Z" data-name="Path 859"/>
</g>
</g>
<g transform="translate(42.381 10.721)" data-name="Group 916">
<g data-name="Group 915">
<path class="cls-4" transform="translate(-77.627 -193.43)" d="M78.881,195.163c.162-.324.324-.487.487-.811.487-.649-.649-1.3-1.135-.649-.162.324-.324.487-.487.811-.487.649.649,1.3,1.135.649Z" data-name="Path 860"/>
</g>
</g>
<g transform="translate(38.578 22.978)" data-name="Group 918">
<g data-name="Group 917">
<path class="cls-4" transform="translate(-75.282 -200.99)" d="M75.96,202.79l1.46-.487a.67.67,0,0,0-.324-1.3l-1.46.487c-.649.487-.324,1.622.324,1.3Z" data-name="Path 861"/>
</g>
</g>
<g transform="translate(44.139 21.358)" data-name="Group 920">
<g data-name="Group 919">
<path class="cls-4" transform="translate(-78.71 -199.99)" d="M79.5,201.628c.487-.162.973-.162,1.46-.324.811-.162.487-1.46-.324-1.3-.487.162-.973.162-1.46.324a.67.67,0,0,0,.324,1.3Z" data-name="Path 862"/>
</g>
</g>
<g transform="translate(41.364 28.387)" data-name="Group 922">
<g data-name="Group 921">
<path class="cls-4" transform="translate(-77 -204.32)" d="M77,204.933v.324a.65.65,0,0,0,1.3,0v-.324c-.162-.811-1.3-.811-1.3,0Z" data-name="Path 863"/>
</g>
</g>
<g transform="translate(29.578 46.558)" data-name="Group 924">
<g data-name="Group 923">
<path class="cls-4" transform="translate(-69.734 -215.53)" d="M70.652,217.268c.324-.162.487-.324.811-.487.649-.487,0-1.622-.649-1.135-.324.162-.487.324-.811.487-.649.487,0,1.622.649,1.135Z" data-name="Path 864"/>
</g>
</g>
<g transform="translate(28.658 50.556)" data-name="Group 926">
<g data-name="Group 925">
<path class="cls-4" transform="translate(-69.167 -217.99)" d="M70.194,220.276a3.2,3.2,0,0,1,1.784-.973c.811-.162.487-1.46-.324-1.3a4.624,4.624,0,0,0-2.271,1.3c-.649.649.324,1.622.811.973Z" data-name="Path 865"/>
</g>
</g>
<g transform="translate(24.437 52.734)" data-name="Group 928">
<g data-name="Group 927">
<path class="cls-4" transform="translate(-66.564 -219.33)" d="M66.622,220.252c.162.162.162.324.324.487.324.649,1.46.162,1.135-.649-.162-.162-.162-.324-.324-.487-.324-.649-1.46,0-1.135.649Z" data-name="Path 866"/>
</g>
</g>
<g transform="translate(19.417 53.757)" data-name="Group 930">
<g data-name="Group 929">
<path class="cls-4" transform="translate(-63.47 -219.96)" d="M63.843,221.158a3.243,3.243,0,0,0,2.109.324c.811-.162.487-1.3-.324-1.3a1.333,1.333,0,0,1-1.135-.162c-.811-.324-1.46.811-.649,1.135Z" data-name="Path 867"/>
</g>
</g>
<g transform="translate(29.563 41.486)" data-name="Group 932">
<g data-name="Group 931">
<path class="cls-4" transform="translate(-69.725 -212.4)" d="M70.333,214.022c.811-.162,1.622-.162,2.6-.324.811-.162.811-1.3,0-1.3-.811.162-1.622.162-2.6.324-.811.162-.811,1.3,0,1.3Z" data-name="Path 868"/>
</g>
</g>
</g>
<g transform="translate(219.16 236.68)" data-name="Group 940">
<g transform="translate(3.893 13.808)" data-name="Group 935">
<g data-name="Group 934">
<path class="cls-12" transform="translate(-137.5 -154.42)" d="M141.066,194.781c13.626-12.328,27.09-24.494,40.716-36.822,1.947-1.784-.973-4.866-2.92-2.92-13.626,12.328-27.09,24.494-40.716,36.822-1.947,1.784.973,4.7,2.92,2.92Z" data-name="Path 869"/>
</g>
</g>
<g transform="translate(49.962 32.625)" data-name="Group 937">
<g data-name="Group 936">
<path class="cls-12" transform="translate(-165.9 -166.02)" d="M169.466,206.381c13.626-12.328,27.09-24.494,40.716-36.822,1.947-1.784-.973-4.866-2.92-2.92-13.626,12.328-27.09,24.494-40.716,36.822-1.947,1.784.973,4.7,2.92,2.92Z" data-name="Path 870"/>
</g>
</g>
<g data-name="Group 939">
<g data-name="Group 938">
<path class="cls-12" transform="translate(-135.1 -145.9)" d="m138.67 232.68c28.387-27.738 56.937-55.477 85.324-83.215a2.065 2.065 0 1 0-2.92-2.92c-28.387 27.738-56.937 55.477-85.324 83.215a2.065 2.065 0 1 0 2.92 2.92z" data-name="Path 871"/>
</g>
</g>
</g>
<g transform="translate(279.73)" data-name="Group 1110">
<g data-name="Group 1109">
<g transform="translate(65.131 64.561)" data-name="Group 947">
<g transform="translate(6.489)" data-name="Group 942">
<g data-name="Group 941">
<rect class="cls-7" width="1.784" height="117.44" data-name="Rectangle 1509"/>
</g>
</g>
<g transform="translate(0 110.14)" data-name="Group 944">
<g data-name="Group 943">
<path class="cls-7" transform="translate(-212.6 -107.7)" d="m227.52 115.16a7.462 7.462 0 1 1-7.462-7.462 7.442 7.442 0 0 1 7.462 7.462z" data-name="Path 872"/>
</g>
</g>
<g transform="translate(1.298 123.28)" data-name="Group 946">
<g data-name="Group 945">
<path class="cls-7" transform="translate(-213.4 -115.8)" d="M219.564,135.1a6.13,6.13,0,0,1-6.164-6.651.973.973,0,0,1,1.947,0,5.85,5.85,0,0,0,1.135,3.569,5.311,5.311,0,0,0,2.92,1.3,5.029,5.029,0,1,0,0-10.057,1.047,1.047,0,0,1-.973-.973v-5.515a.973.973,0,0,1,1.947,0v4.542a7.007,7.007,0,0,1,6,6.975c.324,3.731-2.92,6.813-6.813,6.813Z" data-name="Path 873"/>
</g>
</g>
</g>
<g transform="translate(0 203.9)" data-name="Group 957">
<g transform="translate(32.689 .007)" data-name="Group 949">
<g data-name="Group 948">
<path class="cls-7" transform="translate(-192.6 -125.7)" d="M193.411,133.486c-.324,0-.649-.324-.811-.811a.908.908,0,0,1,.811-.973l40.391-6a.9.9,0,1,1,.162,1.784l-40.391,6Z" data-name="Path 874"/>
</g>
</g>
<g transform="translate(73.073)" data-name="Group 951">
<g data-name="Group 950">
<path class="cls-7" transform="translate(-217.5 -125.7)" d="M255.46,146.952c-.162,0-.162,0-.324-.162l-37.147-19.3a.946.946,0,1,1,.973-1.622l37.147,19.3a.85.85,0,0,1,.324,1.3C256.109,146.79,255.785,147.115,255.46,146.952Z" data-name="Path 875"/>
</g>
</g>
<g transform="translate(0 4.567)" data-name="Group 952">
<path class="cls-6" transform="translate(-172.03 -128.07)" d="m279.98 222.29-98.95-17.194a9.659 9.659 0 0 1-7.786-11.031l9.9-56.937a9.659 9.659 0 0 1 11.031-7.786l98.95 17.195a9.659 9.659 0 0 1 7.786 11.031l-9.9 56.937a9.659 9.659 0 0 1-11.031 7.785z" data-name="Path 876"/>
<path class="cls-7" transform="translate(-172.45 -128.51)" d="m281.7 224.04a7.9 7.9 0 0 1-1.947-0.162l-98.139-17.032a10.638 10.638 0 0 1-7.137-4.542 10.088 10.088 0 0 1-1.784-8.273l9.733-56.288a11.177 11.177 0 0 1 12.815-9.084l98.139 17.032a10.638 10.638 0 0 1 7.137 4.542 10.8 10.8 0 0 1 1.947 8.273l-9.733 56.288a11.128 11.128 0 0 1-11.031 9.246zm-88.4-92.948a8.525 8.525 0 0 0-8.435 7.137l-9.733 56.288a9.225 9.225 0 0 0 1.46 6.489 8.528 8.528 0 0 0 5.515 3.569l98.135 17.028a8.5 8.5 0 0 0 9.9-6.975l9.733-56.288a9.225 9.225 0 0 0-1.46-6.489 8.528 8.528 0 0 0-5.515-3.569l-98.139-17.032a4.492 4.492 0 0 0-1.461-0.158z" data-name="Path 877"/>
</g>
<g transform="translate(5.662 10.618)" data-name="Group 953">
<path class="cls-10" transform="translate(-175.55 -131.67)" d="m277.04 213.68-95.381-16.546a6.276 6.276 0 0 1-5.029-6.975l9.084-51.908a6.276 6.276 0 0 1 6.975-5.029l95.381 16.546a6.276 6.276 0 0 1 5.029 6.975l-9.084 51.908a5.978 5.978 0 0 1-6.975 5.029z" data-name="Path 878"/>
<path class="cls-5" transform="translate(-175.94 -132.24)" d="M278.394,215.552a3.571,3.571,0,0,1-1.3-.162L182.2,198.844a7.515,7.515,0,0,1-4.866-3.082,7.84,7.84,0,0,1-1.3-5.677L184.96,138.5a7.674,7.674,0,0,1,8.759-6.164l94.895,16.546a7.674,7.674,0,0,1,6.164,8.76l-8.922,51.584a7.736,7.736,0,0,1-7.462,6.326Zm-.973-2.6a5.115,5.115,0,0,0,3.731-.811,5.457,5.457,0,0,0,2.109-3.244l8.922-51.584a5,5,0,0,0-4.055-5.84l-94.895-16.546a5,5,0,0,0-5.84,4.055l-8.922,51.584a5.115,5.115,0,0,0,.811,3.731,5.457,5.457,0,0,0,3.244,2.109Z" data-name="Path 879"/>
</g>
<g transform="translate(60.265 60.674)" data-name="Group 954">
<path class="cls-6" transform="translate(-208.92 -162.54)" d="M210.7,186.548,235.356,164l13.626,29.361Z" data-name="Path 880"/>
<path class="cls-7" transform="translate(-209.6 -163.1)" d="m251.13 194.89-41.527-7.3 26.765-24.494zm-37.958-8.273 35.038 6.164-12.49-26.765z" data-name="Path 881"/>
</g>
<g transform="translate(11.439 34.882)" data-name="Group 955">
<path class="cls-6" transform="translate(-178.82 -146.7)" d="M180.6,188.067,224.235,148l24.332,51.908Z" data-name="Path 882"/>
<path class="cls-7" transform="translate(-179.5 -147.2)" d="m250.71 201.54-71.212-12.328 45.906-42.013zm-67.643-13.464 64.723 11.193-23.034-49.47z" data-name="Path 883"/>
</g>
<g transform="translate(96.014 35.574)" data-name="Group 956">
<path class="cls-6" transform="translate(-231.38 -147.23)" d="m244.29 155.46a6.174 6.174 0 1 1-12.166-2.109 6.174 6.174 0 1 1 12.166 2.109z" data-name="Path 884"/>
<path class="cls-7" transform="translate(-231.64 -147.63)" d="m238.55 161.7a2.76 2.76 0 0 1-1.135-0.162 7 7 0 0 1-2.758-12.653 6.573 6.573 0 0 1 5.191-1.135 7 7 0 0 1 4.542 2.92 6.573 6.573 0 0 1 1.135 5.191 7 7 0 0 1-2.92 4.542 6.369 6.369 0 0 1-4.055 1.297zm0-12.166a5.341 5.341 0 0 0-3.082 0.973 4.8 4.8 0 0 0-2.109 3.406 5.362 5.362 0 0 0 0.811 3.893 4.8 4.8 0 0 0 3.406 2.109 5.362 5.362 0 0 0 3.893-0.811 4.8 4.8 0 0 0 2.109-3.406 5.348 5.348 0 0 0-4.218-6.164z" data-name="Path 885"/>
</g>
</g>
<g transform="translate(56.534 60.668)" data-name="Group 959">
<g data-name="Group 958">
<rect class="cls-10" width="91.65" height="10.057" data-name="Rectangle 1510"/>
</g>
</g>
<g transform="translate(90.988)" data-name="Group 1108">
<g data-name="Group 1086">
<g data-name="Group 1071">
<g transform="translate(106.35)" data-name="Group 1032">
<g transform="translate(0 .162)" data-name="Group 961">
<g data-name="Group 960">
<path class="cls-7" transform="translate(-294.1 -.1)" d="M324.6,269.212H294.1V.1h30.5Zm-27.414-3.082h24.494V3.02H297.182Z" data-name="Path 886"/>
</g>
</g>
<g transform="translate(.487)" data-name="Group 968">
<g data-name="Group 963">
<g data-name="Group 962">
<path class="cls-7" transform="translate(-294.4)" d="M324.085,29.685H294.4V0h29.685Zm-26.6-3.082H321V3.082H297.482Z" data-name="Path 887"/>
</g>
</g>
<g transform="translate(.387 .387)" data-name="Group 965">
<g data-name="Group 964">
<rect class="cls-7" transform="translate(0 2.179) rotate(-45)" width="3.082" height="37.633" data-name="Rectangle 1511"/>
</g>
</g>
<g transform="translate(.388 .502)" data-name="Group 967">
<g data-name="Group 966">
<rect class="cls-7" transform="translate(0 26.611) rotate(-45)" width="37.633" height="3.082" data-name="Rectangle 1512"/>
</g>
</g>
</g>
<g transform="translate(.487 26.603)" data-name="Group 975">
<g data-name="Group 970">
<g data-name="Group 969">
<path class="cls-7" transform="translate(-294.4 -16.4)" d="M324.085,46.085H294.4V16.4h29.685ZM297.482,43H321V19.482H297.482Z" data-name="Path 888"/>
</g>
</g>
<g transform="translate(.486 .509)" data-name="Group 972">
<g data-name="Group 971">
<rect class="cls-7" transform="translate(0 2.179) rotate(-45)" width="3.082" height="37.633" data-name="Rectangle 1513"/>
</g>
</g>
<g transform="translate(.371 .509)" data-name="Group 974">
<g data-name="Group 973">
<rect class="cls-7" transform="translate(0 26.611) rotate(-45)" width="37.633" height="3.082" data-name="Rectangle 1514"/>
</g>
</g>
</g>
<g transform="translate(.487 53.206)" data-name="Group 982">
<g data-name="Group 977">
<g data-name="Group 976">
<path class="cls-7" transform="translate(-294.4 -32.8)" d="M324.085,62.485H294.4V32.8h29.685Zm-26.6-3.082H321V35.882H297.482Z" data-name="Path 889"/>
</g>
</g>
<g transform="translate(.468 .513)" data-name="Group 979">
<g data-name="Group 978">
<rect class="cls-7" transform="translate(0 2.179) rotate(-45)" width="3.082" height="37.633" data-name="Rectangle 1515"/>
</g>
</g>
<g transform="translate(.366 .531)" data-name="Group 981">
<g data-name="Group 980">
<rect class="cls-7" transform="translate(0 26.611) rotate(-45)" width="37.633" height="3.082" data-name="Rectangle 1516"/>
</g>
</g>
</g>
<g transform="translate(.487 79.809)" data-name="Group 989">
<g data-name="Group 984">
<g data-name="Group 983">
<path class="cls-7" transform="translate(-294.4 -49.2)" d="M324.085,78.885H294.4V49.2h29.685Zm-26.6-2.92H321V52.282H297.482Z" data-name="Path 890"/>
</g>
</g>
<g transform="translate(.452 .521)" data-name="Group 986">
<g data-name="Group 985">
<rect class="cls-7" transform="translate(0 2.179) rotate(-45)" width="3.082" height="37.633" data-name="Rectangle 1517"/>
</g>
</g>
<g transform="translate(.338 .522)" data-name="Group 988">
<g data-name="Group 987">
<rect class="cls-7" transform="translate(0 26.611) rotate(-45)" width="37.633" height="3.082" data-name="Rectangle 1518"/>
</g>
</g>
</g>
<g transform="translate(.487 106.57)" data-name="Group 996">
<g data-name="Group 991">
<g data-name="Group 990">
<path class="cls-7" transform="translate(-294.4 -65.7)" d="M324.085,95.385H294.4V65.7h29.685Zm-26.6-3.082H321V68.62H297.482Z" data-name="Path 891"/>
</g>
</g>
<g transform="translate(.436 .367)" data-name="Group 993">
<g data-name="Group 992">
<rect class="cls-7" transform="translate(0 2.179) rotate(-45)" width="3.082" height="37.633" data-name="Rectangle 1519"/>
</g>
</g>
<g transform="translate(.446 .498)" data-name="Group 995">
<g data-name="Group 994">
<rect class="cls-7" transform="translate(0 26.611) rotate(-45)" width="37.633" height="3.082" data-name="Rectangle 1520"/>
</g>
</g>
</g>
<g transform="translate(.487 133.18)" data-name="Group 1003">
<g data-name="Group 998">
<g data-name="Group 997">
<path class="cls-7" transform="translate(-294.4 -82.1)" d="M324.085,111.785H294.4V82.1h29.685Zm-26.6-3.082H321V85.182H297.482Z" data-name="Path 892"/>
</g>
</g>
<g transform="translate(.418 .37)" data-name="Group 1000">
<g data-name="Group 999">
<rect class="cls-7" transform="translate(0 2.179) rotate(-45)" width="3.082" height="37.633" data-name="Rectangle 1521"/>
</g>
</g>
<g transform="translate(.429 .505)" data-name="Group 1002">
<g data-name="Group 1001">
<rect class="cls-7" transform="translate(0 26.611) rotate(-45)" width="37.633" height="3.082" data-name="Rectangle 1522"/>
</g>
</g>
</g>
<g transform="translate(.487 159.78)" data-name="Group 1010">
<g data-name="Group 1005">
<g data-name="Group 1004">
<path class="cls-7" transform="translate(-294.4 -98.5)" d="M324.085,128.185H294.4V98.5h29.685Zm-26.6-3.082H321V101.582H297.482Z" data-name="Path 893"/>
</g>
</g>
<g transform="translate(.403 .38)" data-name="Group 1007">
<g data-name="Group 1006">
<rect class="cls-7" transform="translate(0 2.179) rotate(-45)" width="3.082" height="37.633" data-name="Rectangle 1523"/>
</g>
</g>
<g transform="translate(.412 .512)" data-name="Group 1009">
<g data-name="Group 1008">
<rect class="cls-7" transform="translate(0 26.611) rotate(-45)" width="37.633" height="3.082" data-name="Rectangle 1524"/>
</g>
</g>
</g>
<g transform="translate(.487 186.38)" data-name="Group 1017">
<g data-name="Group 1012">
<g data-name="Group 1011">
<path class="cls-7" transform="translate(-294.4 -114.9)" d="M324.085,144.585H294.4V114.9h29.685Zm-26.6-3.082H321V117.982H297.482Z" data-name="Path 894"/>
</g>
</g>
<g transform="translate(.386 .385)" data-name="Group 1014">
<g data-name="Group 1013">
<rect class="cls-7" transform="translate(0 2.179) rotate(-45)" width="3.082" height="37.633" data-name="Rectangle 1525"/>
</g>
</g>
<g transform="translate(.394 .52)" data-name="Group 1016">
<g data-name="Group 1015">
<rect class="cls-7" transform="translate(0 26.611) rotate(-45)" width="37.633" height="3.082" data-name="Rectangle 1526"/>
</g>
</g>
</g>
<g transform="translate(.487 212.99)" data-name="Group 1024">
<g data-name="Group 1019">
<g data-name="Group 1018">
<path class="cls-7" transform="translate(-294.4 -131.3)" d="M324.085,160.985H294.4V131.3h29.685Zm-26.6-3.082H321V134.382H297.482Z" data-name="Path 895"/>
</g>
</g>
<g transform="translate(.485 .508)" data-name="Group 1021">
<g data-name="Group 1020">
<rect class="cls-7" transform="translate(0 2.179) rotate(-45)" width="3.082" height="37.633" data-name="Rectangle 1527"/>
</g>
</g>
<g transform="translate(.377 .527)" data-name="Group 1023">
<g data-name="Group 1022">
<rect class="cls-7" transform="translate(0 26.611) rotate(-45)" width="37.633" height="3.082" data-name="Rectangle 1528"/>
</g>
</g>
</g>
<g transform="translate(.487 239.59)" data-name="Group 1031">
<g data-name="Group 1026">
<g data-name="Group 1025">
<path class="cls-7" transform="translate(-294.4 -147.7)" d="M324.085,177.385H294.4V147.7h29.685Zm-26.6-3.082H321V150.782H297.482Z" data-name="Path 896"/>
</g>
</g>
<g transform="translate(.467 .509)" data-name="Group 1028">
<g data-name="Group 1027">
<rect class="cls-7" transform="translate(0 2.179) rotate(-45)" width="3.082" height="37.633" data-name="Rectangle 1529"/>
</g>
</g>
<g transform="translate(.344 .491)" data-name="Group 1030">
<g data-name="Group 1029">
<rect class="cls-7" transform="matrix(.707 -.707 .707 .707 0 26.607)" width="37.633" height="3.082" data-name="Rectangle 1530"/>
</g>
</g>
</g>
</g>
<g transform="translate(0 26.279)" data-name="Group 1070">
<g transform="translate(159.88)" data-name="Group 1039">
<g data-name="Group 1034">
<g data-name="Group 1033">
<path class="cls-7" transform="translate(-327.1 -16.2)" d="M356.785,45.885H327.1V16.2h29.685ZM330.02,42.8h23.521V19.12H330.02Z" data-name="Path 897"/>
</g>
</g>
<g transform="translate(.425 .46)" data-name="Group 1036">
<g data-name="Group 1035">
<rect class="cls-7" transform="matrix(.707 -.707 .707 .707 0 26.614)" width="37.633" height="3.082" data-name="Rectangle 1531"/>
</g>
</g>
<g transform="translate(.406 .326)" data-name="Group 1038">
<g data-name="Group 1037">
<rect class="cls-7" transform="translate(0 2.179) rotate(-45)" width="3.082" height="37.633" data-name="Rectangle 1532"/>
</g>
</g>
</g>
<g transform="translate(133.11)" data-name="Group 1046">
<g data-name="Group 1041">
<g data-name="Group 1040">
<path class="cls-7" transform="translate(-310.6 -16.2)" d="M340.285,45.885H310.6V16.2h29.685Zm-26.6-3.082H337.2V19.12H313.682Z" data-name="Path 898"/>
</g>
</g>
<g transform="translate(.58 .443)" data-name="Group 1043">
<g data-name="Group 1042">
<rect class="cls-7" transform="matrix(.707 -.707 .707 .707 0 26.614)" width="37.633" height="3.082" data-name="Rectangle 1533"/>
</g>
</g>
<g transform="translate(.561 .309)" data-name="Group 1045">
<g data-name="Group 1044">
<rect class="cls-7" transform="translate(0 2.179) rotate(-45)" width="3.082" height="37.633" data-name="Rectangle 1534"/>
</g>
</g>
</g>
<g transform="translate(106.51)" data-name="Group 1048">
<g data-name="Group 1047">
<path class="cls-7" transform="translate(-294.2 -16.2)" d="M323.885,45.885H294.2V16.2h29.685Zm-26.6-3.082H320.8V19.12H297.282Z" data-name="Path 899"/>
</g>
</g>
<g transform="translate(79.906)" data-name="Group 1055">
<g data-name="Group 1050">
<g data-name="Group 1049">
<path class="cls-7" transform="translate(-277.8 -16.2)" d="M307.485,45.885H277.8V16.2h29.685Zm-26.6-3.082H304.4V19.12H280.882Z" data-name="Path 900"/>
</g>
</g>
<g transform="translate(.549 .393)" data-name="Group 1052">
<g data-name="Group 1051">
<rect class="cls-7" transform="translate(0 26.611) rotate(-45)" width="37.633" height="3.082" data-name="Rectangle 1535"/>
</g>
</g>
<g transform="translate(.433 .391)" data-name="Group 1054">
<g data-name="Group 1053">
<rect class="cls-7" transform="translate(0 2.179) rotate(-45)" width="3.082" height="37.633" data-name="Rectangle 1536"/>
</g>
</g>
</g>
<g transform="translate(53.303)" data-name="Group 1062">
<g data-name="Group 1057">
<g data-name="Group 1056">
<path class="cls-7" transform="translate(-261.4 -16.2)" d="M291.085,45.885H261.4V16.2h29.685Zm-26.6-3.082H288V19.12H264.482Z" data-name="Path 901"/>
</g>
</g>
<g transform="translate(.427 .49)" data-name="Group 1059">
<g data-name="Group 1058">
<rect class="cls-7" transform="translate(0 26.611) rotate(-45)" width="37.633" height="3.082" data-name="Rectangle 1537"/>
</g>
</g>
<g transform="translate(.429 .377)" data-name="Group 1061">
<g data-name="Group 1060">
<rect class="cls-7" transform="translate(0 2.179) rotate(-45)" width="3.082" height="37.633" data-name="Rectangle 1538"/>
</g>
</g>
</g>
<g data-name="Group 1069">
<g transform="translate(26.7)" data-name="Group 1064">
<g data-name="Group 1063">
<path class="cls-7" transform="translate(-245 -16.2)" d="M274.685,45.885H245V16.2h29.685Zm-26.6-3.082H271.6V19.12H248.082Z" data-name="Path 902"/>
</g>
</g>
<g transform="translate(0 .487)" data-name="Group 1066">
<g data-name="Group 1065">
<path class="cls-7" transform="translate(-228.54 -16.5)" d="M256.7,45.7H230.1a1.559,1.559,0,0,1-1.46-.973c-.162-.649-.162-1.3.324-1.622l26.6-26.6,2.109,2.109L233.666,42.616h22.385L282.168,16.5l2.109,2.109-26.6,26.6A.981.981,0,0,1,256.7,45.7Z" data-name="Path 903"/>
</g>
</g>
<g transform="translate(27.12 .358)" data-name="Group 1068">
<g data-name="Group 1067">
<rect class="cls-7" transform="translate(0 2.179) rotate(-45)" width="3.082" height="37.633" data-name="Rectangle 1539"/>
</g>
</g>
</g>
</g>
</g>
<g transform="translate(106.51 269.27)" data-name="Group 1078">
<g data-name="Group 1073">
<g data-name="Group 1072">
<path class="cls-7" transform="translate(-294.2 -166)" d="M324.7,195.685H294.2V166h30.5ZM297.282,192.6h24.17V169.082h-24.17Z" data-name="Path 904"/>
</g>
</g>
<g transform="translate(.324 .487)" data-name="Group 1075">
<g data-name="Group 1074">
<path class="cls-7" transform="translate(-294.4 -166.3)" d="m321.81 195.01-27.414-26.6 2.271-2.109 27.414 26.6z" data-name="Path 905"/>
</g>
</g>
<g transform="translate(.324 .487)" data-name="Group 1077">
<g data-name="Group 1076">
<path class="cls-7" transform="translate(-294.4 -166.3)" d="m296.67 195.01-2.271-2.112 27.414-26.6 2.271 2.109z" data-name="Path 906"/>
</g>
</g>
</g>
<g transform="translate(106.51 375.85)" data-name="Group 1085">
<g data-name="Group 1080">
<g data-name="Group 1079">
<path class="cls-7" transform="translate(-294.2 -231.7)" d="M324.7,261.385H294.2V231.7h30.5ZM297.282,258.3h24.17V234.782h-24.17Z" data-name="Path 907"/>
</g>
</g>
<g transform="translate(.324 .324)" data-name="Group 1082">
<g data-name="Group 1081">
<path class="cls-7" transform="translate(-294.4 -231.9)" d="m321.81 260.77-27.414-26.6 2.271-2.271 27.414 26.6z" data-name="Path 908"/>
</g>
</g>
<g transform="translate(.324 .324)" data-name="Group 1084">
<g data-name="Group 1083">
<path class="cls-7" transform="translate(-294.4 -231.9)" d="m296.67 260.77-2.271-2.274 27.414-26.6 2.271 2.271z" data-name="Path 909"/>
</g>
</g>
</g>
</g>
<g transform="translate(106.51 293.44)" data-name="Group 1093">
<g data-name="Group 1088">
<g data-name="Group 1087">
<path class="cls-7" transform="translate(-294.2 -180.9)" d="M324.7,210.585H294.2V180.9h30.5ZM297.282,207.5h24.17V183.982h-24.17Z" data-name="Path 910"/>
</g>
</g>
<g transform="translate(.324 .324)" data-name="Group 1090">
<g data-name="Group 1089">
<path class="cls-7" transform="translate(-294.4 -181.1)" d="m321.81 209.97-27.414-26.6 2.271-2.271 27.414 26.765z" data-name="Path 911"/>
</g>
</g>
<g transform="translate(.324 .324)" data-name="Group 1092">
<g data-name="Group 1091">
<path class="cls-7" transform="translate(-294.4 -181.1)" d="m296.67 209.97-2.271-2.109 27.414-26.765 2.271 2.271z" data-name="Path 912"/>
</g>
</g>
</g>
<g transform="translate(106.51 320.05)" data-name="Group 1100">
<g data-name="Group 1095">
<g data-name="Group 1094">
<path class="cls-7" transform="translate(-294.2 -197.3)" d="M324.7,226.985H294.2V197.3h30.5ZM297.282,223.9h24.17V200.382h-24.17Z" data-name="Path 913"/>
</g>
</g>
<g transform="translate(.324 .487)" data-name="Group 1097">
<g data-name="Group 1096">
<path class="cls-7" transform="translate(-294.4 -197.6)" d="m321.81 226.31-27.414-26.6 2.271-2.109 27.414 26.6z" data-name="Path 914"/>
</g>
</g>
<g transform="translate(.324 .487)" data-name="Group 1099">
<g data-name="Group 1098">
<path class="cls-7" transform="translate(-294.4 -197.6)" d="m296.67 226.31-2.271-2.112 27.414-26.6 2.271 2.109z" data-name="Path 915"/>
</g>
</g>
</g>
<g transform="translate(106.51 346.65)" data-name="Group 1107">
<g data-name="Group 1102">
<g data-name="Group 1101">
<path class="cls-7" transform="translate(-294.2 -213.7)" d="M324.7,243.385H294.2V213.7h30.5ZM297.282,240.3h24.17V216.782h-24.17Z" data-name="Path 916"/>
</g>
</g>
<g transform="translate(.324 .487)" data-name="Group 1104">
<g data-name="Group 1103">
<path class="cls-7" transform="translate(-294.4 -214)" d="m321.81 242.71-27.414-26.6 2.271-2.112 27.414 26.6z" data-name="Path 917"/>
</g>
</g>
<g transform="translate(.324 .487)" data-name="Group 1106">
<g data-name="Group 1105">
<path class="cls-7" transform="translate(-294.4 -214)" d="m296.67 242.71-2.271-2.112 27.414-26.6 2.271 2.109z" data-name="Path 918"/>
</g>
</g>
</g>
</g>
</g>
</g>
<g transform="translate(164.81 156.53)" data-name="Group 1112">
<path class="cls-5" transform="translate(-100.67 -95.563)" d="m103.1 98" data-name="Path 919"/>
<g data-name="Group 1111">
<path class="cls-5" transform="translate(-101.6 -96.498)" d="m104.03 101.53c3.244 0 3.244-5.029 0-5.029-3.244-0.162-3.244 5.029 0 5.029z" data-name="Path 920"/>
</g>
</g>
<g transform="translate(438.46 103.81)" data-name="Group 1114">
<path class="cls-5" transform="translate(-269.37 -63.063)" d="m271.8 65.5" data-name="Path 921"/>
<g data-name="Group 1113">
<path class="cls-5" transform="translate(-270.3 -63.998)" d="m272.73 69.03c3.244 0 3.244-5.029 0-5.029-3.244-0.162-3.244 5.029 0 5.029z" data-name="Path 922"/>
</g>
</g>
<g transform="translate(551.52 284.2)" data-name="Group 1116">
<path class="cls-5" transform="translate(-339 -174.2)" d="m341.6 176.8h1.135" data-name="Path 923"/>
<g data-name="Group 1115">
<path class="cls-5" transform="translate(-340 -175.2)" d="m342.6 180.39h1.135a2.6 2.6 0 0 0 0-5.191h-1.135a2.668 2.668 0 0 0-2.6 2.6 2.787 2.787 0 0 0 2.6 2.6z" data-name="Path 924"/>
</g>
</g>
<g transform="translate(65.048 321.34)" data-name="Group 1118">
<path class="cls-5" transform="translate(-39.167 -197.17)" d="m41.6 199.6" data-name="Path 925"/>
<g data-name="Group 1117">
<path class="cls-5" transform="translate(-40.1 -198.1)" d="m42.533 203.13c3.244 0 3.244-5.029 0-5.029s-3.244 5.029 0 5.029z" data-name="Path 926"/>
</g>
</g>
<g transform="translate(306.1 78.998)" data-name="Group 1120">
<path class="cls-5" transform="translate(-187.77 -47.705)" d="m190.2 50.3" data-name="Path 927"/>
<g data-name="Group 1119">
<path class="cls-5" transform="translate(-188.7 -48.7)" d="m191.13 53.729c3.244 0 3.244-5.029 0-5.029s-3.244 5.029 0 5.029z" data-name="Path 928"/>
</g>
</g>
</g>
</g>
</svg>
