<svg width="150" height="109" viewBox="0 0 150 109" fill="none" xmlns="http://www.w3.org/2000/svg">
<path d="M146 0H4C1.79086 0 0 1.79086 0 4V105C0 107.209 1.79086 109 4 109H146C148.209 109 150 107.209 150 105V4C150 1.79086 148.209 0 146 0Z" fill="#1E1E1E"/>
<g opacity="0.5">
<mask id="mask0" mask-type="alpha" maskUnits="userSpaceOnUse" x="4" y="8" width="142" height="101">
<rect x="4.94434" y="9.22021" width="140.111" height="98.6696" rx="2.5" fill="white" stroke="#D7DAE2"/>
</mask>
<g mask="url(#mask0)">
<rect x="59.9805" y="49.8286" width="30.9775" height="45.1433" rx="3.5" fill="#3E3837" stroke="#92929C"/>
<path d="M59.9434 53.0498C59.9434 51.1168 61.5104 49.5498 63.4434 49.5498H87.6656C89.5986 49.5498 91.1656 51.1168 91.1656 53.0498V79.0698H59.9434V53.0498Z" fill="#92929C" stroke="#92929C"/>
<rect x="63.71" y="84.3979" width="14.1111" height="1.84573" rx="0.922867" fill="#92929C"/>
<rect x="63.71" y="88.0913" width="10.3481" height="1.84573" rx="0.922867" fill="#92929C"/>
<rect x="22.8174" y="49.8291" width="30.9775" height="45.1433" rx="3.5" fill="#3E3837" stroke="#92929C"/>
<path d="M22.8174 53.3291C22.8174 51.3961 24.3844 49.8291 26.3174 49.8291H50.3026C52.2356 49.8291 53.8026 51.3961 53.8026 53.3291V79.2837H22.8174V53.3291Z" fill="#92929C" stroke="#92929C"/>
<rect x="27.0215" y="84.3979" width="14.1111" height="1.84573" rx="0.922867" fill="#92929C"/>
<rect x="27.0205" y="88.0918" width="10.3481" height="1.84573" rx="0.922867" fill="#92929C"/>
<rect x="97.1426" y="49.8286" width="30.9775" height="44.3743" rx="3.5" fill="#3E3837" stroke="#92929C"/>
<path d="M97.1357 53.3286C97.1357 51.3956 98.7027 49.8286 100.636 49.8286H124.621C126.554 49.8286 128.121 51.3956 128.121 53.3286V79.2832H97.1357V53.3286Z" fill="#92929C" stroke="#92929C"/>
<rect x="101.34" y="84.3979" width="14.1111" height="1.84573" rx="0.922867" fill="#92929C"/>
<rect x="101.34" y="88.0913" width="10.3481" height="1.84573" rx="0.922867" fill="#92929C"/>
<line x1="135.206" y1="37.8306" x2="13.8505" y2="37.8306" stroke="#D7DAE2"/>
<rect x="14.3525" y="15.6792" width="17.8148" height="17.4573" rx="3.5" fill="#3E3837" stroke="#92929C"/>
<rect x="121.096" y="21.6401" width="14.1111" height="5.5372" rx="2" fill="#92929C"/>
<rect x="38.3096" y="17.9512" width="23.5185" height="1.84573" rx="0.922867" fill="#D7DAE2"/>
<rect x="38.3096" y="23.4883" width="15.0519" height="1.84573" rx="0.922867" fill="#D7DAE2"/>
<rect x="38.3096" y="17.9512" width="23.5185" height="1.84573" rx="0.922867" fill="#92929C"/>
<rect x="38.3096" y="23.4883" width="15.0519" height="1.84573" rx="0.922867" fill="#92929C"/>
<rect x="38.3105" y="29.0234" width="17.8741" height="1.84573" rx="0.922867" fill="#92929C"/>
<path d="M14.4492 70.2803C14.291 70.4385 14.291 70.7021 14.4492 70.8604L17.8594 74.2881C18.0352 74.4463 18.2988 74.4463 18.457 74.2881L18.8613 73.8838C19.0195 73.7256 19.0195 73.4619 18.8613 73.2861L16.1543 70.5615L18.8613 67.8545C19.0195 67.6787 19.0195 67.415 18.8613 67.2568L18.457 66.8525C18.2988 66.6943 18.0352 66.6943 17.8594 66.8525L14.4492 70.2803Z" fill="#92929C"/>
<path d="M137.395 70.8604C137.553 70.7021 137.553 70.4385 137.395 70.2803L133.984 66.8525C133.809 66.6943 133.545 66.6943 133.387 66.8525L132.982 67.2568C132.824 67.415 132.824 67.6787 132.982 67.8545L135.689 70.5615L132.982 73.2861C132.824 73.4619 132.824 73.7256 132.982 73.8838L133.387 74.2881C133.545 74.4463 133.809 74.4463 133.984 74.2881L137.395 70.8604Z" fill="#92929C"/>
</g>
</g>
</svg>
