<svg width="152" height="111" viewBox="0 0 152 111" fill="none" xmlns="http://www.w3.org/2000/svg">
<rect x="0.5" y="0.5" width="151" height="110" rx="3.5" fill="white" stroke="#FF881B"/>
<g opacity="0.5">
<rect x="10" y="11" width="20" height="20" rx="4" fill="#FF881B"/>
<rect x="10.5" y="49.5" width="59" height="6" rx="1.5" fill="white" stroke="#FF881B"/>
<rect x="10.5" y="62.5" width="128" height="21" rx="1.5" fill="white" stroke="#FF881B"/>
<rect x="79.5" y="49.5" width="59" height="6" rx="1.5" fill="white" stroke="#FF881B"/>
<rect x="124" y="18" width="15" height="6" rx="2" fill="#FF881B"/>
<rect x="10" y="89" width="23" height="6" rx="2" fill="#FF881B"/>
<rect x="36" y="14" width="25" height="2" rx="1" fill="#FF881B"/>
<rect x="36" y="20" width="16" height="2" rx="1" fill="#FF881B"/>
<rect x="36" y="26" width="19" height="2" rx="1" fill="#FF881B"/>
<line x1="139" y1="38.5" x2="10" y2="38.5" stroke="#FF881B"/>
<line x1="139" y1="100.5" x2="10" y2="100.5" stroke="#FF881B"/>
</g>
</svg>
