<svg width="150" height="109" viewBox="0 0 150 109" fill="none" xmlns="http://www.w3.org/2000/svg">
<rect x="0.5" y="0.5" width="149" height="108" rx="2.5" fill="white" stroke="#D7DAE2"/>
<rect x="9.5" y="10.5" width="19" height="19" rx="3.5" fill="#D7DAE2" stroke="#D7DAE2"/>
<rect x="9.5" y="48.5" width="59" height="6" rx="1.5" fill="white" stroke="#D7DAE2"/>
<rect x="9.5" y="61.5" width="128" height="21" rx="1.5" fill="white" stroke="#D7DAE2"/>
<rect x="78.5" y="48.5" width="59" height="6" rx="1.5" fill="white" stroke="#D7DAE2"/>
<rect x="123" y="17" width="15" height="6" rx="2" fill="#D7DAE2"/>
<rect x="9" y="88" width="23" height="6" rx="2" fill="#D7DAE2"/>
<rect x="35" y="13" width="25" height="2" rx="1" fill="#D7DAE2"/>
<rect x="35" y="19" width="16" height="2" rx="1" fill="#D7DAE2"/>
<rect x="35" y="25" width="19" height="2" rx="1" fill="#D7DAE2"/>
<line x1="138" y1="37.5" x2="9" y2="37.5" stroke="#D7DAE2"/>
<line x1="138" y1="99.5" x2="9" y2="99.5" stroke="#D7DAE2"/>
</svg>
