<svg width="152" height="111" viewBox="0 0 152 111" fill="none" xmlns="http://www.w3.org/2000/svg">
<rect x="0.5" y="0.5" width="151" height="110" rx="3.5" fill="white" stroke="#D7DAE2"/>
<g opacity="0.5">
<mask id="mask0" mask-type="alpha" maskUnits="userSpaceOnUse" x="1" y="1" width="150" height="109">
<rect x="1.5" y="1.5" width="149" height="108" rx="2.5" fill="white" stroke="#D7DAE2"/>
</mask>
<g mask="url(#mask0)">
<rect x="10.5" y="40.5" width="36.3044" height="45" rx="3.5" fill="white" stroke="#D7DAE2"/>
<path d="M10 44C10 41.7909 11.7909 40 14 40H43.3044C45.5135 40 47.3044 41.7909 47.3044 44V69H10V44Z" fill="#D7DAE2"/>
<rect x="56.8477" y="40.5" width="36.3044" height="30" rx="3.5" fill="white" stroke="#D7DAE2"/>
<rect x="10.5" y="91.5" width="36.3044" height="30" rx="3.5" fill="white" stroke="#D7DAE2"/>
<rect x="103.5" y="91.5" width="36.3044" height="30" rx="3.5" fill="white" stroke="#D7DAE2"/>
<line x1="140" y1="32.5" x2="11" y2="32.5" stroke="#D7DAE2"/>
<rect x="11.5" y="8.5" width="19" height="19" rx="3.5" stroke="#D7DAE2"/>
<rect x="125" y="15" width="15" height="6" rx="2" fill="#D7DAE2"/>
<rect x="37" y="11" width="25" height="2" rx="1" fill="#FF881B"/>
<rect x="37" y="17" width="16" height="2" rx="1" fill="#FF881B"/>
<rect x="37" y="11" width="25" height="2" rx="1" fill="#D7DAE2"/>
<rect x="37" y="17" width="16" height="2" rx="1" fill="#D7DAE2"/>
<rect x="37" y="23" width="19" height="2" rx="1" fill="#D7DAE2"/>
<rect x="103.5" y="40.5" width="36.3044" height="45" rx="3.5" fill="white" stroke="#D7DAE2"/>
<path d="M103 44C103 41.7909 104.791 40 107 40H136.304C138.514 40 140.304 41.7909 140.304 44V69H103V44Z" fill="#D7DAE2"/>
<rect x="57.5" y="77.5" width="36.3044" height="45" rx="3.5" fill="white" stroke="#D7DAE2"/>
<path d="M57.5 81C57.5 79.067 59.067 77.5 61 77.5H90.3044C92.2374 77.5 93.8044 79.067 93.8044 81V105.5H57.5V81Z" fill="#D7DAE2" stroke="#D7DAE2"/>
</g>
</g>
</svg>
