<?xml version="1.0" encoding="utf-8"?>
<!-- Generator: Adobe Illustrator 19.0.0, SVG Export Plug-In . SVG Version: 6.00 Build 0)  -->
<svg version="1.1" id="Layer_1" xmlns="http://www.w3.org/2000/svg" xmlns:xlink="http://www.w3.org/1999/xlink" x="0px" y="0px"
	 viewBox="15 45 150 109" style="enable-background:new 15 45 150 109;" xml:space="preserve">
<style type="text/css">
	.st0{fill:#1E1E1E;}
	.st1{opacity:0.5;}
	.st2{fill:#FFFFFF;filter:url(#Adobe_OpacityMaskFilter);stroke:#D7DAE2;}
	.st3{mask:url(#mask0);}
	.st4{fill:#3E3837;stroke:#92929C;}
	.st5{fill:#92929C;}
	.st6{fill:none;stroke:#92929C;}
	.st7{fill:#FF881B;}
</style>
<g>
	<path class="st0" d="M161,45H19c-2.2,0-4,1.8-4,4v101c0,2.2,1.8,4,4,4h142c2.2,0,4-1.8,4-4V49C165,46.8,163.2,45,161,45z"/>
</g>
<g class="st1">
	<defs>
		<filter id="Adobe_OpacityMaskFilter" filterUnits="userSpaceOnUse" x="28.9" y="60.1" width="120.7" height="104.5">
			<feColorMatrix  type="matrix" values="1 0 0 0 0  0 1 0 0 0  0 0 1 0 0  0 0 0 1 0"/>
		</filter>
	</defs>
	<mask maskUnits="userSpaceOnUse" x="28.9" y="60.1" width="120.7" height="104.5" id="mask0">
		<path class="st2" d="M23.6,54.2h132.9c1.4,0,2.5,1.1,2.5,2.5v93.3c0,1.4-1.1,2.5-2.5,2.5H23.6c-1.4,0-2.5-1.1-2.5-2.5V56.7
			C21.1,55.3,22.2,54.2,23.6,54.2z"/>
	</mask>
	<g class="st3">
		<path class="st4" d="M32.9,89.6h26.5c1.9,0,3.5,1.6,3.5,3.5v33.8c0,1.9-1.6,3.5-3.5,3.5H32.9c-1.9,0-3.5-1.6-3.5-3.5V93.1
			C29.4,91.2,31,89.6,32.9,89.6z"/>
		<path class="st5" d="M28.9,93.1c0-2.2,1.8-4,4-4h26.5c2.2,0,4,1.8,4,4v22.3H28.9V93.1z"/>
		<path class="st4" d="M75.8,89.6h26.5c1.9,0,3.5,1.6,3.5,3.5v20.2c0,1.9-1.6,3.5-3.5,3.5H75.8c-1.9,0-3.5-1.6-3.5-3.5V93.1
			C72.3,91.2,73.9,89.6,75.8,89.6z"/>
		<path class="st4" d="M32.9,136h26.5c1.9,0,3.5,1.6,3.5,3.5v20.2c0,1.9-1.6,3.5-3.5,3.5H32.9c-1.9,0-3.5-1.6-3.5-3.5v-20.2
			C29.4,137.5,31,136,32.9,136z"/>
		<path class="st4" d="M119,136h26.5c1.9,0,3.5,1.6,3.5,3.5v20.2c0,1.9-1.6,3.5-3.5,3.5H119c-1.9,0-3.5-1.6-3.5-3.5v-20.2
			C115.5,137.5,117.1,136,119,136z"/>
		<line class="st6" x1="149.3" y1="82.4" x2="29.8" y2="82.4"/>
		<path class="st4" d="M33.8,60.6h10.5c1.9,0,3.5,1.6,3.5,3.5v10.2c0,1.9-1.6,3.5-3.5,3.5H33.8c-1.9,0-3.5-1.6-3.5-3.5V64.1
			C30.3,62.1,31.9,60.6,33.8,60.6z"/>
		<path class="st5" d="M137.4,66.4h9.9c1.1,0,2,0.9,2,2v1.4c0,1.1-0.9,2-2,2h-9.9c-1.1,0-2-0.9-2-2v-1.4
			C135.4,67.3,136.3,66.4,137.4,66.4z"/>
		<path class="st7" d="M54.8,62.8h21.3c0.5,0,0.9,0.4,0.9,0.9v0c0,0.5-0.4,0.9-0.9,0.9H54.8c-0.5,0-0.9-0.4-0.9-0.9v0
			C53.9,63.2,54.3,62.8,54.8,62.8z"/>
		<path class="st7" d="M54.8,68.3h13c0.5,0,0.9,0.4,0.9,0.9l0,0c0,0.5-0.4,0.9-0.9,0.9h-13c-0.5,0-0.9-0.4-0.9-0.9l0,0
			C53.9,68.7,54.3,68.3,54.8,68.3z"/>
		<path class="st5" d="M54.8,62.8h21.3c0.5,0,0.9,0.4,0.9,0.9v0c0,0.5-0.4,0.9-0.9,0.9H54.8c-0.5,0-0.9-0.4-0.9-0.9v0
			C53.9,63.2,54.3,62.8,54.8,62.8z"/>
		<path class="st5" d="M54.8,68.3h13c0.5,0,0.9,0.4,0.9,0.9l0,0c0,0.5-0.4,0.9-0.9,0.9h-13c-0.5,0-0.9-0.4-0.9-0.9l0,0
			C53.9,68.7,54.3,68.3,54.8,68.3z"/>
		<path class="st5" d="M54.8,73.7h15.8c0.5,0,0.9,0.4,0.9,0.9v0c0,0.5-0.4,0.9-0.9,0.9H54.8c-0.5,0-0.9-0.4-0.9-0.9v0
			C53.9,74.1,54.3,73.7,54.8,73.7z"/>
		<path class="st4" d="M118.4,90.2H145c1.9,0,3.5,1.6,3.5,3.5v33.8c0,1.9-1.6,3.5-3.5,3.5h-26.5c-1.9,0-3.5-1.6-3.5-3.5V93.7
			C114.9,91.8,116.5,90.2,118.4,90.2z"/>
		<path class="st5" d="M114.4,93.7c0-2.2,1.8-4,4-4H145c2.2,0,4,1.8,4,4V116h-34.5V93.7z"/>
		<path class="st4" d="M76.4,123.3h26.5c1.9,0,3.5,1.6,3.5,3.5v33.8c0,1.9-1.6,3.5-3.5,3.5H76.4c-1.9,0-3.5-1.6-3.5-3.5v-33.8
			C72.9,124.8,74.5,123.3,76.4,123.3z"/>
		<path class="st5" d="M72.4,126.8c0-2.2,1.8-4,4-4h26.5c2.2,0,4,1.8,4,4v22.3H72.4V126.8z"/>
	</g>
</g>
</svg>
