<svg width="152" height="111" viewBox="0 0 152 111" fill="none" xmlns="http://www.w3.org/2000/svg">
<rect x="0.5" y="0.5" width="151" height="110" rx="3.5" fill="white" stroke="#FF881B"/>
<g opacity="0.5">
<mask id="mask0" mask-type="alpha" maskUnits="userSpaceOnUse" x="1" y="1" width="150" height="108">
<rect x="1.5" y="1.5" width="149" height="107" rx="2.5" fill="white" stroke="#D7DAE2"/>
</mask>
<g mask="url(#mask0)">
<rect x="52.5" y="11.5" width="87" height="23" rx="3.5" fill="white" stroke="#FF881B"/>
<rect x="52.5" y="40.5" width="87" height="32" rx="3.5" fill="white" stroke="#FF881B"/>
<rect x="52.5" y="78.5" width="87" height="23" rx="3.5" fill="white" stroke="#FF881B"/>
<rect x="11.5" y="10.5" width="13" height="13" rx="3.5" fill="white" stroke="#FF881B"/>
<rect x="11" y="49" width="15" height="6" rx="2" fill="#FF881B"/>
<rect x="11" y="28" width="25" height="2" rx="1" fill="#FF881B"/>
<rect x="11" y="34" width="16" height="2" rx="1" fill="#FF881B"/>
<rect x="11" y="40" width="19" height="2" rx="1" fill="#FF881B"/>
<rect x="58" y="58" width="10" height="10" rx="2" fill="#FF881B"/>
<rect x="58" y="88" width="10" height="10" rx="2" fill="#FF881B"/>
<rect x="98" y="27" width="36" height="3" rx="1.5" fill="#FF881B"/>
<rect x="98" y="64" width="36" height="3" rx="1.5" fill="#FF881B"/>
<rect x="98" y="94" width="36" height="3" rx="1.5" fill="#FF881B"/>
<rect x="70" y="58" width="10" height="10" rx="2" fill="#FF881B"/>
</g>
</g>
</svg>
