<?xml version="1.0" encoding="utf-8"?>
<!-- Generator: Adobe Illustrator 19.0.0, SVG Export Plug-In . SVG Version: 6.00 Build 0)  -->
<svg version="1.1" id="Layer_1" xmlns="http://www.w3.org/2000/svg" xmlns:xlink="http://www.w3.org/1999/xlink" x="0px" y="0px"
	 viewBox="15 45 150 109" style="enable-background:new 15 45 150 109;" xml:space="preserve">
<style type="text/css">
	.st0{fill:#1E1E1E;}
	.st1{opacity:0.5;}
	.st2{fill:#3E3837;stroke:#92929C;}
	.st3{fill:#92929C;}
</style>
<g>
	<path class="st0" d="M161,45H19c-2.2,0-4,1.8-4,4v101c0,2.2,1.8,4,4,4h142c2.2,0,4-1.8,4-4V49C165,46.8,163.2,45,161,45z"/>
</g>
<g class="st1">
	<path class="st2" d="M69.8,54.5h82.6c1.9,0,3.5,1.6,3.5,3.5v16.2c0,1.9-1.6,3.5-3.5,3.5H69.8c-1.9,0-3.5-1.6-3.5-3.5V58
		C66.3,56.1,67.9,54.5,69.8,54.5z"/>
	<path class="st2" d="M69.8,83.8h82.6c1.9,0,3.5,1.6,3.5,3.5v25.3c0,1.9-1.6,3.5-3.5,3.5H69.8c-1.9,0-3.5-1.6-3.5-3.5V87.3
		C66.3,85.4,67.9,83.8,69.8,83.8z"/>
	<path class="st2" d="M69.8,122.2h82.6c1.9,0,3.5,1.6,3.5,3.5v16.2c0,1.9-1.6,3.5-3.5,3.5H69.8c-1.9,0-3.5-1.6-3.5-3.5v-16.2
		C66.3,123.8,67.9,122.2,69.8,122.2z"/>
	<path class="st2" d="M27.6,53.5H34c1.9,0,3.5,1.6,3.5,3.5v6.1c0,1.9-1.6,3.5-3.5,3.5h-6.4c-1.9,0-3.5-1.6-3.5-3.5V57
		C24.1,55.1,25.7,53.5,27.6,53.5z"/>
	<path class="st3" d="M25.6,92.4h11.4c1.1,0,2,0.9,2,2v2.1c0,1.1-0.9,2-2,2H25.6c-1.1,0-2-0.9-2-2v-2.1
		C23.6,93.3,24.5,92.4,25.6,92.4z"/>
	<path class="st3" d="M24.6,71.2h23.7c0.6,0,1,0.5,1,1v0c0,0.6-0.5,1-1,1H24.6c-0.6,0-1-0.5-1-1v0C23.6,71.6,24.1,71.2,24.6,71.2z"
		/>
	<path class="st3" d="M24.6,77.2h14.5c0.6,0,1,0.5,1,1v0c0,0.6-0.5,1-1,1H24.6c-0.6,0-1-0.5-1-1v0C23.6,77.7,24.1,77.2,24.6,77.2z"
		/>
	<path class="st3" d="M24.6,83.3h17.5c0.6,0,1,0.5,1,1l0,0c0,0.6-0.5,1-1,1H24.6c-0.6,0-1-0.5-1-1l0,0
		C23.6,83.8,24.1,83.3,24.6,83.3z"/>
	<path class="st3" d="M74,101.5h6.3c1.1,0,2,0.9,2,2v6.1c0,1.1-0.9,2-2,2H74c-1.1,0-2-0.9-2-2v-6.1C72,102.4,72.9,101.5,74,101.5z"
		/>
	<path class="st3" d="M74,131.8h6.3c1.1,0,2,0.9,2,2v6.1c0,1.1-0.9,2-2,2H74c-1.1,0-2-0.9-2-2v-6.1C72,132.7,72.9,131.8,74,131.8z"
		/>
	<path class="st3" d="M114.7,70.2h34c0.8,0,1.5,0.7,1.5,1.5v0c0,0.8-0.7,1.5-1.5,1.5h-34c-0.8,0-1.5-0.7-1.5-1.5v0
		C113.2,70.9,113.9,70.2,114.7,70.2z"/>
	<path class="st3" d="M114.7,107.5h34c0.8,0,1.5,0.7,1.5,1.5l0,0c0,0.8-0.7,1.5-1.5,1.5h-34c-0.8,0-1.5-0.7-1.5-1.5l0,0
		C113.2,108.2,113.9,107.5,114.7,107.5z"/>
	<path class="st3" d="M114.7,137.9h34c0.8,0,1.5,0.7,1.5,1.5l0,0c0,0.8-0.7,1.5-1.5,1.5h-34c-0.8,0-1.5-0.7-1.5-1.5l0,0
		C113.2,138.5,113.9,137.9,114.7,137.9z"/>
	<path class="st3" d="M86.4,101.5h6.3c1.1,0,2,0.9,2,2v6.1c0,1.1-0.9,2-2,2h-6.3c-1.1,0-2-0.9-2-2v-6.1
		C84.4,102.4,85.3,101.5,86.4,101.5z"/>
</g>
</svg>
