<svg width="150" height="109" viewBox="0 0 150 109" fill="none" xmlns="http://www.w3.org/2000/svg">
<rect x="0.5" y="0.5" width="149" height="108" rx="2.5" fill="white" stroke="#D7DAE2"/>
<mask id="mask0" mask-type="alpha" maskUnits="userSpaceOnUse" x="0" y="0" width="150" height="108">
<rect x="0.5" y="0.5" width="149" height="107" rx="2.5" fill="white" stroke="#D7DAE2"/>
</mask>
<g mask="url(#mask0)">
<rect x="51.5" y="10.5" width="87" height="23" rx="3.5" fill="white" stroke="#D7DAE2"/>
<rect x="51.5" y="39.5" width="87" height="32" rx="3.5" fill="white" stroke="#D7DAE2"/>
<rect x="51.5" y="77.5" width="87" height="23" rx="3.5" fill="white" stroke="#D7DAE2"/>
<rect x="10.5" y="9.5" width="13" height="13" rx="3.5" fill="white" stroke="#D7DAE2"/>
<rect x="10" y="48" width="15" height="6" rx="2" fill="#D7DAE2"/>
<rect x="10" y="27" width="25" height="2" rx="1" fill="#D7DAE2"/>
<rect x="10" y="33" width="16" height="2" rx="1" fill="#D7DAE2"/>
<rect x="10" y="27" width="25" height="2" rx="1" fill="#D7DAE2"/>
<rect x="10" y="33" width="16" height="2" rx="1" fill="#D7DAE2"/>
<rect x="10" y="39" width="19" height="2" rx="1" fill="#D7DAE2"/>
<rect x="57" y="57" width="10" height="10" rx="2" fill="#D7DAE2"/>
<rect x="57" y="87" width="10" height="10" rx="2" fill="#D7DAE2"/>
<rect x="97" y="26" width="36" height="3" rx="1.5" fill="#D7DAE2"/>
<rect x="97" y="63" width="36" height="3" rx="1.5" fill="#D7DAE2"/>
<rect x="97" y="93" width="36" height="3" rx="1.5" fill="#D7DAE2"/>
<rect x="69" y="57" width="10" height="10" rx="2" fill="#D7DAE2"/>
</g>
</svg>
