<svg width="150" height="109" viewBox="0 0 150 109" fill="none" xmlns="http://www.w3.org/2000/svg">
<rect x="0.5" y="0.5" width="149" height="108" rx="2.5" fill="#F0F0F7" stroke="#D7DAE2"/>
<mask id="mask0" mask-type="alpha" maskUnits="userSpaceOnUse" x="15" y="1" width="115" height="107">
<rect x="15.5" y="1.5" width="114" height="106" rx="2.5" fill="white" stroke="#D7DAE2"/>
</mask>
<g mask="url(#mask0)">
<rect x="23" width="103" height="109" fill="white"/>
<line x1="117" y1="31.5" x2="33" y2="31.5" stroke="#D7DAE2"/>
<rect x="32.5" y="7.5" width="19" height="19" rx="3.5" fill="white" stroke="#D7DAE2"/>
<rect x="102" y="14" width="15" height="6" rx="2" fill="#D7DAE2"/>
<rect x="58" y="10" width="25" height="2" rx="1" fill="#D7DAE2"/>
<rect x="58" y="16" width="16" height="2" rx="1" fill="#D7DAE2"/>
<rect x="58" y="22" width="19" height="2" rx="1" fill="#D7DAE2"/>
<rect x="32.5" y="38.5" width="84.3044" height="45" rx="3.5" fill="white" stroke="#D7DAE2"/>
<path d="M32 42C32 39.7909 33.7909 38 36 38H113.304C115.514 38 117.304 39.7909 117.304 42V67H32V42Z" fill="#D7DAE2"/>
<rect x="32.5" y="90.5" width="84.3044" height="45" rx="3.5" fill="white" stroke="#D7DAE2"/>
</g>
</svg>
