<svg width="104" height="104" viewBox="0 0 104 104" fill="none" xmlns="http://www.w3.org/2000/svg">
<g filter="url(#filter0_d)">
<path d="M52 93C75.7482 93 95 73.7482 95 50C95 26.2518 75.7482 7 52 7C28.2518 7 9 26.2518 9 50C9 73.7482 28.2518 93 52 93Z" fill="url(#paint0_linear)"/>
</g>
<path d="M26.3136 47.486C26.6811 43.773 27.8423 40.1843 29.7173 36.9662C31.5923 33.7482 34.1366 30.9773 37.1755 28.8437C40.2144 26.7102 43.6759 25.2647 47.322 24.6065C50.9681 23.9483 54.7124 24.0931 58.2977 25.0308C61.883 25.9686 65.2242 27.6771 68.0918 30.039C70.9595 32.4009 73.2855 35.3602 74.9101 38.7135C76.5347 42.0668 77.4194 45.7347 77.5034 49.4651C77.5873 53.1954 76.8686 56.8999 75.3965 60.324C75.1648 60.9669 75.1297 61.6651 75.2955 62.3284C75.9938 64.7354 76.7889 67.0428 77.4873 69.4498C78.2824 71.8547 77.5861 72.6577 75.0978 72.3568C72.5085 72.0559 69.9171 71.6661 67.3299 71.4542C66.7056 71.3825 66.0754 71.5235 65.5399 71.8547C60.397 75.0665 54.3061 76.3787 48.3089 75.5668C42.0222 74.6601 36.2895 71.446 32.2117 66.5416C28.1338 61.6372 25.9981 55.3882 26.2147 48.9946C26.2147 48.5856 26.3136 48.0835 26.3136 47.486ZM58.075 39.8581C57.4148 39.8396 56.7814 39.591 56.2829 39.1547C54.3898 37.3516 52.7071 35.4446 50.814 33.6457C49.2196 32.0418 48.0249 32.3405 47.1288 34.4488C46.2328 36.7562 45.4461 39.1611 44.4407 41.5681C44.097 42.207 43.5709 42.7273 42.9305 43.0618C40.6398 43.9644 38.2525 44.7569 35.9619 45.5684C33.8711 46.3714 33.5724 47.5749 35.1647 49.2806C37.1566 51.3867 39.2474 53.3911 41.2372 55.599C41.6566 56.0768 41.933 56.6645 42.0344 57.294C42.3331 59.8006 42.6318 62.3093 42.8316 64.8159C43.0314 67.1233 44.2261 67.725 46.216 66.6211C48.6096 65.2333 51.0012 63.7289 53.4895 62.3432C54.1242 61.9771 54.85 61.8028 55.5803 61.841C58.2685 62.0423 60.9566 62.4428 63.6448 62.8454C66.3329 63.2479 67.1301 62.2436 66.3329 59.6353C65.6367 57.3279 64.8395 55.1222 64.2421 52.8169C64.0253 52.1589 64.0613 51.4429 64.3431 50.8104C65.2391 48.1025 66.3329 45.3947 67.3299 42.7864C68.1271 40.4811 67.4288 39.4789 65.4369 39.5785C62.755 39.5785 60.3614 39.7713 58.075 39.8709V39.8581Z" fill="white"/>
<defs>
<filter id="filter0_d" x="0" y="0" width="104" height="104" filterUnits="userSpaceOnUse" color-interpolation-filters="sRGB">
<feFlood flood-opacity="0" result="BackgroundImageFix"/>
<feColorMatrix in="SourceAlpha" type="matrix" values="0 0 0 0 0 0 0 0 0 0 0 0 0 0 0 0 0 0 127 0"/>
<feOffset dy="2"/>
<feGaussianBlur stdDeviation="4.5"/>
<feColorMatrix type="matrix" values="0 0 0 0 1 0 0 0 0 0.533333 0 0 0 0 0.105882 0 0 0 0.3 0"/>
<feBlend mode="normal" in2="BackgroundImageFix" result="effect1_dropShadow"/>
<feBlend mode="normal" in="SourceGraphic" in2="effect1_dropShadow" result="shape"/>
</filter>
<linearGradient id="paint0_linear" x1="67.05" y1="84.4" x2="41" y2="26.5" gradientUnits="userSpaceOnUse">
<stop stop-color="#FF881B"/>
<stop offset="1" stop-color="#FEB524"/>
</linearGradient>
</defs>
</svg>
