<?xml version="1.0" encoding="utf-8"?>
<!-- Generator: Adobe Illustrator 19.0.0, SVG Export Plug-In . SVG Version: 6.00 Build 0)  -->
<svg version="1.1" id="Layer_1" xmlns="http://www.w3.org/2000/svg" xmlns:xlink="http://www.w3.org/1999/xlink" x="0px" y="0px"
	 viewBox="0 0 100 100" style="enable-background:new 0 0 100 100;" xml:space="preserve">
<style type="text/css">
	.st0{fill:#FFFFFF;}
	.st1{fill:#FF697B;}
	.st2{fill:#252539;}
	.st3{opacity:0.4;}
	.st4{fill:#240054;}
</style>
<g id="XMLID_5_">
	<g id="XMLID_111_">
		<path id="XMLID_13_" class="st0" d="M55.1,94.4H33.6c-9.4,0-17-7.6-17-17V37h38.4V94.4z"/>
	</g>
	<g id="XMLID_110_">
		<path id="XMLID_12_" class="st1" d="M23.6,37v26.8c0,15.8,12.8,28.7,28.7,28.7h13.8l5.8-11.6l-1-43.9H23.6z"/>
	</g>
	<g id="XMLID_106_">
		<circle id="XMLID_11_" class="st2" cx="88.5" cy="94.4" r="2.5"/>
	</g>
	<g id="XMLID_114_">
		<circle id="XMLID_10_" class="st0" cx="30.4" cy="64.7" r="2.5"/>
	</g>
	<g id="XMLID_109_">
		<circle id="XMLID_9_" class="st2" cx="34.4" cy="29.4" r="2.5"/>
	</g>
	<g id="XMLID_105_">
		<path id="XMLID_8_" class="st2" d="M53.6,32.2c-0.7,0-1.5-0.3-1.9-0.9c-1.4-1.8-4.7-6.7-4.2-13.3c0.6-8.6,7-13.5,8.2-14.4
			c1.1-0.8,2.7-0.5,3.5,0.6c0.8,1.1,0.5,2.7-0.6,3.5c-0.9,0.7-5.7,4.3-6.1,10.7c-0.4,4.9,2.1,8.6,3.1,9.9c0.9,1.1,0.7,2.6-0.4,3.5
			C54.7,32.1,54.2,32.2,53.6,32.2z"/>
	</g>
	<g id="XMLID_107_">
		<path id="XMLID_7_" class="st2" d="M43.8,31.9c-0.9,0-1.7-0.5-2.2-1.3c-1.3-2.5-2.2-5.2-2.6-7.9c-0.3-2.4-0.3-4.8,0-7.1
			c0.2-1.4,1.5-2.3,2.8-2.1c1.4,0.2,2.3,1.5,2.1,2.8c-0.3,1.9-0.3,3.8,0,5.7c0.3,2.2,1,4.3,2.1,6.3c0.6,1.2,0.2,2.7-1,3.4
			C44.5,31.8,44.2,31.9,43.8,31.9z"/>
	</g>
	<g id="XMLID_113_">
		<path id="XMLID_6_" class="st0" d="M30.4,57.2c-1.4,0-2.5-1.1-2.5-2.5V37c0-1.4,1.1-2.5,2.5-2.5s2.5,1.1,2.5,2.5v17.7
			C32.9,56.1,31.8,57.2,30.4,57.2z"/>
	</g>
	<g id="XMLID_151_" class="st3">
		<path id="XMLID_1_" class="st4" d="M74.1,40c0,1.4-1.1,2.5-2.5,2.5h-1.6V84c0,5.5-4.8,9.7-10.3,9L50.9,92c1.3,0,4.5-0.4,7.6-2.7
			l0,0c2.5-1.9,4-4.9,4-8V42.4h-17c-1.4,0-2.5-1.1-2.5-2.5c0-1.4,1.1-2.5,2.5-2.5h26.1C73,37.5,74.1,38.6,74.1,40z"/>
	</g>
	<g id="XMLID_31_">
		<path id="XMLID_4_" class="st2" d="M75.7,68c-1.3,0-2.4-1.1-2.5-2.4c0-1.4,1-2.5,2.4-2.6c6.3-0.2,11.4-5.1,11.6-11.3
			c0.1-3.1-1-6.1-3.2-8.4c-2.2-2.4-5.2-3.8-8.5-3.9l-65.4,0c-1.4,0-2.5-1.1-2.5-2.5c0-1.4,1.1-2.5,2.5-2.5h65.5
			c4.7,0.2,8.9,2.1,12.1,5.5c3.1,3.3,4.7,7.6,4.5,12C91.9,60.7,84.6,67.7,75.7,68C75.8,68,75.7,68,75.7,68z"/>
	</g>
	<g id="XMLID_104_">
		<path id="XMLID_3_" class="st2" d="M56.3,96.9c-1.4,0-2.5-1.1-2.5-2.5s1.1-2.5,2.5-2.5c7.3,0,13.2-5.9,13.2-13.2V37
			c0-1.4,1.1-2.5,2.5-2.5c1.4,0,2.5,1.1,2.5,2.5v41.7C74.5,88.7,66.3,96.9,56.3,96.9z"/>
	</g>
	<g id="XMLID_103_">
		<path id="XMLID_2_" class="st2" d="M80.9,96.9H35.2c-12.3,0-22.3-10-22.3-22.3V37c0-1.4,1.1-2.5,2.5-2.5s2.5,1.1,2.5,2.5v37.6
			c0,9.6,7.8,17.4,17.4,17.4h45.7c1.4,0,2.5,1.1,2.5,2.5S82.2,96.9,80.9,96.9z"/>
	</g>
</g>
</svg>
