<?xml version="1.0" encoding="UTF-8"?>
<svg viewBox="0 0 400 246.58" xmlns="http://www.w3.org/2000/svg">
<defs>
<style>.cls-1 {
        opacity: 0.22;
      }
      .cls-2 {
        fill: #ffb303;
      }
      .cls-3 {
        opacity: 0.3;
      }
      .cls-4 {
        fill: #222221;
      }
      .cls-5 {
        fill: #b3b3b3;
      }
      .cls-6 {
        fill: #3e3e3d;
      }
      .cls-7 {
        fill: #6f6f6f;
      }
      .cls-8 {
        fill: #fff;
      }
      .cls-12, .cls-9 {
        fill: none;
        stroke: #425973;
        stroke-linecap: round;
        stroke-linejoin: round;
        stroke-miterlimit: 10;
      }
      .cls-9 {
        stroke-width: 3.3px;
      }
      .cls-10 {
        fill: #dd9ab2;
      }
      .cls-11 {
        fill: #d6819f;
      }
      .cls-12 {
        stroke-width: 2.75px;
      }
      .cls-13 {
        fill: #e9c2d0;
      }
      .cls-14 {
        fill: #db9022;
      }</style>
</defs>
<g transform="translate(-490 -214)" data-name="Group 3213">
<g transform="translate(490.02 214)" data-name="Group 3209">
<g data-name="Group 3212">
<g transform="translate(-.025)" data-name="Group 3152">
<g class="cls-1" transform="translate(2.713 15.777)" data-name="Group 3114">
<path class="cls-2" transform="translate(-2.536 -14.889)" d="M215.054,35.351C173.518,48.6,42.233-16.676,52.511,72.437c1.589,13.245,10.172,32,2.967,44.4-5.192,9.325-14.834,14.728-24.053,18.331-24.159,9.854-33.166,28.291-27.02,54.57,16.424,70.887,105.536,54.146,152.265,33.06,33.272-15.682,72.583-18.331,107.02-5.086,27.02,10.808,43.868,33.378,75.55,26.808,28.079-5.616,32.318-32.212,24.159-56.9-4.662-15.258-8.053-21.722,1.272-36.45,7.841-14.623,21.51-25.748,22.57-42.914.212-18.543-8.265-37.3-24.795-44.4-13.563-5.722-25.748-3.391-39.205-6.993C293.253,48.6,274.18,2.291,237.2,18.185c-9.219,4.344-14.411,14.3-24.371,17.272" data-name="Path 1607"/>
</g>
<g class="cls-3" data-name="Group 3151">
<g transform="translate(197.32 24.053)" data-name="Group 3116">
<g data-name="Group 3115">
<path class="cls-2" transform="translate(-186.2 -22.7)" d="m189.06 28.528c3.709 0 3.709-5.828 0-5.828-3.815 0-3.815 5.828 0 5.828z" data-name="Path 1608"/>
</g>
</g>
<g transform="translate(21.867 107.87)" data-name="Group 3118">
<g data-name="Group 3117">
<path class="cls-2" transform="translate(-20.612 -101.8)" d="m26.215 113.46c7.523 0 7.523-11.656 0-11.656-7.417 0-7.523 11.656 0 11.656z" data-name="Path 1609"/>
</g>
</g>
<g transform="translate(372.24 154.28)" data-name="Group 3120">
<g data-name="Group 3119">
<path class="cls-2" transform="translate(-351.28 -145.6)" d="m356.92 157.26c7.523 0 7.523-11.656 0-11.656s-7.523 11.656 0 11.656z" data-name="Path 1610"/>
</g>
</g>
<g transform="translate(174.83 15.258)" data-name="Group 3122">
<g data-name="Group 3121">
<path class="cls-2" transform="translate(-164.98 -14.4)" d="m170.62 26.056c7.523 0 7.523-11.656 0-11.656s-7.523 11.656 0 11.656z" data-name="Path 1611"/>
</g>
</g>
<g transform="translate(382.22 132.24)" data-name="Group 3124">
<g data-name="Group 3123">
<path class="cls-2" transform="translate(-360.7 -124.8)" d="m368.01 139.95c9.748 0 9.748-15.152 0-15.152s-9.748 15.152 0 15.152z" data-name="Path 1612"/>
</g>
</g>
<g transform="translate(.556 123.55)" data-name="Group 3126">
<g data-name="Group 3125">
<path class="cls-2" transform="translate(-.5 -116.6)" d="m7.811 131.75c9.748 0 9.748-15.152 0-15.152s-9.748 15.152 0 15.152z" data-name="Path 1613"/>
</g>
</g>
<g transform="translate(323.95 32.53)" data-name="Group 3128">
<g data-name="Group 3127">
<path class="cls-2" transform="translate(-305.7 -30.7)" d="m313.01 45.852c9.748 0 9.748-15.152 0-15.152s-9.748 15.152 0 15.152z" data-name="Path 1614"/>
</g>
</g>
<g transform="translate(188.8)" data-name="Group 3130">
<g data-name="Group 3129">
<path class="cls-2" transform="translate(-178.15)" d="m186.57 17.483c11.232 0 11.232-17.483 0-17.483s-11.232 17.483 0 17.483z" data-name="Path 1615"/>
</g>
</g>
<g transform="translate(391.58 152.48)" data-name="Group 3132">
<g data-name="Group 3131">
<path class="cls-2" transform="translate(-369.52 -143.9)" d="m373.74 152.59c5.616 0 5.616-8.689 0-8.689-5.616-0.106-5.616 8.689 0 8.689z" data-name="Path 1616"/>
</g>
</g>
<g transform="translate(1.563 105.64)" data-name="Group 3134">
<g data-name="Group 3133">
<path class="cls-2" transform="translate(-1.45 -99.7)" d="m5.741 108.39c5.616 0 5.616-8.689 0-8.689-5.722 0-5.722 8.689 0 8.689z" data-name="Path 1617"/>
</g>
</g>
<g transform="translate(345.27 47.364)" data-name="Group 3136">
<g data-name="Group 3135">
<path class="cls-2" transform="translate(-325.82 -44.7)" d="m330.04 53.389c5.616 0 5.616-8.689 0-8.689s-5.616 8.689 0 8.689z" data-name="Path 1618"/>
</g>
</g>
<g transform="translate(345.22 34.225)" data-name="Group 3138">
<g data-name="Group 3137">
<path class="cls-2" transform="translate(-325.78 -32.3)" d="m328.56 38.128c3.709 0 3.709-5.828 0-5.828s-3.709 5.828 0 5.828z" data-name="Path 1619"/>
</g>
</g>
<g transform="translate(47.258 18.331)" data-name="Group 3140">
<g data-name="Group 3139">
<path class="cls-2" transform="translate(-44.575 -17.3)" d="m50.217 28.956c7.523 0 7.523-11.656 0-11.656s-7.523 11.656 0 11.656z" data-name="Path 1620"/>
</g>
</g>
<g transform="translate(378.81 219.23)" data-name="Group 3142">
<g data-name="Group 3141">
<path class="cls-2" transform="translate(-357.48 -206.9)" d="m363.12 218.56c7.523 0 7.523-11.656 0-11.656s-7.523 11.656 0 11.656z" data-name="Path 1621"/>
</g>
</g>
<g transform="translate(0 224.42)" data-name="Group 3144">
<g data-name="Group 3143">
<path class="cls-2" transform="translate(.025 -211.8)" d="m5.617 223.46c7.523 0 7.523-11.656 0-11.656s-7.523 11.656 0 11.656z" data-name="Path 1622"/>
</g>
</g>
<g transform="translate(67.523 15.47)" data-name="Group 3146">
<g data-name="Group 3145">
<path class="cls-2" transform="translate(-63.7 -14.6)" d="m66.561 20.428c3.709 0 3.709-5.828 0-5.828-3.815 0-3.815 5.828 0 5.828z" data-name="Path 1623"/>
</g>
</g>
<g transform="translate(382.41 201.75)" data-name="Group 3148">
<g data-name="Group 3147">
<path class="cls-2" transform="translate(-360.88 -190.4)" d="m363.66 196.23c3.709 0 3.709-5.828 0-5.828s-3.709 5.828 0 5.828z" data-name="Path 1624"/>
</g>
</g>
<g transform="translate(20.344 237.46)" data-name="Group 3150">
<g data-name="Group 3149">
<path class="cls-2" transform="translate(-19.175 -224.1)" d="m21.956 229.93c3.709 0 3.709-5.828 0-5.828s-3.709 5.828 0 5.828z" data-name="Path 1625"/>
</g>
</g>
</g>
</g>
</g>
<g transform="translate(44.519 46.596)" data-name="Group 3207">
<g transform="translate(0 18.146)" data-name="Group 3201">
<g transform="translate(0 26.649)" data-name="Group 3177">
<g data-name="Group 3164">
<g transform="translate(9.621 11.115)" data-name="Group 3154">
<g data-name="Group 3153">
<path class="cls-4" transform="translate(-51.093 -96.74)" d="M103.233,139.4c-4.662,1.589-6.887,1.166-8.9-3.179-1.377-2.861-2.437-5.828-4.238-8.371-1.8-2.437-4.132-5.086-7.205-5.934-2.755-.742-5.616.212-8.371.424-6.781.53-15.152-1.06-16.212-8.689-.848-5.51-.742-10.6-3.179-15.788-1.166-2.543-4.98-.318-3.815,2.225,2.649,5.722,1.377,12.079,3.5,17.8,2.331,6.252,9.113,7.947,15.046,8.583,3.709.424,8.477-1.377,11.974-.424,4.344,1.272,6.675,7.205,8.265,11.02,2.967,6.887,7.1,9.007,14.411,6.464,2.543-.848,1.377-5.086-1.272-4.132Z" data-name="Path 1626"/>
</g>
</g>
<g data-name="Group 3163">
<g transform="translate(9.914 5.482)" data-name="Group 3156">
<g data-name="Group 3155">
<path class="cls-4" transform="translate(-51.37 -91.424)" d="M57.018,92.352a12.647,12.647,0,0,1-4.768,3.709c-2.013,1.06-.212,4.026,1.8,2.967a17.141,17.141,0,0,0,6.04-4.98,1.756,1.756,0,1,0-3.073-1.7Z" data-name="Path 1627"/>
</g>
</g>
<g transform="translate(9.31)" data-name="Group 3158">
<g data-name="Group 3157">
<path class="cls-4" transform="translate(-50.8 -86.25)" d="M50.8,88c0,3.709.53,7.417.53,11.126a1.75,1.75,0,0,0,3.5,0c0-3.709-.53-7.417-.53-11.126a1.748,1.748,0,1,0-3.5,0Z" data-name="Path 1628"/>
</g>
</g>
<g transform="translate(3.034 2.19)" data-name="Group 3160">
<g data-name="Group 3159">
<path class="cls-4" transform="translate(-44.876 -88.317)" d="M45.325,91.372a32.844,32.844,0,0,0,7.947,7.841,1.736,1.736,0,0,0,1.8-2.967c-2.967-1.8-5.086-4.662-7.205-7.311-1.483-1.8-4.026.742-2.543,2.437Z" data-name="Path 1629"/>
</g>
</g>
<g transform="translate(0 7.539)" data-name="Group 3162">
<g data-name="Group 3161">
<path class="cls-4" transform="translate(-42.013 -93.365)" d="M42.529,96.369a11.31,11.31,0,0,0,11.656,2.755c2.119-.636,1.272-4.026-.954-3.391a7.581,7.581,0,0,1-8.159-1.907c-1.7-1.483-4.132.954-2.543,2.543Z" data-name="Path 1630"/>
</g>
</g>
</g>
</g>
<g transform="translate(236.37 11.656)" data-name="Group 3176">
<g transform="translate(0 9.497)" data-name="Group 3166">
<g data-name="Group 3165">
<path class="cls-4" transform="translate(-265.08 -106.21)" d="M269.233,149.749c.106-5.616,2.119-7.629,7.629-8.053,3.5-.318,7.311,0,10.808-.954,5.616-1.483,4.768-8.159,7.417-12.291,3.6-5.828,11.126-4.98,16.954-6.887,6.252-2.013,8.795-6.887,9.219-13.245.212-2.861-4.238-2.755-4.344,0-.53,9.007-7.1,9.113-14.3,10.7-6.358,1.377-10.7,4.662-12.821,10.914-.848,2.331-.848,5.4-3.179,6.57-2.861,1.483-8.053.53-11.232.848-7.417.848-10.172,4.98-10.278,12.291-.318,2.861,4.132,2.861,4.132.106Z" data-name="Path 1631"/>
</g>
</g>
<g transform="translate(45.678)" data-name="Group 3175">
<g transform="translate(0 4.038)" data-name="Group 3168">
<g data-name="Group 3167">
<path class="cls-4" transform="translate(-308.19 -101.06)" d="m308.31 103.33a13.509 13.509 0 0 0 7.629 7.629 1.783 1.783 0 0 0 2.119-1.272 1.7 1.7 0 0 0-1.272-2.119 9.591 9.591 0 0 1-5.192-5.192 1.879 1.879 0 0 0-2.119-1.272 1.785 1.785 0 0 0-1.166 2.225z" data-name="Path 1632"/>
</g>
</g>
<g transform="translate(5.305)" data-name="Group 3170">
<g data-name="Group 3169">
<path class="cls-4" transform="translate(-313.2 -97.25)" d="M313.2,99v8.689a1.75,1.75,0,0,0,3.5,0V99a1.748,1.748,0,0,0-3.5,0Z" data-name="Path 1633"/>
</g>
</g>
<g transform="translate(5.155 1.194)" data-name="Group 3172">
<g data-name="Group 3171">
<path class="cls-4" transform="translate(-313.06 -98.376)" d="M319.036,99.567a15.741,15.741,0,0,1-5.4,7.417c-1.7,1.377.742,3.921,2.437,2.437a19.554,19.554,0,0,0,6.252-8.9c.848-2.119-2.543-3.073-3.285-.954Z" data-name="Path 1634"/>
</g>
</g>
<g transform="translate(7.764 5.257)" data-name="Group 3174">
<g data-name="Group 3173">
<path class="cls-4" transform="translate(-315.52 -102.21)" d="M323.234,103.047a12.909,12.909,0,0,1-6.57,4.98c-2.013.848-1.166,4.238.954,3.391a16.763,16.763,0,0,0,8.583-6.675c1.166-1.907-1.8-3.6-2.967-1.7Z" data-name="Path 1635"/>
</g>
</g>
</g>
</g>
</g>
<g transform="translate(38.238)" data-name="Group 3200">
<g transform="translate(0 117.72)" data-name="Group 3183">
<g transform="translate(1.166)" data-name="Group 3181">
<path class="cls-5" transform="translate(-79.2 -172.2)" d="m301.19 209.07c0 3.073-22.887 3.921-25.325 3.921h-171.34c-2.437 0-25.325-0.848-25.325-3.921l20.874-31.364c0-3.073 2.013-5.51 4.45-5.51h171.34c2.437 0 4.45 2.437 4.45 5.51z" data-name="Path 1636"/>
<g transform="translate(11.338 11.232)" data-name="Group 3180">
<g data-name="Group 3178">
<path class="cls-6" transform="translate(-88.756 -182.8)" d="m153.18 201.45h-44.08l7.735-18.649h39.841z" data-name="Path 1637"/>
<path class="cls-6" transform="translate(-82.509 -182.8)" d="m217.4 201.45h43.97l-7.629-18.649h-39.841z" data-name="Path 1638"/>
<path class="cls-6" transform="translate(-80.06 -182.8)" d="M263.795,201.449h15.576L266.656,182.8H255Z" data-name="Path 1639"/>
<path class="cls-6" transform="translate(-89.9 -182.8)" d="M105.37,201.449H89.9L102.509,182.8h11.762Z" data-name="Path 1640"/>
<path class="cls-6" transform="translate(-86.062 -182.8)" d="m217.03 201.45h-62.729l3.5-18.649h55.735z" data-name="Path 1641"/>
</g>
<g transform="translate(1.695 3.497)" data-name="Group 3179">
<rect class="cls-5" transform="translate(2.119)" width="191.68" height="2.861" data-name="Rectangle 1922"/>
<rect class="cls-5" transform="translate(0 6.993)" width="195.82" height="2.861" data-name="Rectangle 1923"/>
</g>
</g>
</g>
<g transform="translate(0 35.921)" data-name="Group 3182">
<path class="cls-6" transform="translate(-78.1 -206.1)" d="M302.418,214.365c0,2.437-.53,4.45-2.967,4.45H81.067c-2.437,0-2.967-2.013-2.967-4.45V210.55c0-2.437.53-4.45,2.967-4.45H299.451c2.437,0,2.967,2.013,2.967,4.45Z" data-name="Path 1642"/>
<path class="cls-7" transform="translate(-74.095 -205.87)" d="m227.21 212.33a2.352 2.352 0 0 1-2.331 2.331h-77.245a2.352 2.352 0 0 1-2.331-2.331 2.352 2.352 0 0 1 2.331-2.331h77.245a2.285 2.285 0 0 1 2.331 2.331z" data-name="Path 1643"/>
</g>
</g>
<g transform="translate(19.815)" data-name="Group 3199">
<path class="cls-6" transform="translate(-96.8 -61.1)" d="M281.489,180.2a4.477,4.477,0,0,1-4.45,4.45H101.25a4.477,4.477,0,0,1-4.45-4.45V65.55a4.477,4.477,0,0,1,4.45-4.45H277.038a4.477,4.477,0,0,1,4.45,4.45Z" data-name="Path 1644"/>
<g transform="translate(90.543 2.437)" data-name="Group 3185">
<g data-name="Group 3184">
<path class="cls-8" transform="translate(-182.25 -63.4)" d="m184 67.109a1.854 1.854 0 0 0 0-3.709c-2.331 0-2.331 3.709 0 3.709z" data-name="Path 1645"/>
</g>
</g>
<g transform="translate(12.927 9.43)" data-name="Group 3198">
<path class="cls-8" transform="translate(-109 -70)" d="m267.83 172.46a3.8 3.8 0 0 1-3.815 3.815h-151.2a3.8 3.8 0 0 1-3.815-3.815v-98.649a3.8 3.8 0 0 1 3.815-3.815h151.2a3.8 3.8 0 0 1 3.815 3.815z" data-name="Path 1646"/>
<g transform="translate(21.272 39.947)" data-name="Group 3197">
<g transform="translate(21.854)" data-name="Group 3188">
<g data-name="Group 3186">
<line class="cls-9" x1="13.139" y2="13.139" data-name="Line 130"/>
<line class="cls-9" x1="13.139" y1="13.139" data-name="Line 131"/>
</g>
<g transform="translate(59.444)" data-name="Group 3187">
<line class="cls-9" x1="13.139" y2="13.139" data-name="Line 132"/>
<line class="cls-9" x1="13.139" y1="13.139" data-name="Line 133"/>
</g>
</g>
<g transform="translate(18.57 29.033)" data-name="Group 3191">
<g transform="translate(58.066 .106)" data-name="Group 3190">
<path class="cls-10" transform="translate(-201.4 -135.2)" d="M213.268,135.2v13.033a4.7,4.7,0,0,1-4.662,4.662h-2.543a4.7,4.7,0,0,1-4.662-4.662V135.2" data-name="Path 1647"/>
<g transform="translate(3.921 .636)" data-name="Group 3189">
<path class="cls-11" transform="translate(-205.1 -135.8)" d="m209.23 135.8-2.119 15.152-2.014-15.152z" data-name="Path 1648"/>
</g>
</g>
<line class="cls-12" x2="79.046" data-name="Line 134"/>
</g>
<g transform="translate(0 15.47)" data-name="Group 3196">
<g data-name="Group 3193">
<g data-name="Group 3192">
<path class="cls-13" transform="translate(-129.08 -122.3)" d="m134.72 133.96c7.523 0 7.523-11.656 0-11.656s-7.523 11.656 0 11.656z" data-name="Path 1649"/>
</g>
</g>
<g transform="translate(104.9)" data-name="Group 3195">
<g data-name="Group 3194">
<path class="cls-13" transform="translate(-228.08 -122.3)" d="m233.72 133.96c7.523 0 7.523-11.656 0-11.656s-7.523 11.656 0 11.656z" data-name="Path 1650"/>
</g>
</g>
</g>
</g>
</g>
</g>
</g>
</g>
<g transform="translate(211.4)" data-name="Group 3206">
<g transform="translate(1.351)" data-name="Group 3203">
<g data-name="Group 3202">
<path class="cls-14" transform="translate(-242.8 -43.975)" d="M242.8,46.756V85.22c0,3.709,5.828,3.709,5.828,0V46.756c0-3.709-5.828-3.709-5.828,0Z" data-name="Path 1651"/>
</g>
</g>
<g transform="translate(0 47.391)" data-name="Group 3205">
<g data-name="Group 3204">
<path class="cls-14" transform="translate(-241.52 -88.7)" d="m245.74 97.389c5.616 0 5.616-8.689 0-8.689s-5.616 8.689 0 8.689z" data-name="Path 1652"/>
</g>
</g>
</g>
</g>
</g>
</g>
</svg>
