<svg width="380" height="75" viewBox="0 0 380 75" fill="none" xmlns="http://www.w3.org/2000/svg">
<path d="M116.85 51.55H103.6L101.4 58H92.4L105.35 22.9H115.2L128.15 58H119.05L116.85 51.55ZM114.65 45.05L110.25 32.05L105.8 45.05H114.65ZM140.023 21V58H131.473V21H140.023ZM145.127 22.25C145.127 20.95 145.593 19.8833 146.527 19.05C147.46 18.1833 148.693 17.75 150.227 17.75C151.76 17.75 152.993 18.1833 153.927 19.05C154.86 19.8833 155.327 20.95 155.327 22.25C155.327 23.5167 154.86 24.5833 153.927 25.45C152.993 26.2833 151.76 26.7 150.227 26.7C148.693 26.7 147.46 26.2833 146.527 25.45C145.593 24.5833 145.127 23.5167 145.127 22.25ZM154.477 30.1V58H145.927V30.1H154.477ZM188.539 58L180.889 44.65H178.939V58H170.389V22.65H184.989C187.789 22.65 190.156 23.1333 192.089 24.1C194.023 25.0667 195.473 26.4 196.439 28.1C197.406 29.7667 197.889 31.6833 197.889 33.85C197.889 36.4167 197.173 38.6 195.739 40.4C194.339 42.2 192.289 43.4333 189.589 44.1L197.989 58H188.539ZM178.939 38.8H184.239C185.939 38.8 187.189 38.4333 187.989 37.7C188.789 36.9333 189.189 35.8167 189.189 34.35C189.189 32.95 188.773 31.85 187.939 31.05C187.139 30.25 185.906 29.85 184.239 29.85H178.939V38.8ZM228.677 43.3C228.677 44 228.593 44.7667 228.427 45.6H209.077C209.177 47.7 209.71 49.2167 210.677 50.15C211.643 51.05 212.877 51.5 214.377 51.5C215.643 51.5 216.693 51.1833 217.527 50.55C218.36 49.9167 218.91 49.1 219.177 48.1H228.227C227.86 50.0667 227.06 51.8333 225.827 53.4C224.593 54.9333 223.027 56.15 221.127 57.05C219.227 57.9167 217.11 58.35 214.777 58.35C212.043 58.35 209.61 57.7833 207.477 56.65C205.377 55.4833 203.727 53.8167 202.527 51.65C201.327 49.4833 200.727 46.95 200.727 44.05C200.727 41.1167 201.31 38.5833 202.477 36.45C203.677 34.2833 205.343 32.6333 207.477 31.5C209.61 30.3333 212.043 29.75 214.777 29.75C217.543 29.75 219.977 30.3167 222.077 31.45C224.177 32.5833 225.793 34.1833 226.927 36.25C228.093 38.2833 228.677 40.6333 228.677 43.3ZM220.027 42C220.06 40.1667 219.56 38.8 218.527 37.9C217.527 36.9667 216.277 36.5 214.777 36.5C213.21 36.5 211.91 36.9667 210.877 37.9C209.843 38.8333 209.26 40.2 209.127 42H220.027ZM246.034 49.65L252.084 30.1H261.184L251.284 58H240.684L230.784 30.1H239.884L246.034 49.65ZM263.925 22.25C263.925 20.95 264.392 19.8833 265.325 19.05C266.259 18.1833 267.492 17.75 269.025 17.75C270.559 17.75 271.792 18.1833 272.725 19.05C273.659 19.8833 274.125 20.95 274.125 22.25C274.125 23.5167 273.659 24.5833 272.725 25.45C271.792 26.2833 270.559 26.7 269.025 26.7C267.492 26.7 266.259 26.2833 265.325 25.45C264.392 24.5833 263.925 23.5167 263.925 22.25ZM273.275 30.1V58H264.725V30.1H273.275ZM305.679 43.3C305.679 44 305.595 44.7667 305.429 45.6H286.079C286.179 47.7 286.712 49.2167 287.679 50.15C288.645 51.05 289.879 51.5 291.379 51.5C292.645 51.5 293.695 51.1833 294.529 50.55C295.362 49.9167 295.912 49.1 296.179 48.1H305.229C304.862 50.0667 304.062 51.8333 302.829 53.4C301.595 54.9333 300.029 56.15 298.129 57.05C296.229 57.9167 294.112 58.35 291.779 58.35C289.045 58.35 286.612 57.7833 284.479 56.65C282.379 55.4833 280.729 53.8167 279.529 51.65C278.329 49.4833 277.729 46.95 277.729 44.05C277.729 41.1167 278.312 38.5833 279.479 36.45C280.679 34.2833 282.345 32.6333 284.479 31.5C286.612 30.3333 289.045 29.75 291.779 29.75C294.545 29.75 296.979 30.3167 299.079 31.45C301.179 32.5833 302.795 34.1833 303.929 36.25C305.095 38.2833 305.679 40.6333 305.679 43.3ZM297.029 42C297.062 40.1667 296.562 38.8 295.529 37.9C294.529 36.9667 293.279 36.5 291.779 36.5C290.212 36.5 288.912 36.9667 287.879 37.9C286.845 38.8333 286.262 40.2 286.129 42H297.029ZM350.936 30.1L343.786 58H334.236L329.186 39.3L324.086 58H314.536L307.386 30.1H315.936L319.636 50.2L324.836 30.1H333.936L339.286 50.25L342.986 30.1H350.936ZM364.182 29.75C367.715 29.75 370.532 30.6333 372.632 32.4C374.765 34.1667 376.099 36.5 376.632 39.4H368.632C368.399 38.2667 367.865 37.3833 367.032 36.75C366.232 36.0833 365.215 35.75 363.982 35.75C363.015 35.75 362.282 35.9667 361.782 36.4C361.282 36.8 361.032 37.3833 361.032 38.15C361.032 39.0167 361.482 39.6667 362.382 40.1C363.315 40.5333 364.765 40.9667 366.732 41.4C368.865 41.9 370.615 42.4167 371.982 42.95C373.349 43.45 374.532 44.2833 375.532 45.45C376.532 46.6167 377.032 48.1833 377.032 50.15C377.032 51.75 376.599 53.1667 375.732 54.4C374.865 55.6333 373.615 56.6 371.982 57.3C370.349 58 368.415 58.35 366.182 58.35C362.415 58.35 359.399 57.5167 357.132 55.85C354.865 54.1833 353.482 51.8 352.982 48.7H361.232C361.365 49.9 361.865 50.8167 362.732 51.45C363.632 52.0833 364.782 52.4 366.182 52.4C367.149 52.4 367.882 52.1833 368.382 51.75C368.882 51.2833 369.132 50.6833 369.132 49.95C369.132 48.9833 368.665 48.3 367.732 47.9C366.832 47.4667 365.349 47.0167 363.282 46.55C361.215 46.1167 359.515 45.65 358.182 45.15C356.849 44.65 355.699 43.85 354.732 42.75C353.765 41.6167 353.282 40.0833 353.282 38.15C353.282 35.65 354.232 33.6333 356.132 32.1C358.032 30.5333 360.715 29.75 364.182 29.75Z" fill="white"/>
<path d="M0.271879 33.9476C1.93617 12.4979 22.858 -3.43553 43.8975 0.638348C67.7916 5.31095 80.749 29.8744 71.4772 52.52C71.1426 53.4419 71.1012 54.446 71.3587 55.3927C72.3097 58.8701 73.4985 62.2221 74.568 65.6972C75.6376 69.1724 74.8058 70.3698 71.118 70.0107C67.3139 69.6517 63.629 69.0522 59.8249 68.6931C58.9111 68.5891 57.9892 68.8002 57.2096 69.2918C49.7863 73.9073 41.0145 75.8109 32.3645 74.6833C13.7047 72.4094 -0.798398 55.1553 0.0341231 36.2245C0.152626 35.625 0.152626 34.7867 0.271879 33.9476ZM46.2773 22.9241C45.3095 22.8739 44.3874 22.4938 43.662 21.8461C40.9274 19.2101 38.4314 16.574 35.816 13.9342C33.5577 11.658 31.7742 12.0171 30.5854 15.1324C29.2781 18.6098 28.0893 22.082 26.6628 25.4369C26.2071 26.3755 25.4542 27.1344 24.523 27.5937C21.1944 28.9113 17.7473 29.9901 14.4187 31.3077C11.4472 32.3857 10.9687 34.3029 13.23 36.5798C16.2015 39.5749 19.1739 42.5708 22.0269 45.6861C22.6765 46.3774 23.0926 47.258 23.2157 48.202C23.6912 51.7966 24.0475 55.5106 24.4045 59.1052C24.7608 62.4602 26.4251 63.4188 29.2796 61.7413C32.846 59.7047 36.2931 57.5479 39.7409 55.5106C40.6769 54.9655 41.7534 54.7151 42.8317 54.7917C46.7543 55.1508 50.6777 55.6301 54.4818 56.228C58.4044 56.7073 59.5932 55.3897 58.4044 51.5554C57.3349 48.2005 56.2646 44.9657 55.3135 41.6108C55.0555 40.6228 55.0968 39.5797 55.432 38.6156C56.7393 34.6619 58.2821 30.8292 59.8302 26.9935C61.0189 23.7587 59.9494 22.2007 57.0963 22.3209C53.053 22.4448 49.6051 22.8047 46.2773 22.9241Z" fill="white"/>
</svg>
